<?xml version="1.0" encoding="UTF-8"?>
<svg xmlns="http://www.w3.org/2000/svg" xmlns:xlink="http://www.w3.org/1999/xlink" version="1.2" >
<font id="Maison Neue Medium">
<font-face  font-family="Maison Neue" units-per-em="1000" ascent="775" descent="-225" font-style="normal" font-weight="500" font-stretch="normal" cap-height="700" x-height="530" underline-position="-80" underline-thickness="80" />
<missing-glyph  horiz-adv-x="706" d="M60 423 Q60 481 83 533.5 Q106 586 145.5 626.5 Q185 667 238.5 691 Q292 715 352 715 Q413 715 466.5 691 Q520 667 560 626.5 Q600 586 623 533.5 Q646 481 646 423 L646 0 L618 0 L553 65 L485 0 L422 65 L351 0 L282 65 L219 0 L152 65 L86 0 L60 0 L60 423 Z M483 368 L547 305 L561 319 L497 382 L561 446 L547 460 L483 396 L420 460 L406 446 L469 382 L406 319 L420 305 L483 368 Z M223 368 L287 305 L301 319 L237 382 L301 446 L287 460 L223 396 L160 460 L146 446 L209 382 L146 319 L160 305 L223 368 Z " />
<glyph glyph-name="null" d="" />
<glyph glyph-name="nonmarkingreturn" unicode="&#xd;" horiz-adv-x="250" d="" />
<glyph glyph-name="space" unicode="&#x20;" horiz-adv-x="250" d="" />
<glyph glyph-name="exclam" unicode="&#x21;" horiz-adv-x="327" d="M113 700 L213 700 L213 216 L113 216 L113 700 Z M100 124 L227 124 L227 0 L100 0 L100 124 Z " />
<glyph glyph-name="quotedbl" unicode="&#x22;" horiz-adv-x="379" d="M80 700 L150 700 L150 469 L80 469 L80 700 Z M209 700 L279 700 L279 469 L209 469 L209 700 Z " />
<glyph glyph-name="numbersign" unicode="&#x23;" horiz-adv-x="682" d="M197 285 L70 285 L70 354 L202 354 L211 491 L103 491 L103 559 L216 559 L225 700 L299 700 L290 559 L410 559 L420 700 L494 700 L485 559 L612 559 L612 491 L480 491 L471 354 L579 354 L579 285 L467 285 L458 145 L384 145 L392 285 L272 285 L263 145 L189 145 L197 285 Z M397 354 L406 491 L285 491 L277 354 L397 354 Z " />
<glyph glyph-name="dollar" unicode="&#x24;" horiz-adv-x="663" d="M160 260 Q167 221 177 190.5 Q187 160 204.5 137.5 Q222 115 247.5 101 Q273 87 310 82 L310 326 Q192 358 139.5 406 Q87 454 87 524 Q87 560 102 593.5 Q117 627 145.5 653 Q174 679 215.5 695.5 Q257 712 311 714 L311 775 L358 775 L358 713 Q445 705 505.5 659.5 Q566 614 583 524 L486 499 Q474 545 446.5 578 Q419 611 358 618 L358 409 Q431 388 479.5 366 Q528 344 556.5 318 Q585 292 596.5 261.5 Q608 231 608 192 Q608 147 591.5 109.5 Q575 72 543 44.5 Q511 17 464.5 1.5 Q418 -14 357 -15 L357 -98 L310 -98 L310 -13 Q85 7 55 239 L160 260 Z M358 312 Q358 254 357.5 195.5 Q357 137 357 79 Q435 79 472 110 Q509 141 509 191 Q509 212 502.5 228.5 Q496 245 479.5 259 Q463 273 433.5 286 Q404 299 358 312 Z M187 525 Q187 491 213.5 467.5 Q240 444 310 424 L310 620 Q244 618 215.5 590 Q187 562 187 525 Z " />
<glyph glyph-name="percent" unicode="&#x25;" horiz-adv-x="947" d="M235 379 Q279 379 301 416 Q323 453 323 515 Q323 578 300 608.5 Q277 639 235 639 Q193 639 170 608 Q147 577 147 515 Q147 453 168.5 416 Q190 379 235 379 Z M235 307 Q162 307 116 359.5 Q70 412 70 516 Q70 566 84.5 602.5 Q99 639 122 663.5 Q145 688 175 700 Q205 712 235 712 Q265 712 295 700 Q325 688 348.5 663.5 Q372 639 386.5 602.5 Q401 566 401 516 Q401 413 354.5 360 Q308 307 235 307 Z M711 60 Q755 60 777 97 Q799 134 799 196 Q799 259 776 289.5 Q753 320 711 320 Q669 320 646 289 Q623 258 623 196 Q623 134 644.5 97 Q666 60 711 60 Z M711 -12 Q638 -12 592 40.5 Q546 93 546 197 Q546 247 560.5 283.5 Q575 320 598 344.5 Q621 369 651 381 Q681 393 711 393 Q741 393 771 381 Q801 369 824.5 344.5 Q848 320 862.5 283.5 Q877 247 877 197 Q877 94 830.5 41 Q784 -12 711 -12 Z M677 778 L735 741 L247 -73 L188 -37 L677 778 Z " />
<glyph glyph-name="ampersand" unicode="&#x26;" horiz-adv-x="707" d="M528 116 Q521 97 503.5 74 Q486 51 458.5 31 Q431 11 391.5 -2 Q352 -15 301 -15 Q250 -15 205.5 -1.5 Q161 12 129 38 Q97 64 78.5 102.5 Q60 141 60 192 Q60 240 77 276.5 Q94 313 116.5 338.5 Q139 364 161.5 380 Q184 396 196 403 Q167 430 146.5 467.5 Q126 505 126 550 Q126 587 140.5 617.5 Q155 648 180 669.5 Q205 691 239.5 703 Q274 715 314 715 Q392 715 444 674 Q496 633 509 552 L418 531 Q408 576 384.5 601.5 Q361 627 313 627 Q268 627 246 605 Q224 583 224 549 Q224 520 240 498 Q256 476 279 456 L461 298 L463 298 L463 408 L551 408 L551 221 L687 104 L627 33 L528 116 Z M261 351 Q219 331 187 294 Q155 257 155 202 Q155 141 197 109 Q239 77 303 77 Q335 77 361 86 Q387 95 407 109.5 Q427 124 440 143 Q453 162 458 182 L261 351 Z " />
<glyph glyph-name="quotesingle" unicode="&#x27;" horiz-adv-x="250" d="M90 700 L160 700 L160 469 L90 469 L90 700 Z " />
<glyph glyph-name="parenleft" unicode="&#x28;" horiz-adv-x="381" d="M279 -197 Q269 -187 236.5 -145.5 Q204 -104 169 -38 Q134 28 107 115 Q80 202 80 303 Q80 410 107 494.5 Q134 579 169 640.5 Q204 702 236.5 739 Q269 776 279 786 L331 742 Q297 703 266.5 660 Q236 617 212.5 565 Q189 513 175.5 449 Q162 385 162 304 Q162 232 176.5 166 Q191 100 214.5 42 Q238 -16 268 -65.5 Q298 -115 330 -154 L279 -197 Z " />
<glyph glyph-name="parenright" unicode="&#x29;" horiz-adv-x="381" d="M31 -154 Q63 -115 93 -65.5 Q123 -16 146.5 42 Q170 100 184.5 166 Q199 232 199 304 Q199 385 185.5 449 Q172 513 148.5 565 Q125 617 94.5 660 Q64 703 30 742 L82 786 Q93 776 125 739 Q157 702 192 640.5 Q227 579 254 494.5 Q281 410 281 303 Q281 202 254 115 Q227 28 192 -38 Q157 -104 125 -145.5 Q93 -187 82 -197 L31 -154 Z " />
<glyph glyph-name="asterisk" unicode="&#x2a;" horiz-adv-x="499" d="M179 491 L60 561 L99 627 L211 562 L211 700 L288 700 L288 562 L401 628 L439 561 L320 491 L411 382 L353 332 L249 458 L147 331 L89 382 L179 491 Z " />
<glyph glyph-name="plus" unicode="&#x2b;" horiz-adv-x="580" d="M249 335 L50 335 L50 413 L249 413 L249 615 L331 615 L331 413 L530 413 L530 335 L331 335 L331 110 L249 110 L249 335 Z " />
<glyph glyph-name="comma" unicode="&#x2c;" horiz-adv-x="307" d="M90 -63 Q121 -58 129.5 -42 Q138 -26 138 0 L90 0 L90 124 L217 124 L217 15 Q217 -38 189 -74.5 Q161 -111 90 -116 L90 -63 Z " />
<glyph glyph-name="hyphen" unicode="&#x2d;" horiz-adv-x="429" d="M50 378 L379 378 L379 295 L50 295 L50 378 Z " />
<glyph glyph-name="period" unicode="&#x2e;" horiz-adv-x="307" d="M90 124 L217 124 L217 0 L90 0 L90 124 Z " />
<glyph glyph-name="slash" unicode="&#x2f;" horiz-adv-x="454" d="M375 746 L439 716 L79 -42 L15 -14 L375 746 Z " />
<glyph glyph-name="zero" unicode="0" horiz-adv-x="617" d="M308 -15 Q248 -15 199.5 8.5 Q151 32 116.5 78.5 Q82 125 63.5 195.5 Q45 266 45 360 Q45 449 64.5 515.5 Q84 582 119.5 626.5 Q155 671 203 693 Q251 715 308 715 Q365 715 413.5 693 Q462 671 497 626.5 Q532 582 552 515.5 Q572 449 572 360 Q572 266 553.5 195.5 Q535 125 500.5 78.5 Q466 32 417 8.5 Q368 -15 308 -15 Z M308 77 Q470 77 470 360 Q470 493 428 557.5 Q386 622 308 622 Q230 622 188 557.5 Q146 493 146 360 Q146 217 187 147 Q228 77 308 77 Z " />
<glyph glyph-name="one" unicode="1" horiz-adv-x="461" d="M216 586 L65 491 L65 600 L226 700 L311 700 L311 0 L216 0 L216 586 Z " />
<glyph glyph-name="two" unicode="2" horiz-adv-x="583" d="M59 75 Q59 123 68.5 160 Q78 197 99 226 Q122 258 162 284 Q202 310 256 339 Q298 361 330 379 Q362 397 384 416 Q406 435 417 457.5 Q428 480 428 512 Q428 532 420 552 Q412 572 395.5 588.5 Q379 605 354 615 Q329 625 295 625 Q229 625 192.5 585.5 Q156 546 151 471 L55 483 Q58 539 76.5 582 Q95 625 126.5 654.5 Q158 684 202 699.5 Q246 715 298 715 Q351 715 393 699 Q435 683 464 655 Q493 627 509 589 Q525 551 525 507 Q525 458 508 423 Q491 388 463.5 361.5 Q436 335 402 314.5 Q368 294 333 276 Q302 260 278 247.5 Q254 235 236.5 224 Q219 213 206.5 202 Q194 191 186 178 Q175 161 171 142.5 Q167 124 167 98 L528 98 L528 0 L59 0 L59 75 Z " />
<glyph glyph-name="three" unicode="3" horiz-adv-x="592" d="M137 249 Q148 161 186 118 Q224 75 299 75 Q373 75 408 112 Q443 149 443 201 Q443 267 401 298.5 Q359 330 289 330 L249 330 L249 413 L277 413 Q294 413 318 416.5 Q342 420 364 431 Q386 442 401.5 462 Q417 482 417 516 Q417 567 384.5 596 Q352 625 295 625 Q238 625 207.5 592 Q177 559 169 501 L75 518 Q85 609 144.5 662 Q204 715 297 715 Q342 715 381 702.5 Q420 690 449 666 Q478 642 495 606.5 Q512 571 512 526 Q512 494 503 469.5 Q494 445 480 428 Q466 411 449 399.5 Q432 388 415 382 L415 380 Q436 374 458 360.5 Q480 347 499 325 Q518 303 530 271 Q542 239 542 196 Q542 151 524.5 112.5 Q507 74 475.5 45.5 Q444 17 399.5 1 Q355 -15 300 -15 Q248 -15 203.5 -1 Q159 13 125 43 Q91 73 69 119 Q47 165 40 229 L137 249 Z " />
<glyph glyph-name="four" unicode="4" horiz-adv-x="572" d="M30 245 L306 700 L456 700 L456 245 L542 245 L542 152 L456 152 L456 0 L360 0 L360 152 L30 152 L30 245 Z M360 245 L360 624 L358 624 L129 245 L360 245 Z " />
<glyph glyph-name="five" unicode="5" horiz-adv-x="595" d="M145 214 Q161 156 199.5 116 Q238 76 305 76 Q373 76 415.5 117 Q458 158 458 235 Q458 310 416 349.5 Q374 389 309 389 Q280 389 256.5 381.5 Q233 374 214 362.5 Q195 351 181.5 336.5 Q168 322 158 307 L74 346 L136 700 L493 700 L493 607 L212 607 L177 407 L179 406 Q196 426 233.5 447 Q271 468 332 468 Q377 468 417.5 451.5 Q458 435 488.5 404 Q519 373 537 330 Q555 287 555 233 Q555 175 536 128.5 Q517 82 483 50.5 Q449 19 403.5 2 Q358 -15 305 -15 Q253 -15 211.5 -0.5 Q170 14 138 40 Q106 66 84 101 Q62 136 50 177 L145 214 Z " />
<glyph glyph-name="six" unicode="6" horiz-adv-x="631" d="M338 76 Q410 76 448 119 Q486 162 486 231 Q486 299 446 341 Q406 383 334 383 Q300 383 271.5 371 Q243 359 222.5 339 Q202 319 191 293 Q180 267 180 238 Q180 202 192 172.5 Q204 143 225 121.5 Q246 100 275 88 Q304 76 338 76 Z M460 512 Q446 563 415.5 594 Q385 625 328 625 Q295 625 264 608.5 Q233 592 209.5 559 Q186 526 172 476.5 Q158 427 157 362 L159 361 Q165 372 179.5 389.5 Q194 407 218.5 423.5 Q243 440 277 452 Q311 464 356 464 Q398 464 438.5 448.5 Q479 433 510.5 403 Q542 373 561.5 329.5 Q581 286 581 230 Q581 171 562 125.5 Q543 80 510 48.5 Q477 17 433 1 Q389 -15 338 -15 Q283 -15 231.5 5 Q180 25 141 68 Q102 111 78.5 178.5 Q55 246 55 340 Q55 421 75 489.5 Q95 558 131.5 608 Q168 658 219 686.5 Q270 715 332 715 Q382 715 420 700 Q458 685 484.5 660 Q511 635 527.5 603 Q544 571 551 536 L460 512 Z " />
<glyph glyph-name="seven" unicode="7" horiz-adv-x="497" d="M364 604 L364 606 L15 606 L15 700 L467 700 L467 596 L146 0 L32 0 L364 604 Z " />
<glyph glyph-name="eight" unicode="8" horiz-adv-x="574" d="M287 629 Q256 629 233.5 620 Q211 611 196 596.5 Q181 582 174 563 Q167 544 167 523 Q167 478 199.5 447.5 Q232 417 287 417 Q343 417 375 447.5 Q407 478 407 523 Q407 544 400 563 Q393 582 378 596.5 Q363 611 340.5 620 Q318 629 287 629 Z M287 78 Q365 78 401.5 114.5 Q438 151 438 205 Q438 264 397 300 Q356 336 287 336 Q218 336 177 300 Q136 264 136 205 Q136 151 172.5 114.5 Q209 78 287 78 Z M72 532 Q72 568 86.5 601 Q101 634 129 659.5 Q157 685 196.5 700 Q236 715 287 715 Q338 715 378 700 Q418 685 446 659.5 Q474 634 489 601 Q504 568 504 532 Q504 475 479 438.5 Q454 402 417 382 L417 380 Q439 371 460.5 355 Q482 339 499.5 316 Q517 293 527.5 263.5 Q538 234 538 199 Q538 147 519.5 107 Q501 67 467.5 40 Q434 13 388 -1 Q342 -15 287 -15 Q232 -15 186 -1 Q140 13 106.5 40 Q73 67 54.5 107 Q36 147 36 199 Q36 234 46.5 263.5 Q57 293 74.5 316 Q92 339 113.5 355 Q135 371 157 380 L157 382 Q120 402 96 438.5 Q72 475 72 532 Z " />
<glyph glyph-name="nine" unicode="9" horiz-adv-x="613" d="M164 191 Q170 167 180.5 146 Q191 125 208 109.5 Q225 94 248.5 84.5 Q272 75 304 75 Q375 75 417 136.5 Q459 198 458 334 L455 334 Q452 326 441 310 Q430 294 409 278 Q388 262 355.5 250 Q323 238 278 238 Q232 238 189.5 254.5 Q147 271 115 301.5 Q83 332 64 376.5 Q45 421 45 476 Q45 532 64 576 Q83 620 116 651 Q149 682 192 698.5 Q235 715 283 715 Q339 715 388.5 694 Q438 673 474.5 628.5 Q511 584 532 514.5 Q553 445 553 348 Q553 250 534 181 Q515 112 481 68.5 Q447 25 401 5 Q355 -15 301 -15 Q251 -15 212.5 -1 Q174 13 146 37 Q118 61 100 92.5 Q82 124 73 160 L164 191 Z M289 326 Q355 326 395.5 365 Q436 404 436 470 Q436 503 425 531.5 Q414 560 394.5 580.5 Q375 601 347 613 Q319 625 284 625 Q222 625 182 584.5 Q142 544 142 476 Q142 407 181.5 366.5 Q221 326 289 326 Z " />
<glyph glyph-name="colon" unicode="&#x3a;" horiz-adv-x="307" d="M90 124 L217 124 L217 0 L90 0 L90 124 Z M90 530 L217 530 L217 406 L90 406 L90 530 Z " />
<glyph glyph-name="semicolon" unicode="&#x3b;" horiz-adv-x="307" d="M90 530 L217 530 L217 406 L90 406 L90 530 Z M90 -63 Q121 -58 129.5 -42 Q138 -26 138 0 L90 0 L90 124 L217 124 L217 15 Q217 -38 189 -74.5 Q161 -111 90 -116 L90 -63 Z " />
<glyph glyph-name="less" unicode="&#x3c;" horiz-adv-x="534" d="M50 387 L441 620 L484 551 L151 352 L483 151 L440 82 L50 317 L50 387 Z " />
<glyph glyph-name="equal" unicode="&#x3d;" horiz-adv-x="583" d="M60 322 L523 322 L523 242 L60 242 L60 322 Z M60 495 L523 495 L523 415 L60 415 L60 495 Z " />
<glyph glyph-name="greater" unicode="&#x3e;" horiz-adv-x="534" d="M474 317 L84 82 L41 151 L373 352 L40 551 L83 620 L474 387 L474 317 Z " />
<glyph glyph-name="question" unicode="&#x3f;" horiz-adv-x="524" d="M188 249 Q188 294 210.5 321.5 Q233 349 277 380 Q298 395 317.5 409.5 Q337 424 351.5 439.5 Q366 455 374.5 474.5 Q383 494 383 520 Q383 538 377 556 Q371 574 356.5 589 Q342 604 319.5 613.5 Q297 623 264 623 Q224 623 198.5 610 Q173 597 158 576 Q143 555 137 528.5 Q131 502 129 476 L30 484 Q31 532 46 574 Q61 616 90 647.5 Q119 679 163 697 Q207 715 266 715 Q313 715 353 701 Q393 687 422 661.5 Q451 636 467.5 601.5 Q484 567 484 526 Q484 489 475.5 463 Q467 437 452 417 Q437 397 417.5 381 Q398 365 376 349 Q354 333 336 321 Q318 309 306 297 Q294 285 287.5 272.5 Q281 260 281 242 L281 202 L188 202 L188 249 Z M175 124 L303 124 L303 0 L175 0 L175 124 Z " />
<glyph glyph-name="at" unicode="&#x40;" horiz-adv-x="734" d="M439 361 L437 361 Q434 354 424.5 348.5 Q415 343 395 338 L343 324 Q312 316 299 302 Q286 288 286 264 Q286 230 309.5 219 Q333 208 364 208 Q376 208 389 211.5 Q402 215 413.5 223 Q425 231 432 243 Q439 255 439 272 L439 361 Z M534 34 Q527 29 511.5 21 Q496 13 474.5 5 Q453 -3 425.5 -9 Q398 -15 366 -15 Q286 -15 226.5 12.5 Q167 40 128 88.5 Q89 137 69.5 203 Q50 269 50 346 Q50 424 72 491 Q94 558 135.5 607.5 Q177 657 237 685 Q297 713 373 713 Q449 713 507 685.5 Q565 658 604.5 610 Q644 562 664 497 Q684 432 684 357 Q684 296 674 255 Q664 214 645.5 189.5 Q627 165 600.5 154.5 Q574 144 541 144 Q512 144 490 156 Q468 168 458 190 L456 190 Q442 171 418 157.5 Q394 144 352 144 Q294 144 256 176 Q218 208 218 260 Q218 308 244.5 335.5 Q271 363 323 377 L375 391 Q407 400 422.5 408 Q438 416 438 438 Q438 459 422 475 Q406 491 374 491 Q336 491 319 474.5 Q302 458 294 424 L231 438 Q238 492 277 522.5 Q316 553 371 553 Q398 553 422.5 544.5 Q447 536 465 520 Q483 504 493.5 480 Q504 456 504 425 L504 244 Q504 223 514 214.5 Q524 206 544 206 Q586 206 604.5 242 Q623 278 623 354 Q623 417 608 471.5 Q593 526 562.5 567 Q532 608 485 631.5 Q438 655 373 655 Q309 655 260 631.5 Q211 608 178 566.5 Q145 525 128 468.5 Q111 412 111 346 Q111 282 126 226.5 Q141 171 172.5 130.5 Q204 90 252 67 Q300 44 366 44 Q391 44 413 49 Q435 54 453 60.5 Q471 67 484 74.5 Q497 82 504 86 L534 34 Z " />
<glyph glyph-name="A" unicode="A" horiz-adv-x="631" d="M464 129 L164 129 L119 0 L15 0 L268 700 L364 700 L616 0 L510 0 L464 129 Z M194 215 L434 215 L315 556 L313 556 L194 215 Z " />
<glyph glyph-name="B" unicode="B" horiz-adv-x="649" d="M90 700 L368 700 Q415 700 453 685.5 Q491 671 517.5 646.5 Q544 622 558.5 588.5 Q573 555 573 516 Q573 462 547.5 428.5 Q522 395 487 378 L487 376 Q507 369 527 355 Q547 341 563 320.5 Q579 300 589 272.5 Q599 245 599 210 Q599 165 586 126.5 Q573 88 543 60 Q513 32 465 16 Q417 0 347 0 L90 0 L90 700 Z M352 409 Q413 409 443 434.5 Q473 460 473 508 Q473 557 440.5 582 Q408 607 351 607 L190 607 L190 409 L352 409 Z M331 92 Q369 92 399.5 97 Q430 102 452.5 115 Q475 128 487 151 Q499 174 499 210 Q499 277 456 300 Q413 323 333 323 L190 323 L190 92 L331 92 Z " />
<glyph glyph-name="C" unicode="C" horiz-adv-x="665" d="M349 -15 Q292 -15 238 5.5 Q184 26 142 70 Q100 114 75 185 Q50 256 50 356 Q50 446 75 513.5 Q100 581 142 626 Q184 671 238 693 Q292 715 349 715 Q405 715 451.5 697.5 Q498 680 533 648 Q568 616 590 570 Q612 524 619 468 L517 451 Q512 484 500.5 515 Q489 546 469 569.5 Q449 593 419.5 607 Q390 621 349 621 Q310 621 275 605.5 Q240 590 213 557.5 Q186 525 170.5 475 Q155 425 155 356 Q155 283 170 231 Q185 179 211.5 145 Q238 111 273.5 95 Q309 79 349 79 Q391 79 420.5 94 Q450 109 469.5 134.5 Q489 160 499 194.5 Q509 229 513 267 L620 250 Q615 189 594 140 Q573 91 538.5 56.5 Q504 22 456 3.5 Q408 -15 349 -15 Z " />
<glyph glyph-name="D" unicode="D" horiz-adv-x="662" d="M303 92 Q349 92 387 105 Q425 118 452 148 Q479 178 494 227.5 Q509 277 509 351 Q509 482 453.5 544.5 Q398 607 309 607 L190 607 L190 92 L303 92 Z M90 700 L314 700 Q372 700 426.5 679.5 Q481 659 523.5 616.5 Q566 574 591.5 508 Q617 442 617 351 Q617 251 590.5 183.5 Q564 116 520.5 75 Q477 34 421.5 17 Q366 0 308 0 L90 0 L90 700 Z " />
<glyph glyph-name="E" unicode="E" horiz-adv-x="583" d="M90 700 L518 700 L518 607 L190 607 L190 404 L490 404 L490 315 L190 315 L190 92 L518 92 L518 0 L90 0 L90 700 Z " />
<glyph glyph-name="F" unicode="F" horiz-adv-x="564" d="M90 700 L519 700 L519 607 L190 607 L190 377 L491 377 L491 289 L190 289 L190 0 L90 0 L90 700 Z " />
<glyph glyph-name="G" unicode="G" horiz-adv-x="667" d="M349 -15 Q289 -15 235 5.5 Q181 26 140 71 Q99 116 74.5 187 Q50 258 50 358 Q50 447 75 514 Q100 581 142 625.5 Q184 670 237.5 692.5 Q291 715 348 715 Q400 715 445 698.5 Q490 682 524.5 651 Q559 620 582 577.5 Q605 535 613 482 L511 464 Q505 496 493 524 Q481 552 461.5 574 Q442 596 414.5 608.5 Q387 621 349 621 Q310 621 274.5 605 Q239 589 212.5 556.5 Q186 524 170 474.5 Q154 425 154 358 Q154 286 169.5 233 Q185 180 211 146 Q237 112 273 95.5 Q309 79 349 79 Q429 79 474.5 126.5 Q520 174 519 261 L358 261 L358 350 L617 350 L617 274 Q617 205 597 151 Q577 97 541.5 60.5 Q506 24 457 4.5 Q408 -15 349 -15 Z " />
<glyph glyph-name="H" unicode="H" horiz-adv-x="668" d="M90 700 L190 700 L190 405 L478 405 L478 700 L578 700 L578 0 L478 0 L478 318 L190 318 L190 0 L90 0 L90 700 Z " />
<glyph glyph-name="I" unicode="I" horiz-adv-x="290" d="M95 700 L195 700 L195 0 L95 0 L95 700 Z " />
<glyph glyph-name="J" unicode="J" horiz-adv-x="455" d="M118 179 Q122 161 127.5 143.5 Q133 126 142 111.5 Q151 97 164.5 88 Q178 79 197 79 Q236 79 253 102.5 Q270 126 270 176 L270 700 L370 700 L370 179 Q370 76 323.5 30.5 Q277 -15 197 -15 Q159 -15 129 -2.5 Q99 10 76.5 32.5 Q54 55 40 85 Q26 115 20 150 L118 179 Z " />
<glyph glyph-name="K" unicode="K" horiz-adv-x="608" d="M80 700 L180 700 L180 374 L183 374 L455 700 L579 700 L322 393 L608 0 L487 0 L253 321 L251 321 L180 234 L180 0 L80 0 L80 700 Z " />
<glyph glyph-name="L" unicode="L" horiz-adv-x="514" d="M90 700 L190 700 L190 92 L489 92 L489 0 L90 0 L90 700 Z " />
<glyph glyph-name="M" unicode="M" horiz-adv-x="862" d="M90 700 L217 700 L430 190 L432 190 L646 700 L772 700 L772 0 L672 0 L672 532 L670 532 L443 0 L419 0 L192 532 L190 532 L190 0 L90 0 L90 700 Z " />
<glyph glyph-name="N" unicode="N" horiz-adv-x="687" d="M90 700 L193 700 L494 178 L496 178 L496 700 L597 700 L597 0 L496 0 L192 522 L190 522 L190 0 L90 0 L90 700 Z " />
<glyph glyph-name="O" unicode="O" horiz-adv-x="695" d="M349 78 Q389 78 423.5 93.5 Q458 109 484 142.5 Q510 176 525 228 Q540 280 540 353 Q540 422 524.5 472.5 Q509 523 483 556 Q457 589 422 605 Q387 621 349 621 Q310 621 275 605.5 Q240 590 213 557.5 Q186 525 170.5 475 Q155 425 155 356 Q155 283 170 230.5 Q185 178 211.5 144 Q238 110 273.5 94 Q309 78 349 78 Z M349 -15 Q292 -15 238 5.5 Q184 26 142 70 Q100 114 75 185 Q50 256 50 356 Q50 446 75 513.5 Q100 581 142 626 Q184 671 238 693 Q292 715 349 715 Q406 715 459 692.5 Q512 670 553.5 624.5 Q595 579 620 511 Q645 443 645 353 Q645 253 620 182.5 Q595 112 553.5 68.5 Q512 25 459 5 Q406 -15 349 -15 Z " />
<glyph glyph-name="P" unicode="P" horiz-adv-x="615" d="M90 700 L364 700 Q416 700 459 685.5 Q502 671 533.5 643 Q565 615 582.5 574.5 Q600 534 600 482 Q600 430 583.5 390 Q567 350 536 322 Q505 294 462 279.5 Q419 265 365 265 L190 265 L190 0 L90 0 L90 700 Z M361 357 Q389 357 413.5 364.5 Q438 372 456.5 388 Q475 404 486 427.5 Q497 451 497 482 Q497 516 485.5 540 Q474 564 455 579 Q436 594 411.5 600.5 Q387 607 360 607 L190 607 L190 357 L361 357 Z " />
<glyph glyph-name="Q" unicode="Q" horiz-adv-x="695" d="M525 46 Q486 14 441 -0.5 Q396 -15 349 -15 Q292 -15 238 5.5 Q184 26 142 70 Q100 114 75 185 Q50 256 50 356 Q50 446 75 513.5 Q100 581 142 626 Q184 671 238 693 Q292 715 349 715 Q406 715 459 692.5 Q512 670 553.5 624.5 Q595 579 620 511 Q645 443 645 353 Q645 271 626.5 209 Q608 147 576 102 L642 37 L588 -16 L525 46 Z M349 329 L506 170 Q540 235 540 353 Q540 422 524.5 472.5 Q509 523 483 556 Q457 589 422 605 Q387 621 349 621 Q310 621 275 605.5 Q240 590 213 557.5 Q186 525 170.5 475 Q155 425 155 356 Q155 283 170 230.5 Q185 178 211.5 144 Q238 110 273.5 94 Q309 78 349 78 Q381 78 408.5 86 Q436 94 459 112 L295 276 L349 329 Z " />
<glyph glyph-name="R" unicode="R" horiz-adv-x="640" d="M90 700 L364 700 Q417 700 460.5 686.5 Q504 673 535 646 Q566 619 583 579 Q600 539 600 487 Q600 395 556 348.5 Q512 302 436 285 L589 0 L479 0 L331 277 L190 277 L190 0 L90 0 L90 700 Z M356 366 Q386 366 412 372.5 Q438 379 457.5 393 Q477 407 488 430.5 Q499 454 499 487 Q499 554 459 581.5 Q419 609 355 609 L190 609 L190 366 L356 366 Z " />
<glyph glyph-name="S" unicode="S" horiz-adv-x="609" d="M150 260 Q157 215 168.5 181.5 Q180 148 200 125 Q220 102 251 90.5 Q282 79 327 79 Q401 79 438 110 Q475 141 475 186 Q475 209 468.5 226 Q462 243 442 258.5 Q422 274 384.5 290 Q347 306 285 325 Q228 343 188 363 Q148 383 122.5 407.5 Q97 432 85.5 461 Q74 490 74 526 Q74 563 89 597 Q104 631 133 657.5 Q162 684 204 699.5 Q246 715 300 715 Q347 715 388.5 703.5 Q430 692 463 668 Q496 644 518.5 608 Q541 572 549 522 L449 500 Q443 526 432.5 548 Q422 570 405 586.5 Q388 603 362 612 Q336 621 300 621 Q235 621 204.5 593 Q174 565 174 526 Q174 508 180 494.5 Q186 481 204.5 468 Q223 455 257.5 440.5 Q292 426 350 407 Q417 385 460.5 363 Q504 341 529 316 Q554 291 564 261 Q574 231 574 192 Q574 149 557.5 111.5 Q541 74 509.5 46 Q478 18 432 1.5 Q386 -15 326 -15 Q201 -15 130.5 49 Q60 113 45 239 L150 260 Z " />
<glyph glyph-name="T" unicode="T" horiz-adv-x="565" d="M232 607 L20 607 L20 700 L545 700 L545 607 L332 607 L332 0 L232 0 L232 607 Z " />
<glyph glyph-name="U" unicode="U" horiz-adv-x="657" d="M75 700 L175 700 L175 234 Q175 159 213 119 Q251 79 328 79 Q405 79 443.5 119 Q482 159 482 232 L482 700 L582 700 L582 228 Q582 107 513 46 Q444 -15 328 -15 Q212 -15 143.5 46 Q75 107 75 228 L75 700 Z " />
<glyph glyph-name="V" unicode="V" horiz-adv-x="628" d="M15 700 L121 700 L316 137 L318 137 L508 700 L613 700 L369 0 L263 0 L15 700 Z " />
<glyph glyph-name="W" unicode="W" horiz-adv-x="902" d="M40 700 L142 700 L242 165 L244 165 L413 700 L490 700 L660 165 L662 165 L762 700 L862 700 L731 0 L619 0 L451 530 L449 530 L284 0 L171 0 L40 700 Z " />
<glyph glyph-name="X" unicode="X" horiz-adv-x="589" d="M237 369 L42 700 L155 700 L301 436 L303 436 L445 700 L556 700 L359 356 L569 0 L456 0 L295 289 L293 289 L130 0 L20 0 L237 369 Z " />
<glyph glyph-name="Y" unicode="Y" horiz-adv-x="577" d="M239 295 L10 700 L118 700 L287 387 L289 387 L459 700 L567 700 L337 295 L337 0 L239 0 L239 295 Z " />
<glyph glyph-name="Z" unicode="Z" horiz-adv-x="599" d="M50 87 L422 603 L422 605 L66 605 L66 700 L549 700 L549 612 L175 97 L175 95 L544 95 L544 0 L50 0 L50 87 Z " />
<glyph glyph-name="bracketleft" unicode="&#x5b;" horiz-adv-x="367" d="M80 730 L327 730 L327 662 L152 662 L152 -115 L327 -115 L327 -182 L80 -182 L80 730 Z " />
<glyph glyph-name="backslash" unicode="&#x5c;" horiz-adv-x="454" d="M15 716 L79 746 L439 -14 L375 -42 L15 716 Z " />
<glyph glyph-name="bracketright" unicode="&#x5d;" horiz-adv-x="367" d="M307 -182 L60 -182 L60 -115 L235 -115 L235 662 L60 662 L60 730 L307 730 L307 -182 Z " />
<glyph glyph-name="asciicircum" unicode="&#x5e;" horiz-adv-x="550" d="M243 700 L307 700 L480 325 L396 325 L275 602 L153 325 L70 325 L243 700 Z " />
<glyph glyph-name="underscore" unicode="&#x5f;" horiz-adv-x="622" d="M60 -70 L562 -70 L562 -145 L60 -145 L60 -70 Z " />
<glyph glyph-name="grave" unicode="&#x60;" horiz-adv-x="293" d="M50 717 L163 717 L243 595 L159 595 L50 717 Z " />
<glyph glyph-name="a" unicode="a" horiz-adv-x="540" d="M385 56 L383 56 Q380 49 369 37 Q358 25 339 13.5 Q320 2 292 -6.5 Q264 -15 227 -15 Q179 -15 144.5 -2.5 Q110 10 88 31 Q66 52 55.5 80 Q45 108 45 138 Q45 172 55 197.5 Q65 223 86 242.5 Q107 262 141 276.5 Q175 291 223 303 Q263 313 291 321.5 Q319 330 336.5 339 Q354 348 362 360 Q370 372 370 388 Q370 417 346 438.5 Q322 460 266 460 Q236 460 214.5 452 Q193 444 179 430.5 Q165 417 156.5 398.5 Q148 380 143 360 L58 390 Q65 422 81 450.5 Q97 479 122.5 500 Q148 521 183.5 533 Q219 545 264 545 Q308 545 345.5 534.5 Q383 524 410.5 500.5 Q438 477 454 440 Q470 403 470 350 L470 0 L385 0 L385 56 Z M245 232 Q212 223 191 213.5 Q170 204 159 193 Q148 182 144 170 Q140 158 140 144 Q140 110 162.5 90.5 Q185 71 236 71 Q307 71 341 101.5 Q375 132 375 171 L375 290 L373 290 Q370 285 365 279 Q360 273 346.5 266 Q333 259 309 251 Q285 243 245 232 Z " />
<glyph glyph-name="b" unicode="b" horiz-adv-x="596" d="M177 189 Q177 166 186 145 Q195 124 212 108 Q229 92 253 82.5 Q277 73 306 73 Q378 73 416 123 Q454 173 454 265 Q454 357 416 406.5 Q378 456 306 456 Q275 456 251 445 Q227 434 210.5 416.5 Q194 399 185.5 376.5 Q177 354 177 331 L177 189 Z M80 730 L177 730 L177 479 L179 479 Q186 487 198 498 Q210 509 228 519.5 Q246 530 269.5 537.5 Q293 545 323 545 Q372 545 413.5 525 Q455 505 485.5 468.5 Q516 432 533.5 380.5 Q551 329 551 265 Q551 201 535 149.5 Q519 98 489 61.5 Q459 25 416.5 5 Q374 -15 321 -15 Q289 -15 264 -7 Q239 1 220 11.5 Q201 22 189 33.5 Q177 45 171 51 L169 51 L169 0 L80 0 L80 730 Z " />
<glyph glyph-name="c" unicode="c" horiz-adv-x="553" d="M513 183 Q499 92 441 38.5 Q383 -15 287 -15 Q235 -15 190.5 3.5 Q146 22 114 58 Q82 94 63.5 146 Q45 198 45 265 Q45 333 64.5 385 Q84 437 117.5 472.5 Q151 508 195 526.5 Q239 545 288 545 Q334 545 372.5 530.5 Q411 516 440 490 Q469 464 487 428 Q505 392 510 349 L415 334 Q411 358 402 380 Q393 402 377.5 419 Q362 436 340 446 Q318 456 288 456 Q222 456 181.5 407 Q141 358 141 265 Q141 173 180.5 123 Q220 73 289 73 Q319 73 341 84 Q363 95 378.5 114 Q394 133 403 157 Q412 181 416 207 L513 183 Z " />
<glyph glyph-name="d" unicode="d" horiz-adv-x="596" d="M419 331 Q419 354 410.5 376.5 Q402 399 385.5 416.5 Q369 434 345 445 Q321 456 290 456 Q218 456 180 406.5 Q142 357 142 265 Q142 173 180 123 Q218 73 290 73 Q319 73 343 82.5 Q367 92 384 108 Q401 124 410 145 Q419 166 419 189 L419 331 Z M427 51 L425 51 Q419 45 407 33.5 Q395 22 376.5 11.5 Q358 1 332.5 -7 Q307 -15 275 -15 Q223 -15 180.5 5 Q138 25 108 61.5 Q78 98 61.5 149.5 Q45 201 45 265 Q45 331 63.5 383 Q82 435 113 471 Q144 507 186 526 Q228 545 274 545 Q304 545 327.5 537.5 Q351 530 368.5 519.5 Q386 509 398 498 Q410 487 417 479 L419 479 L419 730 L516 730 L516 0 L427 0 L427 51 Z " />
<glyph glyph-name="e" unicode="e" horiz-adv-x="573" d="M513 114 Q499 89 479 65.5 Q459 42 431.5 24 Q404 6 369.5 -4.5 Q335 -15 293 -15 Q239 -15 193.5 4.5 Q148 24 115 60.5 Q82 97 63.5 149 Q45 201 45 265 Q45 330 63.5 381.5 Q82 433 114.5 469.5 Q147 506 191.5 525.5 Q236 545 288 545 Q340 545 384 526 Q428 507 460 471 Q492 435 510 383 Q528 331 528 265 L528 236 L144 236 Q145 202 154.5 172.5 Q164 143 182 120.5 Q200 98 227.5 85 Q255 72 291 72 Q326 72 350.5 82 Q375 92 392.5 107 Q410 122 421 139 Q432 156 440 169 L513 114 Z M431 312 Q430 339 421.5 365.5 Q413 392 396 412.5 Q379 433 352.5 445.5 Q326 458 288 458 Q251 458 224.5 444 Q198 430 180.5 408.5 Q163 387 154.5 361 Q146 335 145 312 L431 312 Z " />
<glyph glyph-name="f" unicode="f" horiz-adv-x="341" d="M103 445 L25 445 L25 530 L105 530 L105 608 Q105 644 114 667.5 Q123 691 139 705 Q155 719 178 724.5 Q201 730 228 730 L310 730 L310 642 L247 642 Q219 642 209 631.5 Q199 621 199 587 L199 530 L331 530 L331 445 L201 445 L201 0 L103 0 L103 445 Z " />
<glyph glyph-name="g" unicode="g" horiz-adv-x="596" d="M162 -55 Q171 -76 182.5 -94 Q194 -112 209.5 -125.5 Q225 -139 246.5 -146.5 Q268 -154 297 -154 Q356 -154 390 -120.5 Q424 -87 424 -22 L424 47 L422 47 Q405 25 369.5 5 Q334 -15 280 -15 Q229 -15 186 4 Q143 23 111.5 59 Q80 95 62.5 147 Q45 199 45 265 Q45 331 63.5 383 Q82 435 114 471 Q146 507 188.5 526 Q231 545 279 545 Q330 545 366 526 Q402 507 425 479 L427 479 L427 530 L521 530 L521 -5 Q521 -64 505 -108 Q489 -152 459.5 -181.5 Q430 -211 389 -225.5 Q348 -240 298 -240 Q213 -240 159.5 -200 Q106 -160 84 -100 L162 -55 Z M424 334 Q424 357 415.5 378.5 Q407 400 390.5 417.5 Q374 435 350 445.5 Q326 456 295 456 Q223 456 182.5 406.5 Q142 357 142 265 Q142 173 182.5 123 Q223 73 295 73 Q324 73 347.5 82 Q371 91 388 107 Q405 123 414.5 143.5 Q424 164 424 186 L424 334 Z " />
<glyph glyph-name="h" unicode="h" horiz-adv-x="590" d="M80 730 L177 730 L177 477 L179 477 Q199 505 238.5 525 Q278 545 326 545 Q367 545 402 532 Q437 519 462 494 Q487 469 501 432.5 Q515 396 515 348 L515 0 L418 0 L418 324 Q418 382 390.5 418.5 Q363 455 303 455 Q246 455 211.5 421 Q177 387 177 333 L177 0 L80 0 L80 730 Z " />
<glyph glyph-name="i" unicode="i" horiz-adv-x="265" d="M84 530 L181 530 L181 0 L84 0 L84 530 Z M80 730 L185 730 L185 627 L80 627 L80 730 Z " />
<glyph glyph-name="j" unicode="j" horiz-adv-x="262" d="M20 -103 L39 -103 Q60 -103 71 -92.5 Q82 -82 82 -51 L82 530 L179 530 L179 -59 Q179 -132 149.5 -163.5 Q120 -195 60 -195 L20 -195 L20 -103 Z M77 730 L182 730 L182 627 L77 627 L77 730 Z " />
<glyph glyph-name="k" unicode="k" horiz-adv-x="551" d="M80 730 L177 730 L177 295 L179 295 L393 530 L519 530 L327 318 L541 0 L429 0 L254 260 L252 260 L177 179 L177 0 L80 0 L80 730 Z " />
<glyph glyph-name="l" unicode="l" horiz-adv-x="260" d="M80 730 L180 730 L180 0 L80 0 L80 730 Z " />
<glyph glyph-name="m" unicode="m" horiz-adv-x="854" d="M80 530 L168 530 L168 479 L170 479 Q189 507 224.5 526 Q260 545 303 545 Q354 545 388.5 522 Q423 499 440 470 L442 470 Q461 499 499.5 522 Q538 545 589 545 Q677 545 728 495.5 Q779 446 779 361 L779 0 L687 0 L687 336 Q687 393 662.5 424 Q638 455 584 455 Q532 455 504.5 425 Q477 395 477 343 L477 0 L385 0 L385 336 Q385 393 360 424 Q335 455 282 455 Q254 455 233.5 446 Q213 437 200 421.5 Q187 406 181 386 Q175 366 175 343 L175 0 L80 0 L80 530 Z " />
<glyph glyph-name="n" unicode="n" horiz-adv-x="588" d="M80 530 L175 530 L175 479 L177 479 Q197 506 237 525.5 Q277 545 322 545 Q409 545 461 493 Q513 441 513 347 L513 0 L415 0 L415 319 Q415 385 389 420 Q363 455 303 455 Q246 455 211.5 422.5 Q177 390 177 333 L177 0 L80 0 L80 530 Z " />
<glyph glyph-name="o" unicode="o" horiz-adv-x="573" d="M288 73 Q350 73 391 122 Q432 171 432 265 Q432 359 391 407.5 Q350 456 288 456 Q225 456 183 408 Q141 360 141 265 Q141 170 183 121.5 Q225 73 288 73 Z M288 -15 Q237 -15 192.5 3.5 Q148 22 115.5 57.5 Q83 93 64 145 Q45 197 45 265 Q45 333 64.5 385 Q84 437 117.5 472.5 Q151 508 195 526.5 Q239 545 288 545 Q336 545 379.5 526.5 Q423 508 456 472.5 Q489 437 508.5 385 Q528 333 528 265 Q528 197 509.5 145 Q491 93 458.5 57.5 Q426 22 382.5 3.5 Q339 -15 288 -15 Z " />
<glyph glyph-name="p" unicode="p" horiz-adv-x="601" d="M177 186 Q177 164 186.5 143.5 Q196 123 213 107 Q230 91 253.5 82 Q277 73 306 73 Q378 73 418.5 123 Q459 173 459 265 Q459 357 418.5 406.5 Q378 456 306 456 Q275 456 251 445.5 Q227 435 210.5 417.5 Q194 400 185.5 378.5 Q177 357 177 334 L177 186 Z M80 530 L173 530 L173 479 L175 479 Q181 486 193 497.5 Q205 509 223.5 519.5 Q242 530 267 537.5 Q292 545 324 545 Q371 545 413 526 Q455 507 487 471 Q519 435 537.5 383 Q556 331 556 265 Q556 199 538.5 147 Q521 95 490 59 Q459 23 416.5 4 Q374 -15 325 -15 Q294 -15 269 -7 Q244 1 225.5 11.5 Q207 22 195.5 33 Q184 44 179 51 L177 51 L177 -225 L80 -225 L80 530 Z " />
<glyph glyph-name="q" unicode="q" horiz-adv-x="601" d="M424 334 Q424 357 415.5 378.5 Q407 400 390.5 417.5 Q374 435 350 445.5 Q326 456 295 456 Q223 456 182.5 406.5 Q142 357 142 265 Q142 173 182.5 123 Q223 73 295 73 Q324 73 347.5 82 Q371 91 388 107 Q405 123 414.5 143.5 Q424 164 424 186 L424 334 Z M424 51 L422 51 Q418 45 407.5 34 Q397 23 379 12 Q361 1 336 -7 Q311 -15 276 -15 Q227 -15 184.5 4 Q142 23 111 59 Q80 95 62.5 147 Q45 199 45 265 Q45 331 63.5 383 Q82 435 114 471 Q146 507 188 526 Q230 545 277 545 Q309 545 334 537.5 Q359 530 377.5 519.5 Q396 509 408 497.5 Q420 486 426 479 L428 479 L428 530 L521 530 L521 -225 L424 -225 L424 51 Z " />
<glyph glyph-name="r" unicode="r" horiz-adv-x="356" d="M80 530 L173 530 L173 473 L175 473 Q192 505 222 522 Q252 539 284 539 Q301 539 313 535.5 Q325 532 331 529 L314 433 Q309 435 299.5 438 Q290 441 273 441 Q177 441 177 311 L177 0 L80 0 L80 530 Z " />
<glyph glyph-name="s" unicode="s" horiz-adv-x="517" d="M130 198 Q145 68 267 68 Q327 68 357 89.5 Q387 111 387 144 Q387 162 380.5 174.5 Q374 187 357 197.5 Q340 208 311 218 Q282 228 237 240 Q143 266 101 300 Q59 334 59 394 Q59 423 71 450 Q83 477 107 498 Q131 519 166.5 532 Q202 545 248 545 Q295 545 330.5 533 Q366 521 392 500.5 Q418 480 434.5 452 Q451 424 460 391 L376 368 Q362 410 334 436.5 Q306 463 249 463 Q198 463 173.5 442.5 Q149 422 149 397 Q149 382 154.5 371.5 Q160 361 176.5 352 Q193 343 223 333 Q253 323 302 309 Q353 295 387 278.5 Q421 262 440.5 242 Q460 222 468 197.5 Q476 173 476 143 Q476 115 465 87 Q454 59 429 36.5 Q404 14 365 -0.5 Q326 -15 270 -15 Q213 -15 171.5 1 Q130 17 102 44 Q74 71 59 106 Q44 141 40 178 L130 198 Z " />
<glyph glyph-name="t" unicode="t" horiz-adv-x="370" d="M103 445 L25 445 L25 530 L105 530 L105 660 L198 660 L198 530 L330 530 L330 445 L199 445 L199 176 Q199 133 211.5 113.5 Q224 94 267 94 L307 94 L307 0 L260 0 Q172 0 137.5 42.5 Q103 85 103 166 L103 445 Z " />
<glyph glyph-name="u" unicode="u" horiz-adv-x="576" d="M75 530 L172 530 L172 199 Q172 131 196.5 104 Q221 77 279 77 Q333 77 366 109 Q399 141 399 204 L399 530 L496 530 L496 0 L402 0 L402 51 L400 51 Q397 47 386.5 36 Q376 25 358.5 13.5 Q341 2 316 -6.5 Q291 -15 257 -15 Q168 -15 121.5 36.5 Q75 88 75 186 L75 530 Z " />
<glyph glyph-name="v" unicode="v" horiz-adv-x="547" d="M20 530 L121 530 L274 137 L276 137 L427 530 L527 530 L314 0 L233 0 L20 530 Z " />
<glyph glyph-name="w" unicode="w" horiz-adv-x="790" d="M439 530 L574 146 L576 146 L654 530 L750 530 L633 0 L539 0 L396 416 L394 416 L251 0 L157 0 L40 530 L136 530 L216 146 L218 146 L351 530 L439 530 Z " />
<glyph glyph-name="x" unicode="x" horiz-adv-x="525" d="M200 273 L31 530 L136 530 L261 334 L263 334 L389 530 L493 530 L324 273 L505 0 L398 0 L263 208 L261 208 L126 0 L20 0 L200 273 Z " />
<glyph glyph-name="y" unicode="y" horiz-adv-x="521" d="M215 37 L15 530 L117 530 L262 151 L406 530 L506 530 L208 -225 L113 -225 L215 37 Z " />
<glyph glyph-name="z" unicode="z" horiz-adv-x="546" d="M50 79 L365 438 L365 440 L66 440 L66 530 L491 530 L491 453 L180 94 L180 92 L496 92 L496 0 L50 0 L50 79 Z " />
<glyph glyph-name="braceleft" unicode="&#x7b;" horiz-adv-x="387" d="M131 182 Q131 214 119 227 Q107 240 78 240 L50 240 L50 329 L78 329 Q107 329 119 343.5 Q131 358 131 390 L131 582 Q131 627 141 656 Q151 685 169.5 701.5 Q188 718 214.5 724 Q241 730 273 730 L327 730 L327 660 L269 660 Q234 660 218.5 640.5 Q203 621 203 571 L203 387 Q203 356 193 336.5 Q183 317 171 306 Q159 295 147.5 290.5 Q136 286 133 285 Q136 284 147 279 Q158 274 170.5 263 Q183 252 193 232.5 Q203 213 203 184 L203 -23 Q203 -73 219 -92.5 Q235 -112 272 -112 L327 -112 L327 -182 L273 -182 Q241 -182 214.5 -176 Q188 -170 169.5 -153.5 Q151 -137 141 -108 Q131 -79 131 -34 L131 182 Z " />
<glyph glyph-name="bar" unicode="&#x7c;" horiz-adv-x="270" d="M100 775 L170 775 L170 -300 L100 -300 L100 775 Z " />
<glyph glyph-name="braceright" unicode="&#x7d;" horiz-adv-x="387" d="M226 -34 Q226 -79 216 -108 Q206 -137 187.5 -153.5 Q169 -170 142.5 -176 Q116 -182 84 -182 L30 -182 L30 -112 L85 -112 Q122 -112 138 -92.5 Q154 -73 154 -23 L154 184 Q154 213 164 232.5 Q174 252 186.5 263 Q199 274 210 279 Q221 284 224 285 Q221 286 209.5 290.5 Q198 295 186 306 Q174 317 164 336.5 Q154 356 154 387 L154 571 Q154 621 138.5 640.5 Q123 660 88 660 L30 660 L30 730 L84 730 Q116 730 142.5 724 Q169 718 187.5 701.5 Q206 685 216 656 Q226 627 226 582 L226 390 Q226 358 238 343.5 Q250 329 279 329 L307 329 L307 240 L279 240 Q250 240 238 227 Q226 214 226 182 L226 -34 Z " />
<glyph glyph-name="asciitilde" unicode="&#x7e;" horiz-adv-x="598" d="M189 381 Q170 381 156.5 372.5 Q143 364 134.5 350.5 Q126 337 121 321.5 Q116 306 112 292 L50 308 Q55 339 66 367 Q77 395 94.5 416 Q112 437 136 449.5 Q160 462 191 462 Q228 462 257 448.5 Q286 435 311.5 418.5 Q337 402 360.5 388.5 Q384 375 409 375 Q429 375 442 383.5 Q455 392 463.5 405.5 Q472 419 477 434.5 Q482 450 486 464 L548 448 Q543 417 532 389 Q521 361 503.5 340 Q486 319 462 306.5 Q438 294 407 294 Q370 294 340.5 307.5 Q311 321 285.5 337.5 Q260 354 237 367.5 Q214 381 189 381 Z " />
<glyph glyph-name="nbspace" unicode="&#xa0;" horiz-adv-x="200" d="" />
<glyph glyph-name="exclamdown" unicode="&#xa1;" horiz-adv-x="327" d="M103 314 L203 314 L203 -170 L103 -170 L103 314 Z M90 530 L217 530 L217 406 L90 406 L90 530 Z " />
<glyph glyph-name="cent" unicode="&#xa2;" horiz-adv-x="568" d="M523 183 Q510 95 456 43 Q402 -9 314 -14 L314 -110 L279 -110 L279 -14 Q230 -11 189 9 Q148 29 118 64.5 Q88 100 71.5 150.5 Q55 201 55 265 Q55 330 72.5 380 Q90 430 120.5 465.5 Q151 501 192 521 Q233 541 279 544 L279 631 L314 631 L314 544 Q357 541 392.5 525.5 Q428 510 455 484.5 Q482 459 498.5 424.5 Q515 390 520 349 L425 334 Q421 356 413 377 Q405 398 391.5 414.5 Q378 431 359 441.5 Q340 452 314 455 L314 74 Q340 77 359 89 Q378 101 391.5 119 Q405 137 413.5 160 Q422 183 426 207 L523 183 Z M151 265 Q151 180 185 130.5 Q219 81 279 74 L279 455 Q220 448 185.5 399.5 Q151 351 151 265 Z " />
<glyph glyph-name="sterling" unicode="&#xa3;" horiz-adv-x="653" d="M90 93 L124 93 Q152 93 166.5 105 Q181 117 181 149 L181 312 L90 312 L90 385 L181 385 L181 501 Q181 556 195.5 596 Q210 636 236.5 662.5 Q263 689 299 702 Q335 715 378 715 Q466 715 517.5 665.5 Q569 616 582 521 L487 502 Q477 563 455 594 Q433 625 381 625 Q330 625 305.5 593 Q281 561 281 499 L281 385 L472 385 L472 312 L281 312 L281 93 L583 93 L583 0 L90 0 L90 93 Z " />
<glyph glyph-name="currency" unicode="&#xa4;" horiz-adv-x="669" d="M145 179 Q122 210 110 248 Q98 286 98 329 Q98 371 110 408.5 Q122 446 145 478 L80 543 L120 583 L183 519 Q214 545 252 560.5 Q290 576 334 576 Q379 576 418 561.5 Q457 547 487 521 L549 583 L589 543 L525 479 Q547 447 559 409.5 Q571 372 571 329 Q571 285 559 247 Q547 209 524 178 L589 114 L549 74 L485 137 Q455 113 417 99.5 Q379 86 334 86 Q289 86 251 99.5 Q213 113 184 138 L120 74 L80 114 L145 179 Z M335 175 Q359 175 382.5 182.5 Q406 190 425 208 Q444 226 455.5 255.5 Q467 285 467 328 Q467 373 455.5 403 Q444 433 425 451 Q406 469 382.5 476.5 Q359 484 335 484 Q310 484 286 476.5 Q262 469 243 451 Q224 433 212 403 Q200 373 200 328 Q200 285 212 255.5 Q224 226 243 208 Q262 190 286 182.5 Q310 175 335 175 Z " />
<glyph glyph-name="yen" unicode="&#xa5;" horiz-adv-x="659" d="M74 211 L278 211 L278 296 L74 296 L74 376 L233 376 L50 700 L160 700 L327 392 L329 392 L498 700 L609 700 L424 376 L583 376 L583 296 L379 296 L379 211 L583 211 L583 131 L378 131 L378 0 L279 0 L279 131 L74 131 L74 211 Z " />
<glyph glyph-name="brokenbar" unicode="&#xa6;" horiz-adv-x="285" d="M100 648 L185 648 L185 321 L100 321 L100 648 Z M100 196 L185 196 L185 -131 L100 -131 L100 196 Z " />
<glyph glyph-name="section" unicode="&#xa7;" horiz-adv-x="635" d="M382 170 Q398 164 407.5 159 Q417 154 423 149 Q445 164 459.5 186 Q474 208 474 232 Q474 256 456 276 Q438 296 394 313 L253 367 Q237 373 227.5 378 Q218 383 212 388 Q190 372 175.5 350.5 Q161 329 161 305 Q161 281 179.5 261 Q198 241 241 224 L382 170 Z M421 -2 Q421 33 401 54.5 Q381 76 339 93 L183 155 Q118 181 90 216.5 Q62 252 61 302 Q60 347 85.5 383 Q111 419 148 440 Q115 479 115 540 Q115 581 129 613 Q143 645 168.5 668 Q194 691 228.5 703 Q263 715 305 715 Q389 715 444.5 671 Q500 627 514 532 L420 511 Q410 564 384 594.5 Q358 625 306 625 Q280 625 262.5 617.5 Q245 610 234 598 Q223 586 218.5 571 Q214 556 214 541 Q214 507 234.5 484 Q255 461 297 444 L452 382 Q518 356 546 320.5 Q574 285 574 235 Q575 190 549 154 Q523 118 487 97 Q520 58 520 -1 Q520 -42 506 -74 Q492 -106 466.5 -129 Q441 -152 406.5 -164 Q372 -176 330 -176 Q246 -176 190.5 -132 Q135 -88 121 7 L215 28 Q225 -25 251 -55.5 Q277 -86 329 -86 Q355 -86 372.5 -78.5 Q390 -71 401 -59 Q412 -47 416.5 -32 Q421 -17 421 -2 Z " />
<glyph glyph-name="dieresis" unicode="&#xa8;" horiz-adv-x="416" d="M60 705 L161 705 L161 606 L60 606 L60 705 Z M254 705 L356 705 L356 606 L254 606 L254 705 Z " />
<glyph glyph-name="copyright" unicode="&#xa9;" horiz-adv-x="716" d="M358 45 Q292 45 236 68.5 Q180 92 138.5 133.5 Q97 175 73.5 231.5 Q50 288 50 354 Q50 419 73.5 475.5 Q97 532 138.5 573.5 Q180 615 236 638.5 Q292 662 358 662 Q423 662 479.5 638.5 Q536 615 577.5 573.5 Q619 532 642.5 475.5 Q666 419 666 354 Q666 288 642.5 231.5 Q619 175 577.5 133.5 Q536 92 479.5 68.5 Q423 45 358 45 Z M358 101 Q411 101 457 120.5 Q503 140 536.5 174 Q570 208 589 254 Q608 300 608 354 Q608 407 589 453 Q570 499 536.5 532.5 Q503 566 457 585.5 Q411 605 358 605 Q305 605 259 585.5 Q213 566 179.5 532.5 Q146 499 127 453 Q108 407 108 354 Q108 300 127 254 Q146 208 179.5 174 Q213 140 259 120.5 Q305 101 358 101 Z M501 296 Q492 233 455.5 197 Q419 161 362 161 Q329 161 300.5 173.5 Q272 186 251 210 Q230 234 218 269.5 Q206 305 206 351 Q206 398 218.5 433.5 Q231 469 252.5 493.5 Q274 518 302.5 530.5 Q331 543 362 543 Q419 543 455 506 Q491 469 499 412 L429 399 Q424 430 408.5 453 Q393 476 362 476 Q327 476 303 445 Q279 414 279 351 Q279 283 304.5 255 Q330 227 362 227 Q394 227 410 251.5 Q426 276 431 312 L501 296 Z " />
<glyph glyph-name="ordfeminine" unicode="&#xaa;" horiz-adv-x="357" d="M245 416 L244 416 Q243 414 237.5 407.5 Q232 401 221.5 393.5 Q211 386 195 380.5 Q179 375 156 375 Q98 375 71.5 403 Q45 431 45 466 Q45 508 69.5 529 Q94 550 151 564 Q177 570 193 575 Q209 580 218.5 585 Q228 590 231.5 595.5 Q235 601 235 610 Q235 625 221.5 637 Q208 649 177 649 Q142 649 128 631 Q114 613 108 592 L51 614 Q60 652 90.5 678.5 Q121 705 175 705 Q202 705 225 698.5 Q248 692 265 678 Q282 664 292 641 Q302 618 302 586 L302 384 L245 384 L245 416 Z M165 516 Q129 507 119.5 496 Q110 485 110 471 Q110 433 161 433 Q202 433 219.5 449.5 Q237 466 237 486 L237 548 L236 548 Q235 545 232.5 542 Q230 539 222.5 535.5 Q215 532 201.5 527 Q188 522 165 516 Z " />
<glyph glyph-name="guillemotleft" unicode="&#xab;" horiz-adv-x="566" d="M90 281 L198 467 L291 467 L182 281 L292 96 L199 96 L90 281 Z M284 281 L392 467 L485 467 L376 281 L486 96 L393 96 L284 281 Z " />
<glyph glyph-name="logicalnot" unicode="&#xac;" horiz-adv-x="617" d="M60 451 L537 451 L537 193 L442 193 L442 361 L60 361 L60 451 Z " />
<glyph glyph-name="registered" unicode="&#xae;" horiz-adv-x="452" d="M226 384 Q257 384 283.5 395.5 Q310 407 329.5 426.5 Q349 446 360 472.5 Q371 499 371 530 Q371 561 360 588 Q349 615 329.5 634.5 Q310 654 283.5 665 Q257 676 226 676 Q195 676 168 665 Q141 654 121.5 634.5 Q102 615 91 588 Q80 561 80 530 Q80 499 91 472.5 Q102 446 121.5 426.5 Q141 407 168 395.5 Q195 384 226 384 Z M226 354 Q189 354 156.5 367.5 Q124 381 100.5 405 Q77 429 63.5 461 Q50 493 50 530 Q50 567 63.5 599 Q77 631 100.5 655 Q124 679 156.5 692.5 Q189 706 226 706 Q263 706 295 692.5 Q327 679 351 655 Q375 631 388.5 599 Q402 567 402 530 Q402 493 388.5 461 Q375 429 351 405 Q327 381 295 367.5 Q263 354 226 354 Z M163 635 L230 635 Q265 635 285 619 Q305 603 305 571 Q305 545 291.5 530.5 Q278 516 255 511 L301 424 L265 424 L222 508 L197 508 L197 424 L163 424 L163 635 Z M229 537 Q246 537 259 544 Q272 551 272 571 Q272 591 259.5 598 Q247 605 229 605 L197 605 L197 537 L229 537 Z " />
<glyph glyph-name="macron" unicode="&#xaf;" horiz-adv-x="408" d="M60 687 L348 687 L348 620 L60 620 L60 687 Z " />
<glyph glyph-name="degree" unicode="&#xb0;" horiz-adv-x="390" d="M194 483 Q163 483 137.5 494.5 Q112 506 93.5 525.5 Q75 545 65 571.5 Q55 598 55 628 Q55 658 65.5 684.5 Q76 711 95 731 Q114 751 139 762.5 Q164 774 194 774 Q225 774 251 762.5 Q277 751 295.5 731.5 Q314 712 324.5 685.5 Q335 659 335 628 Q335 597 324.5 570 Q314 543 295.5 524 Q277 505 251 494 Q225 483 194 483 Z M194 550 Q219 550 240 566 Q261 582 261 628 Q261 652 255 667 Q249 682 239.5 691 Q230 700 218 703.5 Q206 707 194 707 Q182 707 170 703.5 Q158 700 149 691 Q140 682 134 667 Q128 652 128 628 Q128 582 149 566 Q170 550 194 550 Z " />
<glyph glyph-name="plusminus" unicode="&#xb1;" horiz-adv-x="603" d="M50 498 L259 498 L259 660 L344 660 L344 498 L553 498 L553 418 L344 418 L344 235 L259 235 L259 418 L50 418 L50 498 Z M75 171 L534 171 L534 91 L75 91 L75 171 Z " />
<glyph glyph-name="twosuperior" unicode="&#xb2;" horiz-adv-x="356" d="M34 530 Q34 585 62 619 Q77 638 101 652.5 Q125 667 155 682 Q177 694 195 703.5 Q213 713 226 723.5 Q239 734 246 747 Q253 760 253 778 Q253 801 236.5 820 Q220 839 182 839 Q144 839 125 816.5 Q106 794 101 751 L30 760 Q34 829 74 867 Q114 905 183 905 Q243 905 283 870 Q323 835 323 773 Q323 746 313.5 725.5 Q304 705 288 689 Q272 673 252 661 Q232 649 211 638 Q170 618 151 606.5 Q132 595 124 582 Q119 574 117.5 565 Q116 556 116 548 L326 548 L326 473 L34 473 L34 530 Z " />
<glyph glyph-name="threesuperior" unicode="&#xb3;" horiz-adv-x="349" d="M87 630 Q93 582 114 558 Q135 534 176 534 Q215 534 235 552.5 Q255 571 255 601 Q255 633 233.5 650 Q212 667 172 667 L145 667 L145 726 L167 726 Q193 726 214.5 738 Q236 750 236 779 Q236 806 219.5 822 Q203 838 171 838 Q140 838 124.5 820.5 Q109 803 104 771 L36 784 Q41 841 78 873 Q115 905 174 905 Q229 905 267 874.5 Q305 844 305 790 Q305 771 299 756 Q293 741 284.5 730.5 Q276 720 266.5 714 Q257 708 250 705 L250 703 Q260 700 273 693 Q286 686 297 673 Q308 660 316 640.5 Q324 621 324 595 Q324 543 286 505.5 Q248 468 176 468 Q110 468 67 503.5 Q24 539 15 614 L87 630 Z " />
<glyph glyph-name="acute" unicode="&#xb4;" horiz-adv-x="292" d="M129 717 L242 717 L134 595 L50 595 L129 717 Z " />
<glyph glyph-name="mu" unicode="&#xb5;" horiz-adv-x="595" d="M85 530 L182 530 L182 211 Q182 145 215 111 Q248 77 305 77 Q362 77 392.5 110 Q423 143 423 200 L423 530 L520 530 L520 0 L425 0 L425 51 L423 51 Q420 44 409.5 32.5 Q399 21 383 10.5 Q367 0 345 -7.5 Q323 -15 296 -15 Q261 -15 230.5 -4.5 Q200 6 181 28 L180 28 L180 -225 L85 -225 L85 530 Z " />
<glyph glyph-name="paragraph" unicode="&#xb6;" horiz-adv-x="550" d="M171 308 Q138 309 108.5 321 Q79 333 57 355 Q35 377 22.5 407 Q10 437 10 474 Q10 514 23 545 Q36 576 58.5 597 Q81 618 111 629 Q141 640 175 640 L470 640 L470 -136 L392 -136 L392 555 L251 555 L251 -136 L171 -136 L171 308 Z " />
<glyph glyph-name="periodcentered" unicode="&#xb7;" horiz-adv-x="307" d="M90 436 L217 436 L217 312 L90 312 L90 436 Z " />
<glyph glyph-name="cedilla" unicode="&#xb8;" horiz-adv-x="273" d="M55 -123 Q69 -134 87.5 -146 Q106 -158 132 -158 Q153 -158 167 -148.5 Q181 -139 181 -120 Q181 -101 167 -92.5 Q153 -84 132 -84 Q120 -84 110.5 -86.5 Q101 -89 94 -93 Q86 -96 80 -101 L41 -79 L88 0 L139 0 L102 -58 L103 -59 Q111 -54 125.5 -49 Q140 -44 161 -44 Q175 -44 190 -49 Q205 -54 217 -63.5 Q229 -73 236.5 -88.5 Q244 -104 244 -125 Q244 -168 213.5 -191 Q183 -214 135 -214 Q94 -214 65 -199 Q36 -184 20 -169 L55 -123 Z " />
<glyph glyph-name="onesuperior" unicode="&#xb9;" horiz-adv-x="264" d="M112 814 L20 757 L20 839 L118 900 L184 900 L184 473 L112 473 L112 814 Z " />
<glyph glyph-name="ordmasculine" unicode="&#xba;" horiz-adv-x="355" d="M178 437 Q212 437 232.5 463.5 Q253 490 253 541 Q253 591 232 617.5 Q211 644 178 644 Q144 644 122.5 618 Q101 592 101 541 Q101 490 122 463.5 Q143 437 178 437 Z M178 375 Q148 375 122 386 Q96 397 76.5 418 Q57 439 46 470 Q35 501 35 541 Q35 581 46.5 612 Q58 643 77.5 664 Q97 685 123 695.5 Q149 706 178 706 Q206 706 232 695.5 Q258 685 277.5 664 Q297 643 308.5 612 Q320 581 320 541 Q320 501 309 470 Q298 439 278.5 418 Q259 397 233.5 386 Q208 375 178 375 Z " />
<glyph glyph-name="guillemotright" unicode="&#xbb;" horiz-adv-x="566" d="M357 96 L264 96 L374 281 L265 467 L358 467 L466 281 L357 96 Z M163 96 L70 96 L180 281 L71 467 L164 467 L272 281 L163 96 Z " />
<glyph glyph-name="onequarter" unicode="&#xbc;" horiz-adv-x="822" d="M615 778 L673 741 L185 -73 L126 -37 L615 778 Z M117 614 L25 557 L25 639 L123 700 L189 700 L189 273 L117 273 L117 614 Z M465 160 L627 427 L732 427 L732 160 L782 160 L782 92 L732 92 L732 0 L658 0 L658 92 L465 92 L465 160 Z M659 160 L659 362 L657 362 L534 160 L659 160 Z " />
<glyph glyph-name="onehalf" unicode="&#xbd;" horiz-adv-x="879" d="M615 777 L673 740 L185 -74 L126 -38 L615 777 Z M117 613 L25 556 L25 638 L123 699 L189 699 L189 272 L117 272 L117 613 Z M522 57 Q522 112 550 146 Q565 165 589 179.5 Q613 194 643 209 Q665 221 683 230.5 Q701 240 714 250.5 Q727 261 734 274 Q741 287 741 305 Q741 328 724.5 347 Q708 366 670 366 Q632 366 613 343.5 Q594 321 589 278 L518 287 Q522 356 562 394 Q602 432 671 432 Q731 432 771 397 Q811 362 811 300 Q811 273 801.5 252.5 Q792 232 776 216 Q760 200 740 188 Q720 176 699 165 Q658 145 639 133.5 Q620 122 612 109 Q607 101 605.5 92 Q604 83 604 75 L814 75 L814 0 L522 0 L522 57 Z " />
<glyph glyph-name="threequarters" unicode="&#xbe;" horiz-adv-x="891" d="M697 778 L755 741 L267 -73 L208 -37 L697 778 Z M107 430 Q113 382 134 358 Q155 334 196 334 Q235 334 255 352.5 Q275 371 275 401 Q275 433 253.5 450 Q232 467 192 467 L165 467 L165 526 L187 526 Q213 526 234.5 538 Q256 550 256 579 Q256 606 239.5 622 Q223 638 191 638 Q160 638 144.5 620.5 Q129 603 124 571 L56 584 Q61 641 98 673 Q135 705 194 705 Q249 705 287 674.5 Q325 644 325 590 Q325 571 319 556 Q313 541 304.5 530.5 Q296 520 286.5 514 Q277 508 270 505 L270 503 Q280 500 293 493 Q306 486 317 473 Q328 460 336 440.5 Q344 421 344 395 Q344 343 306 305.5 Q268 268 196 268 Q130 268 87 303.5 Q44 339 35 414 L107 430 Z M534 160 L696 427 L801 427 L801 160 L851 160 L851 92 L801 92 L801 0 L727 0 L727 92 L534 92 L534 160 Z M728 160 L728 362 L726 362 L603 160 L728 160 Z " />
<glyph glyph-name="questiondown" unicode="&#xbf;" horiz-adv-x="524" d="M326 281 Q326 236 303.5 208.5 Q281 181 237 150 Q216 135 196.5 120.5 Q177 106 162.5 90.5 Q148 75 139.5 55.5 Q131 36 131 10 Q131 -8 137 -26 Q143 -44 157.5 -59 Q172 -74 194.5 -83.5 Q217 -93 250 -93 Q290 -93 315.5 -80 Q341 -67 356 -46 Q371 -25 377.5 1.5 Q384 28 385 54 L484 46 Q483 -2 468 -44 Q453 -86 424 -117.5 Q395 -149 351 -167 Q307 -185 248 -185 Q201 -185 161 -171 Q121 -157 92 -131.5 Q63 -106 46.5 -71.5 Q30 -37 30 4 Q30 41 38.5 67 Q47 93 62 113 Q77 133 96.5 149 Q116 165 138 181 Q161 197 178.5 209 Q196 221 208 233 Q220 245 226.5 257.5 Q233 270 233 288 L233 328 L326 328 L326 281 Z M339 406 L211 406 L211 530 L339 530 L339 406 Z " />
<glyph glyph-name="Agrave" unicode="&#xc0;" horiz-adv-x="631" d="M464 129 L164 129 L119 0 L15 0 L268 700 L364 700 L616 0 L510 0 L464 129 Z M194 215 L434 215 L315 556 L313 556 L194 215 Z M166 887 L279 887 L359 765 L275 765 L166 887 Z " />
<glyph glyph-name="Aacute" unicode="&#xc1;" horiz-adv-x="631" d="M464 129 L164 129 L119 0 L15 0 L268 700 L364 700 L616 0 L510 0 L464 129 Z M194 215 L434 215 L315 556 L313 556 L194 215 Z M358 887 L471 887 L363 765 L279 765 L358 887 Z " />
<glyph glyph-name="Acircumflex" unicode="&#xc2;" horiz-adv-x="631" d="M464 129 L164 129 L119 0 L15 0 L268 700 L364 700 L616 0 L510 0 L464 129 Z M194 215 L434 215 L315 556 L313 556 L194 215 Z M257 875 L374 875 L441 790 L387 747 L316 837 L244 747 L190 790 L257 875 Z " />
<glyph glyph-name="Atilde" unicode="&#xc3;" horiz-adv-x="631" d="M464 129 L164 129 L119 0 L15 0 L268 700 L364 700 L616 0 L510 0 L464 129 Z M194 215 L434 215 L315 556 L313 556 L194 215 Z M173 765 Q180 806 200.5 835 Q221 864 266 864 Q287 864 303 858 Q319 852 332.5 845 Q346 838 358 832 Q370 826 383 826 Q399 826 407 834.5 Q415 843 419 859 L471 859 Q464 819 443.5 789.5 Q423 760 378 760 Q357 760 341 766 Q325 772 311 779 Q297 786 285 792 Q273 798 260 798 Q232 798 224 765 L173 765 Z " />
<glyph glyph-name="Adieresis" unicode="&#xc4;" horiz-adv-x="631" d="M464 129 L164 129 L119 0 L15 0 L268 700 L364 700 L616 0 L510 0 L464 129 Z M194 215 L434 215 L315 556 L313 556 L194 215 Z M167 864 L268 864 L268 765 L167 765 L167 864 Z M361 864 L463 864 L463 765 L361 765 L361 864 Z " />
<glyph glyph-name="Aring" unicode="&#xc5;" horiz-adv-x="631" d="M464 129 L164 129 L119 0 L15 0 L268 700 L364 700 L616 0 L510 0 L464 129 Z M194 215 L434 215 L315 556 L313 556 L194 215 Z M315 682 Q270 682 242.5 711.5 Q215 741 215 786 Q215 829 243.5 859.5 Q272 890 315 890 Q360 890 387.5 860 Q415 830 415 786 Q415 740 387.5 711 Q360 682 315 682 Z M315 731 Q332 731 346.5 744.5 Q361 758 361 787 Q361 815 346.5 828 Q332 841 315 841 Q298 841 284 828 Q270 815 270 787 Q270 758 284 744.5 Q298 731 315 731 Z " />
<glyph glyph-name="AE" unicode="&#xc6;" horiz-adv-x="866" d="M278 700 L801 700 L801 607 L508 607 L508 404 L773 404 L773 316 L508 316 L508 92 L801 92 L801 0 L408 0 L408 140 L171 140 L118 0 L15 0 L278 700 Z M408 228 L408 607 L341 607 L202 228 L408 228 Z " />
<glyph glyph-name="Ccedilla" unicode="&#xc7;" horiz-adv-x="665" d="M349 -15 Q292 -15 238 5.5 Q184 26 142 70 Q100 114 75 185 Q50 256 50 356 Q50 446 75 513.5 Q100 581 142 626 Q184 671 238 693 Q292 715 349 715 Q405 715 451.5 697.5 Q498 680 533 648 Q568 616 590 570 Q612 524 619 468 L517 451 Q512 484 500.5 515 Q489 546 469 569.5 Q449 593 419.5 607 Q390 621 349 621 Q310 621 275 605.5 Q240 590 213 557.5 Q186 525 170.5 475 Q155 425 155 356 Q155 283 170 231 Q185 179 211.5 145 Q238 111 273.5 95 Q309 79 349 79 Q391 79 420.5 94 Q450 109 469.5 134.5 Q489 160 499 194.5 Q509 229 513 267 L620 250 Q615 189 594 140 Q573 91 538.5 56.5 Q504 22 456 3.5 Q408 -15 349 -15 Z M305 -123 Q319 -134 337.5 -146 Q356 -158 382 -158 Q403 -158 417 -148.5 Q431 -139 431 -120 Q431 -101 417 -92.5 Q403 -84 382 -84 Q370 -84 360.5 -86.5 Q351 -89 344 -93 Q336 -96 330 -101 L291 -79 L338 0 L389 0 L352 -58 L353 -59 Q361 -54 375.5 -49 Q390 -44 411 -44 Q425 -44 440 -49 Q455 -54 467 -63.5 Q479 -73 486.5 -88.5 Q494 -104 494 -125 Q494 -168 463.5 -191 Q433 -214 385 -214 Q344 -214 315 -199 Q286 -184 270 -169 L305 -123 Z " />
<glyph glyph-name="Egrave" unicode="&#xc8;" horiz-adv-x="583" d="M90 700 L518 700 L518 607 L190 607 L190 404 L490 404 L490 315 L190 315 L190 92 L518 92 L518 0 L90 0 L90 700 Z M172 887 L285 887 L365 765 L281 765 L172 887 Z " />
<glyph glyph-name="Eacute" unicode="&#xc9;" horiz-adv-x="583" d="M90 700 L518 700 L518 607 L190 607 L190 404 L490 404 L490 315 L190 315 L190 92 L518 92 L518 0 L90 0 L90 700 Z M331 887 L444 887 L336 765 L252 765 L331 887 Z " />
<glyph glyph-name="Ecircumflex" unicode="&#xca;" horiz-adv-x="583" d="M90 700 L518 700 L518 607 L190 607 L190 404 L490 404 L490 315 L190 315 L190 92 L518 92 L518 0 L90 0 L90 700 Z M251 875 L368 875 L435 790 L381 747 L310 837 L238 747 L184 790 L251 875 Z " />
<glyph glyph-name="Edieresis" unicode="&#xcb;" horiz-adv-x="583" d="M90 700 L518 700 L518 607 L190 607 L190 404 L490 404 L490 315 L190 315 L190 92 L518 92 L518 0 L90 0 L90 700 Z M156 864 L257 864 L257 765 L156 765 L156 864 Z M350 864 L452 864 L452 765 L350 765 L350 864 Z " />
<glyph glyph-name="Igrave" unicode="&#xcc;" horiz-adv-x="290" d="M95 700 L195 700 L195 0 L95 0 L95 700 Z M-15 887 L98 887 L178 765 L94 765 L-15 887 Z " />
<glyph glyph-name="Iacute" unicode="&#xcd;" horiz-adv-x="290" d="M95 700 L195 700 L195 0 L95 0 L95 700 Z M168 887 L281 887 L173 765 L89 765 L168 887 Z " />
<glyph glyph-name="Icircumflex" unicode="&#xce;" horiz-adv-x="290" d="M95 700 L195 700 L195 0 L95 0 L95 700 Z M77 875 L194 875 L261 790 L207 747 L136 837 L64 747 L10 790 L77 875 Z " />
<glyph glyph-name="Idieresis" unicode="&#xcf;" horiz-adv-x="290" d="M95 700 L195 700 L195 0 L95 0 L95 700 Z M-13 864 L88 864 L88 765 L-13 765 L-13 864 Z M181 864 L283 864 L283 765 L181 765 L181 864 Z " />
<glyph glyph-name="Eth" unicode="&#xd0;" horiz-adv-x="685" d="M103 323 L35 323 L35 408 L103 408 L103 700 L337 700 Q396 700 450.5 679.5 Q505 659 547 616.5 Q589 574 614.5 508 Q640 442 640 351 Q640 251 614 183.5 Q588 116 544.5 75 Q501 34 445.5 17 Q390 0 331 0 L103 0 L103 323 Z M326 92 Q372 92 410 105 Q448 118 475.5 148 Q503 178 518 227.5 Q533 277 533 351 Q533 418 518.5 466.5 Q504 515 477.5 546 Q451 577 414 592 Q377 607 332 607 L203 607 L203 408 L372 408 L372 323 L203 323 L203 92 L326 92 Z " />
<glyph glyph-name="Ntilde" unicode="&#xd1;" horiz-adv-x="687" d="M90 700 L193 700 L494 178 L496 178 L496 700 L597 700 L597 0 L496 0 L192 522 L190 522 L190 0 L90 0 L90 700 Z M198 765 Q205 806 225.5 835 Q246 864 291 864 Q312 864 328 858 Q344 852 357.5 845 Q371 838 383 832 Q395 826 408 826 Q424 826 432 834.5 Q440 843 444 859 L496 859 Q489 819 468.5 789.5 Q448 760 403 760 Q382 760 366 766 Q350 772 336 779 Q322 786 310 792 Q298 798 285 798 Q257 798 249 765 L198 765 Z " />
<glyph glyph-name="Ograve" unicode="&#xd2;" horiz-adv-x="695" d="M349 78 Q389 78 423.5 93.5 Q458 109 484 142.5 Q510 176 525 228 Q540 280 540 353 Q540 422 524.5 472.5 Q509 523 483 556 Q457 589 422 605 Q387 621 349 621 Q310 621 275 605.5 Q240 590 213 557.5 Q186 525 170.5 475 Q155 425 155 356 Q155 283 170 230.5 Q185 178 211.5 144 Q238 110 273.5 94 Q309 78 349 78 Z M349 -15 Q292 -15 238 5.5 Q184 26 142 70 Q100 114 75 185 Q50 256 50 356 Q50 446 75 513.5 Q100 581 142 626 Q184 671 238 693 Q292 715 349 715 Q406 715 459 692.5 Q512 670 553.5 624.5 Q595 579 620 511 Q645 443 645 353 Q645 253 620 182.5 Q595 112 553.5 68.5 Q512 25 459 5 Q406 -15 349 -15 Z M204 887 L317 887 L397 765 L313 765 L204 887 Z " />
<glyph glyph-name="Oacute" unicode="&#xd3;" horiz-adv-x="695" d="M349 78 Q389 78 423.5 93.5 Q458 109 484 142.5 Q510 176 525 228 Q540 280 540 353 Q540 422 524.5 472.5 Q509 523 483 556 Q457 589 422 605 Q387 621 349 621 Q310 621 275 605.5 Q240 590 213 557.5 Q186 525 170.5 475 Q155 425 155 356 Q155 283 170 230.5 Q185 178 211.5 144 Q238 110 273.5 94 Q309 78 349 78 Z M349 -15 Q292 -15 238 5.5 Q184 26 142 70 Q100 114 75 185 Q50 256 50 356 Q50 446 75 513.5 Q100 581 142 626 Q184 671 238 693 Q292 715 349 715 Q406 715 459 692.5 Q512 670 553.5 624.5 Q595 579 620 511 Q645 443 645 353 Q645 253 620 182.5 Q595 112 553.5 68.5 Q512 25 459 5 Q406 -15 349 -15 Z M384 887 L497 887 L389 765 L305 765 L384 887 Z " />
<glyph glyph-name="Ocircumflex" unicode="&#xd4;" horiz-adv-x="695" d="M349 78 Q389 78 423.5 93.5 Q458 109 484 142.5 Q510 176 525 228 Q540 280 540 353 Q540 422 524.5 472.5 Q509 523 483 556 Q457 589 422 605 Q387 621 349 621 Q310 621 275 605.5 Q240 590 213 557.5 Q186 525 170.5 475 Q155 425 155 356 Q155 283 170 230.5 Q185 178 211.5 144 Q238 110 273.5 94 Q309 78 349 78 Z M349 -15 Q292 -15 238 5.5 Q184 26 142 70 Q100 114 75 185 Q50 256 50 356 Q50 446 75 513.5 Q100 581 142 626 Q184 671 238 693 Q292 715 349 715 Q406 715 459 692.5 Q512 670 553.5 624.5 Q595 579 620 511 Q645 443 645 353 Q645 253 620 182.5 Q595 112 553.5 68.5 Q512 25 459 5 Q406 -15 349 -15 Z M298 875 L415 875 L482 790 L428 747 L357 837 L285 747 L231 790 L298 875 Z " />
<glyph glyph-name="Otilde" unicode="&#xd5;" horiz-adv-x="695" d="M349 78 Q389 78 423.5 93.5 Q458 109 484 142.5 Q510 176 525 228 Q540 280 540 353 Q540 422 524.5 472.5 Q509 523 483 556 Q457 589 422 605 Q387 621 349 621 Q310 621 275 605.5 Q240 590 213 557.5 Q186 525 170.5 475 Q155 425 155 356 Q155 283 170 230.5 Q185 178 211.5 144 Q238 110 273.5 94 Q309 78 349 78 Z M349 -15 Q292 -15 238 5.5 Q184 26 142 70 Q100 114 75 185 Q50 256 50 356 Q50 446 75 513.5 Q100 581 142 626 Q184 671 238 693 Q292 715 349 715 Q406 715 459 692.5 Q512 670 553.5 624.5 Q595 579 620 511 Q645 443 645 353 Q645 253 620 182.5 Q595 112 553.5 68.5 Q512 25 459 5 Q406 -15 349 -15 Z M208 765 Q215 806 235.5 835 Q256 864 301 864 Q322 864 338 858 Q354 852 367.5 845 Q381 838 393 832 Q405 826 418 826 Q434 826 442 834.5 Q450 843 454 859 L506 859 Q499 819 478.5 789.5 Q458 760 413 760 Q392 760 376 766 Q360 772 346 779 Q332 786 320 792 Q308 798 295 798 Q267 798 259 765 L208 765 Z " />
<glyph glyph-name="Odieresis" unicode="&#xd6;" horiz-adv-x="695" d="M349 78 Q389 78 423.5 93.5 Q458 109 484 142.5 Q510 176 525 228 Q540 280 540 353 Q540 422 524.5 472.5 Q509 523 483 556 Q457 589 422 605 Q387 621 349 621 Q310 621 275 605.5 Q240 590 213 557.5 Q186 525 170.5 475 Q155 425 155 356 Q155 283 170 230.5 Q185 178 211.5 144 Q238 110 273.5 94 Q309 78 349 78 Z M349 -15 Q292 -15 238 5.5 Q184 26 142 70 Q100 114 75 185 Q50 256 50 356 Q50 446 75 513.5 Q100 581 142 626 Q184 671 238 693 Q292 715 349 715 Q406 715 459 692.5 Q512 670 553.5 624.5 Q595 579 620 511 Q645 443 645 353 Q645 253 620 182.5 Q595 112 553.5 68.5 Q512 25 459 5 Q406 -15 349 -15 Z M205 864 L306 864 L306 765 L205 765 L205 864 Z M399 864 L501 864 L501 765 L399 765 L399 864 Z " />
<glyph glyph-name="multiply" unicode="&#xd7;" horiz-adv-x="545" d="M215 337 L60 492 L117 549 L272 394 L427 549 L485 491 L330 337 L495 172 L437 115 L272 279 L107 114 L50 172 L215 337 Z " />
<glyph glyph-name="Oslash" unicode="&#xd8;" horiz-adv-x="695" d="M151 60 Q105 105 77.5 177 Q50 249 50 356 Q50 446 75 513.5 Q100 581 142 626 Q184 671 238 693 Q292 715 349 715 Q388 715 426 704 Q464 693 499 670 L525 715 L570 687 L541 637 Q588 591 616.5 520.5 Q645 450 645 353 Q645 253 620 182.5 Q595 112 553.5 68.5 Q512 25 459 5 Q406 -15 349 -15 Q307 -15 268 -5 Q229 5 194 27 L170 -15 L123 11 L151 60 Z M243 113 Q287 78 349 78 Q389 78 423.5 93.5 Q458 109 484 142.5 Q510 176 525 228 Q540 280 540 353 Q540 417 526 465 Q512 513 489 545 L243 113 Z M451 586 Q405 621 349 621 Q310 621 275 605.5 Q240 590 213 557.5 Q186 525 170.5 475 Q155 425 155 356 Q155 288 168.5 238.5 Q182 189 205 154 L451 586 Z " />
<glyph glyph-name="Ugrave" unicode="&#xd9;" horiz-adv-x="657" d="M75 700 L175 700 L175 234 Q175 159 213 119 Q251 79 328 79 Q405 79 443.5 119 Q482 159 482 232 L482 700 L582 700 L582 228 Q582 107 513 46 Q444 -15 328 -15 Q212 -15 143.5 46 Q75 107 75 228 L75 700 Z M195 887 L308 887 L388 765 L304 765 L195 887 Z " />
<glyph glyph-name="Uacute" unicode="&#xda;" horiz-adv-x="657" d="M75 700 L175 700 L175 234 Q175 159 213 119 Q251 79 328 79 Q405 79 443.5 119 Q482 159 482 232 L482 700 L582 700 L582 228 Q582 107 513 46 Q444 -15 328 -15 Q212 -15 143.5 46 Q75 107 75 228 L75 700 Z M378 887 L491 887 L383 765 L299 765 L378 887 Z " />
<glyph glyph-name="Ucircumflex" unicode="&#xdb;" horiz-adv-x="657" d="M75 700 L175 700 L175 234 Q175 159 213 119 Q251 79 328 79 Q405 79 443.5 119 Q482 159 482 232 L482 700 L582 700 L582 228 Q582 107 513 46 Q444 -15 328 -15 Q212 -15 143.5 46 Q75 107 75 228 L75 700 Z M279 875 L396 875 L463 790 L409 747 L338 837 L266 747 L212 790 L279 875 Z " />
<glyph glyph-name="Udieresis" unicode="&#xdc;" horiz-adv-x="657" d="M75 700 L175 700 L175 234 Q175 159 213 119 Q251 79 328 79 Q405 79 443.5 119 Q482 159 482 232 L482 700 L582 700 L582 228 Q582 107 513 46 Q444 -15 328 -15 Q212 -15 143.5 46 Q75 107 75 228 L75 700 Z M185 864 L286 864 L286 765 L185 765 L185 864 Z M379 864 L481 864 L481 765 L379 765 L379 864 Z " />
<glyph glyph-name="Yacute" unicode="&#xdd;" horiz-adv-x="577" d="M239 295 L10 700 L118 700 L287 387 L289 387 L459 700 L567 700 L337 295 L337 0 L239 0 L239 295 Z M335 887 L448 887 L340 765 L256 765 L335 887 Z " />
<glyph glyph-name="Thorn" unicode="&#xde;" horiz-adv-x="645" d="M90 700 L190 700 L190 584 L365 584 Q422 584 468 570 Q514 556 546.5 528.5 Q579 501 597 459 Q615 417 615 361 Q615 249 550.5 194 Q486 139 365 139 L190 139 L190 0 L90 0 L90 700 Z M368 231 Q399 231 426 238.5 Q453 246 472.5 261.5 Q492 277 503.5 302 Q515 327 515 361 Q515 429 473.5 460 Q432 491 368 491 L190 491 L190 231 L368 231 Z " />
<glyph glyph-name="germandbls" unicode="&#xdf;" horiz-adv-x="572" d="M70 491 Q70 547 86.5 589 Q103 631 131.5 659 Q160 687 199 701 Q238 715 282 715 Q327 715 365 701.5 Q403 688 431 663 Q459 638 475 604.5 Q491 571 491 530 Q491 500 482 476.5 Q473 453 460 436.5 Q447 420 432.5 409 Q418 398 406 392 L406 390 Q423 384 443 372 Q463 360 480.5 339 Q498 318 510 287.5 Q522 257 522 214 Q522 108 464 54 Q406 0 289 0 L257 0 L257 85 L280 85 Q355 85 392.5 116.5 Q430 148 430 217 Q430 285 394.5 313.5 Q359 342 303 342 L257 342 L257 418 L282 418 Q306 418 327.5 424 Q349 430 365.5 442 Q382 454 391.5 472.5 Q401 491 401 516 Q401 567 369 597 Q337 627 283 627 Q249 627 226.5 615.5 Q204 604 190.5 583.5 Q177 563 172 535.5 Q167 508 167 476 L167 0 L70 0 L70 491 Z " />
<glyph glyph-name="agrave" unicode="&#xe0;" horiz-adv-x="540" d="M385 56 L383 56 Q380 49 369 37 Q358 25 339 13.5 Q320 2 292 -6.5 Q264 -15 227 -15 Q179 -15 144.5 -2.5 Q110 10 88 31 Q66 52 55.5 80 Q45 108 45 138 Q45 172 55 197.5 Q65 223 86 242.5 Q107 262 141 276.5 Q175 291 223 303 Q263 313 291 321.5 Q319 330 336.5 339 Q354 348 362 360 Q370 372 370 388 Q370 417 346 438.5 Q322 460 266 460 Q236 460 214.5 452 Q193 444 179 430.5 Q165 417 156.5 398.5 Q148 380 143 360 L58 390 Q65 422 81 450.5 Q97 479 122.5 500 Q148 521 183.5 533 Q219 545 264 545 Q308 545 345.5 534.5 Q383 524 410.5 500.5 Q438 477 454 440 Q470 403 470 350 L470 0 L385 0 L385 56 Z M245 232 Q212 223 191 213.5 Q170 204 159 193 Q148 182 144 170 Q140 158 140 144 Q140 110 162.5 90.5 Q185 71 236 71 Q307 71 341 101.5 Q375 132 375 171 L375 290 L373 290 Q370 285 365 279 Q360 273 346.5 266 Q333 259 309 251 Q285 243 245 232 Z M134 717 L247 717 L327 595 L243 595 L134 717 Z " />
<glyph glyph-name="aacute" unicode="&#xe1;" horiz-adv-x="540" d="M385 56 L383 56 Q380 49 369 37 Q358 25 339 13.5 Q320 2 292 -6.5 Q264 -15 227 -15 Q179 -15 144.5 -2.5 Q110 10 88 31 Q66 52 55.5 80 Q45 108 45 138 Q45 172 55 197.5 Q65 223 86 242.5 Q107 262 141 276.5 Q175 291 223 303 Q263 313 291 321.5 Q319 330 336.5 339 Q354 348 362 360 Q370 372 370 388 Q370 417 346 438.5 Q322 460 266 460 Q236 460 214.5 452 Q193 444 179 430.5 Q165 417 156.5 398.5 Q148 380 143 360 L58 390 Q65 422 81 450.5 Q97 479 122.5 500 Q148 521 183.5 533 Q219 545 264 545 Q308 545 345.5 534.5 Q383 524 410.5 500.5 Q438 477 454 440 Q470 403 470 350 L470 0 L385 0 L385 56 Z M245 232 Q212 223 191 213.5 Q170 204 159 193 Q148 182 144 170 Q140 158 140 144 Q140 110 162.5 90.5 Q185 71 236 71 Q307 71 341 101.5 Q375 132 375 171 L375 290 L373 290 Q370 285 365 279 Q360 273 346.5 266 Q333 259 309 251 Q285 243 245 232 Z M293 717 L406 717 L298 595 L214 595 L293 717 Z " />
<glyph glyph-name="acircumflex" unicode="&#xe2;" horiz-adv-x="540" d="M385 56 L383 56 Q380 49 369 37 Q358 25 339 13.5 Q320 2 292 -6.5 Q264 -15 227 -15 Q179 -15 144.5 -2.5 Q110 10 88 31 Q66 52 55.5 80 Q45 108 45 138 Q45 172 55 197.5 Q65 223 86 242.5 Q107 262 141 276.5 Q175 291 223 303 Q263 313 291 321.5 Q319 330 336.5 339 Q354 348 362 360 Q370 372 370 388 Q370 417 346 438.5 Q322 460 266 460 Q236 460 214.5 452 Q193 444 179 430.5 Q165 417 156.5 398.5 Q148 380 143 360 L58 390 Q65 422 81 450.5 Q97 479 122.5 500 Q148 521 183.5 533 Q219 545 264 545 Q308 545 345.5 534.5 Q383 524 410.5 500.5 Q438 477 454 440 Q470 403 470 350 L470 0 L385 0 L385 56 Z M245 232 Q212 223 191 213.5 Q170 204 159 193 Q148 182 144 170 Q140 158 140 144 Q140 110 162.5 90.5 Q185 71 236 71 Q307 71 341 101.5 Q375 132 375 171 L375 290 L373 290 Q370 285 365 279 Q360 273 346.5 266 Q333 259 309 251 Q285 243 245 232 Z M215 710 L332 710 L399 624 L345 581 L274 671 L202 581 L148 624 L215 710 Z " />
<glyph glyph-name="atilde" unicode="&#xe3;" horiz-adv-x="540" d="M385 56 L383 56 Q380 49 369 37 Q358 25 339 13.5 Q320 2 292 -6.5 Q264 -15 227 -15 Q179 -15 144.5 -2.5 Q110 10 88 31 Q66 52 55.5 80 Q45 108 45 138 Q45 172 55 197.5 Q65 223 86 242.5 Q107 262 141 276.5 Q175 291 223 303 Q263 313 291 321.5 Q319 330 336.5 339 Q354 348 362 360 Q370 372 370 388 Q370 417 346 438.5 Q322 460 266 460 Q236 460 214.5 452 Q193 444 179 430.5 Q165 417 156.5 398.5 Q148 380 143 360 L58 390 Q65 422 81 450.5 Q97 479 122.5 500 Q148 521 183.5 533 Q219 545 264 545 Q308 545 345.5 534.5 Q383 524 410.5 500.5 Q438 477 454 440 Q470 403 470 350 L470 0 L385 0 L385 56 Z M245 232 Q212 223 191 213.5 Q170 204 159 193 Q148 182 144 170 Q140 158 140 144 Q140 110 162.5 90.5 Q185 71 236 71 Q307 71 341 101.5 Q375 132 375 171 L375 290 L373 290 Q370 285 365 279 Q360 273 346.5 266 Q333 259 309 251 Q285 243 245 232 Z M124 600 Q131 641 151.5 670 Q172 699 217 699 Q238 699 254 693 Q270 687 283.5 680 Q297 673 309 667 Q321 661 334 661 Q350 661 358 669.5 Q366 678 370 694 L422 694 Q415 654 394.5 624.5 Q374 595 329 595 Q308 595 292 601 Q276 607 262 614 Q248 621 236 627 Q224 633 211 633 Q183 633 175 600 L124 600 Z " />
<glyph glyph-name="adieresis" unicode="&#xe4;" horiz-adv-x="540" d="M385 56 L383 56 Q380 49 369 37 Q358 25 339 13.5 Q320 2 292 -6.5 Q264 -15 227 -15 Q179 -15 144.5 -2.5 Q110 10 88 31 Q66 52 55.5 80 Q45 108 45 138 Q45 172 55 197.5 Q65 223 86 242.5 Q107 262 141 276.5 Q175 291 223 303 Q263 313 291 321.5 Q319 330 336.5 339 Q354 348 362 360 Q370 372 370 388 Q370 417 346 438.5 Q322 460 266 460 Q236 460 214.5 452 Q193 444 179 430.5 Q165 417 156.5 398.5 Q148 380 143 360 L58 390 Q65 422 81 450.5 Q97 479 122.5 500 Q148 521 183.5 533 Q219 545 264 545 Q308 545 345.5 534.5 Q383 524 410.5 500.5 Q438 477 454 440 Q470 403 470 350 L470 0 L385 0 L385 56 Z M245 232 Q212 223 191 213.5 Q170 204 159 193 Q148 182 144 170 Q140 158 140 144 Q140 110 162.5 90.5 Q185 71 236 71 Q307 71 341 101.5 Q375 132 375 171 L375 290 L373 290 Q370 285 365 279 Q360 273 346.5 266 Q333 259 309 251 Q285 243 245 232 Z M126 705 L227 705 L227 606 L126 606 L126 705 Z M320 705 L422 705 L422 606 L320 606 L320 705 Z " />
<glyph glyph-name="aring" unicode="&#xe5;" horiz-adv-x="540" d="M385 56 L383 56 Q380 49 369 37 Q358 25 339 13.5 Q320 2 292 -6.5 Q264 -15 227 -15 Q179 -15 144.5 -2.5 Q110 10 88 31 Q66 52 55.5 80 Q45 108 45 138 Q45 172 55 197.5 Q65 223 86 242.5 Q107 262 141 276.5 Q175 291 223 303 Q263 313 291 321.5 Q319 330 336.5 339 Q354 348 362 360 Q370 372 370 388 Q370 417 346 438.5 Q322 460 266 460 Q236 460 214.5 452 Q193 444 179 430.5 Q165 417 156.5 398.5 Q148 380 143 360 L58 390 Q65 422 81 450.5 Q97 479 122.5 500 Q148 521 183.5 533 Q219 545 264 545 Q308 545 345.5 534.5 Q383 524 410.5 500.5 Q438 477 454 440 Q470 403 470 350 L470 0 L385 0 L385 56 Z M245 232 Q212 223 191 213.5 Q170 204 159 193 Q148 182 144 170 Q140 158 140 144 Q140 110 162.5 90.5 Q185 71 236 71 Q307 71 341 101.5 Q375 132 375 171 L375 290 L373 290 Q370 285 365 279 Q360 273 346.5 266 Q333 259 309 251 Q285 243 245 232 Z M271 522 Q226 522 198.5 552 Q171 582 171 626 Q171 669 199.5 699.5 Q228 730 271 730 Q316 730 343.5 700 Q371 670 371 626 Q371 581 343.5 551.5 Q316 522 271 522 Z M271 571 Q288 571 302.5 585 Q317 599 317 627 Q317 656 302.5 668.5 Q288 681 271 681 Q254 681 240 668.5 Q226 656 226 627 Q226 599 240 585 Q254 571 271 571 Z " />
<glyph glyph-name="ae" unicode="&#xe6;" horiz-adv-x="906" d="M852 131 Q839 101 819 74.5 Q799 48 771 28 Q743 8 707 -3.5 Q671 -15 627 -15 Q564 -15 513 11 Q462 37 428 86 L426 86 Q425 82 415 65.5 Q405 49 383 31 Q361 13 325 -1 Q289 -15 235 -15 Q183 -15 147 -2.5 Q111 10 88.5 31 Q66 52 55.5 80 Q45 108 45 138 Q45 203 84 241 Q123 279 216 301 Q262 312 292 321.5 Q322 331 339 340.5 Q356 350 363 362 Q370 374 370 389 Q370 401 364.5 413.5 Q359 426 347.5 436.5 Q336 447 317 453.5 Q298 460 271 460 Q210 460 182.5 432 Q155 404 144 360 L58 388 Q72 459 125.5 502 Q179 545 267 545 Q325 545 371 525 Q417 505 443 464 Q475 503 521 524 Q567 545 621 545 Q673 545 717 526 Q761 507 793 471 Q825 435 843 383 Q861 331 861 265 L861 236 L477 236 Q478 202 487.5 172.5 Q497 143 515.5 120.5 Q534 98 561.5 85 Q589 72 625 72 Q660 72 685 84.5 Q710 97 727 114.5 Q744 132 754 150.5 Q764 169 770 181 L852 131 Z M245 232 Q212 223 191 213.5 Q170 204 159 193 Q148 182 144 170 Q140 158 140 144 Q140 110 162.5 90.5 Q185 71 236 71 Q307 71 341 101.5 Q375 132 375 171 L375 290 L373 290 Q370 285 365 279 Q360 273 346.5 266 Q333 259 309 251 Q285 243 245 232 Z M763 312 Q762 339 753.5 365.5 Q745 392 728 412.5 Q711 433 684.5 445.5 Q658 458 620 458 Q583 458 556.5 444 Q530 430 512.5 408.5 Q495 387 486.5 361 Q478 335 477 312 L763 312 Z " />
<glyph glyph-name="ccedilla" unicode="&#xe7;" horiz-adv-x="553" d="M513 183 Q499 92 441 38.5 Q383 -15 287 -15 Q235 -15 190.5 3.5 Q146 22 114 58 Q82 94 63.5 146 Q45 198 45 265 Q45 333 64.5 385 Q84 437 117.5 472.5 Q151 508 195 526.5 Q239 545 288 545 Q334 545 372.5 530.5 Q411 516 440 490 Q469 464 487 428 Q505 392 510 349 L415 334 Q411 358 402 380 Q393 402 377.5 419 Q362 436 340 446 Q318 456 288 456 Q222 456 181.5 407 Q141 358 141 265 Q141 173 180.5 123 Q220 73 289 73 Q319 73 341 84 Q363 95 378.5 114 Q394 133 403 157 Q412 181 416 207 L513 183 Z M238 -123 Q252 -134 270.5 -146 Q289 -158 315 -158 Q336 -158 350 -148.5 Q364 -139 364 -120 Q364 -101 350 -92.5 Q336 -84 315 -84 Q303 -84 293.5 -86.5 Q284 -89 277 -93 Q269 -96 263 -101 L224 -79 L271 0 L322 0 L285 -58 L286 -59 Q294 -54 308.5 -49 Q323 -44 344 -44 Q358 -44 373 -49 Q388 -54 400 -63.5 Q412 -73 419.5 -88.5 Q427 -104 427 -125 Q427 -168 396.5 -191 Q366 -214 318 -214 Q277 -214 248 -199 Q219 -184 203 -169 L238 -123 Z " />
<glyph glyph-name="egrave" unicode="&#xe8;" horiz-adv-x="573" d="M513 114 Q499 89 479 65.5 Q459 42 431.5 24 Q404 6 369.5 -4.5 Q335 -15 293 -15 Q239 -15 193.5 4.5 Q148 24 115 60.5 Q82 97 63.5 149 Q45 201 45 265 Q45 330 63.5 381.5 Q82 433 114.5 469.5 Q147 506 191.5 525.5 Q236 545 288 545 Q340 545 384 526 Q428 507 460 471 Q492 435 510 383 Q528 331 528 265 L528 236 L144 236 Q145 202 154.5 172.5 Q164 143 182 120.5 Q200 98 227.5 85 Q255 72 291 72 Q326 72 350.5 82 Q375 92 392.5 107 Q410 122 421 139 Q432 156 440 169 L513 114 Z M431 312 Q430 339 421.5 365.5 Q413 392 396 412.5 Q379 433 352.5 445.5 Q326 458 288 458 Q251 458 224.5 444 Q198 430 180.5 408.5 Q163 387 154.5 361 Q146 335 145 312 L431 312 Z M152 717 L265 717 L345 595 L261 595 L152 717 Z " />
<glyph glyph-name="eacute" unicode="&#xe9;" horiz-adv-x="573" d="M513 114 Q499 89 479 65.5 Q459 42 431.5 24 Q404 6 369.5 -4.5 Q335 -15 293 -15 Q239 -15 193.5 4.5 Q148 24 115 60.5 Q82 97 63.5 149 Q45 201 45 265 Q45 330 63.5 381.5 Q82 433 114.5 469.5 Q147 506 191.5 525.5 Q236 545 288 545 Q340 545 384 526 Q428 507 460 471 Q492 435 510 383 Q528 331 528 265 L528 236 L144 236 Q145 202 154.5 172.5 Q164 143 182 120.5 Q200 98 227.5 85 Q255 72 291 72 Q326 72 350.5 82 Q375 92 392.5 107 Q410 122 421 139 Q432 156 440 169 L513 114 Z M431 312 Q430 339 421.5 365.5 Q413 392 396 412.5 Q379 433 352.5 445.5 Q326 458 288 458 Q251 458 224.5 444 Q198 430 180.5 408.5 Q163 387 154.5 361 Q146 335 145 312 L431 312 Z M337 717 L450 717 L342 595 L258 595 L337 717 Z " />
<glyph glyph-name="ecircumflex" unicode="&#xea;" horiz-adv-x="573" d="M513 114 Q499 89 479 65.5 Q459 42 431.5 24 Q404 6 369.5 -4.5 Q335 -15 293 -15 Q239 -15 193.5 4.5 Q148 24 115 60.5 Q82 97 63.5 149 Q45 201 45 265 Q45 330 63.5 381.5 Q82 433 114.5 469.5 Q147 506 191.5 525.5 Q236 545 288 545 Q340 545 384 526 Q428 507 460 471 Q492 435 510 383 Q528 331 528 265 L528 236 L144 236 Q145 202 154.5 172.5 Q164 143 182 120.5 Q200 98 227.5 85 Q255 72 291 72 Q326 72 350.5 82 Q375 92 392.5 107 Q410 122 421 139 Q432 156 440 169 L513 114 Z M431 312 Q430 339 421.5 365.5 Q413 392 396 412.5 Q379 433 352.5 445.5 Q326 458 288 458 Q251 458 224.5 444 Q198 430 180.5 408.5 Q163 387 154.5 361 Q146 335 145 312 L431 312 Z M242 710 L359 710 L426 624 L372 581 L301 671 L229 581 L175 624 L242 710 Z " />
<glyph glyph-name="edieresis" unicode="&#xeb;" horiz-adv-x="573" d="M513 114 Q499 89 479 65.5 Q459 42 431.5 24 Q404 6 369.5 -4.5 Q335 -15 293 -15 Q239 -15 193.5 4.5 Q148 24 115 60.5 Q82 97 63.5 149 Q45 201 45 265 Q45 330 63.5 381.5 Q82 433 114.5 469.5 Q147 506 191.5 525.5 Q236 545 288 545 Q340 545 384 526 Q428 507 460 471 Q492 435 510 383 Q528 331 528 265 L528 236 L144 236 Q145 202 154.5 172.5 Q164 143 182 120.5 Q200 98 227.5 85 Q255 72 291 72 Q326 72 350.5 82 Q375 92 392.5 107 Q410 122 421 139 Q432 156 440 169 L513 114 Z M431 312 Q430 339 421.5 365.5 Q413 392 396 412.5 Q379 433 352.5 445.5 Q326 458 288 458 Q251 458 224.5 444 Q198 430 180.5 408.5 Q163 387 154.5 361 Q146 335 145 312 L431 312 Z M152 705 L253 705 L253 606 L152 606 L152 705 Z M346 705 L448 705 L448 606 L346 606 L346 705 Z " />
<glyph glyph-name="igrave" unicode="&#xec;" horiz-adv-x="255" d="M80 530 L175 530 L175 0 L80 0 L80 530 Z M-19 717 L94 717 L174 595 L90 595 L-19 717 Z " />
<glyph glyph-name="iacute" unicode="&#xed;" horiz-adv-x="255" d="M80 530 L175 530 L175 0 L80 0 L80 530 Z M166 717 L279 717 L171 595 L87 595 L166 717 Z " />
<glyph glyph-name="icircumflex" unicode="&#xee;" horiz-adv-x="255" d="M80 530 L175 530 L175 0 L80 0 L80 530 Z M69 710 L186 710 L253 624 L199 581 L128 671 L56 581 L2 624 L69 710 Z " />
<glyph glyph-name="idieresis" unicode="&#xef;" horiz-adv-x="255" d="M80 530 L175 530 L175 0 L80 0 L80 530 Z M-21 705 L80 705 L80 606 L-21 606 L-21 705 Z M173 705 L275 705 L275 606 L173 606 L173 705 Z " />
<glyph glyph-name="eth" unicode="&#xf0;" horiz-adv-x="571" d="M402 666 Q458 581 492 479.5 Q526 378 526 269 Q526 197 508.5 143.5 Q491 90 459.5 55 Q428 20 383.5 2.5 Q339 -15 285 -15 Q233 -15 189 3 Q145 21 113 56.5 Q81 92 63 144 Q45 196 45 265 Q45 334 62.5 386.5 Q80 439 110.5 474 Q141 509 181.5 527 Q222 545 268 545 Q307 545 341 532.5 Q375 520 395 501 L397 502 Q383 540 363.5 575.5 Q344 611 321 643 L183 605 L168 653 L288 686 Q268 710 248.5 731.5 Q229 753 210 773 L210 775 L318 775 Q332 759 345.5 743 Q359 727 373 709 L502 745 L518 699 L402 666 Z M290 74 Q359 74 394 123.5 Q429 173 429 264 Q429 358 393 407.5 Q357 457 281 457 Q215 457 177.5 411 Q140 365 140 264 Q140 173 180.5 123.5 Q221 74 290 74 Z " />
<glyph glyph-name="ntilde" unicode="&#xf1;" horiz-adv-x="588" d="M80 530 L175 530 L175 479 L177 479 Q197 506 237 525.5 Q277 545 322 545 Q409 545 461 493 Q513 441 513 347 L513 0 L415 0 L415 319 Q415 385 389 420 Q363 455 303 455 Q246 455 211.5 422.5 Q177 390 177 333 L177 0 L80 0 L80 530 Z M147 600 Q154 641 174.5 670 Q195 699 240 699 Q261 699 277 693 Q293 687 306.5 680 Q320 673 332 667 Q344 661 357 661 Q373 661 381 669.5 Q389 678 393 694 L445 694 Q438 654 417.5 624.5 Q397 595 352 595 Q331 595 315 601 Q299 607 285 614 Q271 621 259 627 Q247 633 234 633 Q206 633 198 600 L147 600 Z " />
<glyph glyph-name="ograve" unicode="&#xf2;" horiz-adv-x="573" d="M288 73 Q350 73 391 122 Q432 171 432 265 Q432 359 391 407.5 Q350 456 288 456 Q225 456 183 408 Q141 360 141 265 Q141 170 183 121.5 Q225 73 288 73 Z M288 -15 Q237 -15 192.5 3.5 Q148 22 115.5 57.5 Q83 93 64 145 Q45 197 45 265 Q45 333 64.5 385 Q84 437 117.5 472.5 Q151 508 195 526.5 Q239 545 288 545 Q336 545 379.5 526.5 Q423 508 456 472.5 Q489 437 508.5 385 Q528 333 528 265 Q528 197 509.5 145 Q491 93 458.5 57.5 Q426 22 382.5 3.5 Q339 -15 288 -15 Z M141 717 L254 717 L334 595 L250 595 L141 717 Z " />
<glyph glyph-name="oacute" unicode="&#xf3;" horiz-adv-x="573" d="M288 73 Q350 73 391 122 Q432 171 432 265 Q432 359 391 407.5 Q350 456 288 456 Q225 456 183 408 Q141 360 141 265 Q141 170 183 121.5 Q225 73 288 73 Z M288 -15 Q237 -15 192.5 3.5 Q148 22 115.5 57.5 Q83 93 64 145 Q45 197 45 265 Q45 333 64.5 385 Q84 437 117.5 472.5 Q151 508 195 526.5 Q239 545 288 545 Q336 545 379.5 526.5 Q423 508 456 472.5 Q489 437 508.5 385 Q528 333 528 265 Q528 197 509.5 145 Q491 93 458.5 57.5 Q426 22 382.5 3.5 Q339 -15 288 -15 Z M333 717 L446 717 L338 595 L254 595 L333 717 Z " />
<glyph glyph-name="ocircumflex" unicode="&#xf4;" horiz-adv-x="573" d="M288 73 Q350 73 391 122 Q432 171 432 265 Q432 359 391 407.5 Q350 456 288 456 Q225 456 183 408 Q141 360 141 265 Q141 170 183 121.5 Q225 73 288 73 Z M288 -15 Q237 -15 192.5 3.5 Q148 22 115.5 57.5 Q83 93 64 145 Q45 197 45 265 Q45 333 64.5 385 Q84 437 117.5 472.5 Q151 508 195 526.5 Q239 545 288 545 Q336 545 379.5 526.5 Q423 508 456 472.5 Q489 437 508.5 385 Q528 333 528 265 Q528 197 509.5 145 Q491 93 458.5 57.5 Q426 22 382.5 3.5 Q339 -15 288 -15 Z M235 710 L352 710 L419 624 L365 581 L294 671 L222 581 L168 624 L235 710 Z " />
<glyph glyph-name="otilde" unicode="&#xf5;" horiz-adv-x="573" d="M288 73 Q350 73 391 122 Q432 171 432 265 Q432 359 391 407.5 Q350 456 288 456 Q225 456 183 408 Q141 360 141 265 Q141 170 183 121.5 Q225 73 288 73 Z M288 -15 Q237 -15 192.5 3.5 Q148 22 115.5 57.5 Q83 93 64 145 Q45 197 45 265 Q45 333 64.5 385 Q84 437 117.5 472.5 Q151 508 195 526.5 Q239 545 288 545 Q336 545 379.5 526.5 Q423 508 456 472.5 Q489 437 508.5 385 Q528 333 528 265 Q528 197 509.5 145 Q491 93 458.5 57.5 Q426 22 382.5 3.5 Q339 -15 288 -15 Z M147 600 Q154 641 174.5 670 Q195 699 240 699 Q261 699 277 693 Q293 687 306.5 680 Q320 673 332 667 Q344 661 357 661 Q373 661 381 669.5 Q389 678 393 694 L445 694 Q438 654 417.5 624.5 Q397 595 352 595 Q331 595 315 601 Q299 607 285 614 Q271 621 259 627 Q247 633 234 633 Q206 633 198 600 L147 600 Z " />
<glyph glyph-name="odieresis" unicode="&#xf6;" horiz-adv-x="573" d="M288 73 Q350 73 391 122 Q432 171 432 265 Q432 359 391 407.5 Q350 456 288 456 Q225 456 183 408 Q141 360 141 265 Q141 170 183 121.5 Q225 73 288 73 Z M288 -15 Q237 -15 192.5 3.5 Q148 22 115.5 57.5 Q83 93 64 145 Q45 197 45 265 Q45 333 64.5 385 Q84 437 117.5 472.5 Q151 508 195 526.5 Q239 545 288 545 Q336 545 379.5 526.5 Q423 508 456 472.5 Q489 437 508.5 385 Q528 333 528 265 Q528 197 509.5 145 Q491 93 458.5 57.5 Q426 22 382.5 3.5 Q339 -15 288 -15 Z M149 705 L250 705 L250 606 L149 606 L149 705 Z M343 705 L445 705 L445 606 L343 606 L343 705 Z " />
<glyph glyph-name="divide" unicode="&#xf7;" horiz-adv-x="484" d="M163 566 Q163 600 185.5 622.5 Q208 645 241 645 Q274 645 297 622.5 Q320 600 320 566 Q320 534 297 511 Q274 488 241 488 Q208 488 185.5 511 Q163 534 163 566 Z M163 138 Q163 172 185.5 194.5 Q208 217 241 217 Q274 217 297 194.5 Q320 172 320 138 Q320 106 297 83 Q274 60 241 60 Q208 60 185.5 83 Q163 106 163 138 Z M50 394 L434 394 L434 314 L50 314 L50 394 Z " />
<glyph glyph-name="oslash" unicode="&#xf8;" horiz-adv-x="573" d="M105 68 Q76 103 60.5 152.5 Q45 202 45 265 Q45 333 64.5 385 Q84 437 117.5 472.5 Q151 508 195 526.5 Q239 545 288 545 Q371 545 435 492 L474 542 L509 513 L467 460 Q496 425 512 376 Q528 327 528 265 Q528 197 509.5 145 Q491 93 458.5 57.5 Q426 22 382.5 3.5 Q339 -15 288 -15 Q199 -15 137 36 L99 -13 L64 15 L105 68 Z M194 110 Q213 91 237 82 Q261 73 288 73 Q350 73 391 122 Q432 171 432 265 Q432 300 425 329 Q418 358 406 381 L194 110 Z M378 420 Q340 456 288 456 Q257 456 230.5 444 Q204 432 184 408 Q164 384 152.5 348.5 Q141 313 141 265 Q141 194 166 147 L378 420 Z " />
<glyph glyph-name="ugrave" unicode="&#xf9;" horiz-adv-x="576" d="M75 530 L172 530 L172 199 Q172 131 196.5 104 Q221 77 279 77 Q333 77 366 109 Q399 141 399 204 L399 530 L496 530 L496 0 L402 0 L402 51 L400 51 Q397 47 386.5 36 Q376 25 358.5 13.5 Q341 2 316 -6.5 Q291 -15 257 -15 Q168 -15 121.5 36.5 Q75 88 75 186 L75 530 Z M142 717 L255 717 L335 595 L251 595 L142 717 Z " />
<glyph glyph-name="uacute" unicode="&#xfa;" horiz-adv-x="576" d="M75 530 L172 530 L172 199 Q172 131 196.5 104 Q221 77 279 77 Q333 77 366 109 Q399 141 399 204 L399 530 L496 530 L496 0 L402 0 L402 51 L400 51 Q397 47 386.5 36 Q376 25 358.5 13.5 Q341 2 316 -6.5 Q291 -15 257 -15 Q168 -15 121.5 36.5 Q75 88 75 186 L75 530 Z M323 717 L436 717 L328 595 L244 595 L323 717 Z " />
<glyph glyph-name="ucircumflex" unicode="&#xfb;" horiz-adv-x="576" d="M75 530 L172 530 L172 199 Q172 131 196.5 104 Q221 77 279 77 Q333 77 366 109 Q399 141 399 204 L399 530 L496 530 L496 0 L402 0 L402 51 L400 51 Q397 47 386.5 36 Q376 25 358.5 13.5 Q341 2 316 -6.5 Q291 -15 257 -15 Q168 -15 121.5 36.5 Q75 88 75 186 L75 530 Z M231 710 L348 710 L415 624 L361 581 L290 671 L218 581 L164 624 L231 710 Z " />
<glyph glyph-name="udieresis" unicode="&#xfc;" horiz-adv-x="576" d="M75 530 L172 530 L172 199 Q172 131 196.5 104 Q221 77 279 77 Q333 77 366 109 Q399 141 399 204 L399 530 L496 530 L496 0 L402 0 L402 51 L400 51 Q397 47 386.5 36 Q376 25 358.5 13.5 Q341 2 316 -6.5 Q291 -15 257 -15 Q168 -15 121.5 36.5 Q75 88 75 186 L75 530 Z M144 705 L245 705 L245 606 L144 606 L144 705 Z M338 705 L440 705 L440 606 L338 606 L338 705 Z " />
<glyph glyph-name="yacute" unicode="&#xfd;" horiz-adv-x="521" d="M215 37 L15 530 L117 530 L262 151 L406 530 L506 530 L208 -225 L113 -225 L215 37 Z M304 717 L417 717 L309 595 L225 595 L304 717 Z " />
<glyph glyph-name="thorn" unicode="&#xfe;" horiz-adv-x="601" d="M80 730 L175 730 L175 476 L177 476 Q197 506 236 525.5 Q275 545 325 545 Q372 545 414 526 Q456 507 487.5 471 Q519 435 537.5 383 Q556 331 556 265 Q556 199 538 147 Q520 95 489 59 Q458 23 416.5 4 Q375 -15 327 -15 Q269 -15 233.5 4 Q198 23 179 46 L177 46 L177 -225 L80 -225 L80 730 Z M177 186 Q177 164 186.5 143.5 Q196 123 213 108 Q230 93 253.5 84 Q277 75 306 75 Q378 75 418.5 124 Q459 173 459 265 Q459 357 418.5 406 Q378 455 306 455 Q275 455 251 444.5 Q227 434 210.5 417 Q194 400 185.5 378.5 Q177 357 177 334 L177 186 Z " />
<glyph glyph-name="ydieresis" unicode="&#xff;" horiz-adv-x="521" d="M215 37 L15 530 L117 530 L262 151 L406 530 L506 530 L208 -225 L113 -225 L215 37 Z M115 705 L216 705 L216 606 L115 606 L115 705 Z M309 705 L411 705 L411 606 L309 606 L309 705 Z " />
<glyph glyph-name="Amacron" unicode="&#x100;" horiz-adv-x="631" d="M464 129 L164 129 L119 0 L15 0 L268 700 L364 700 L616 0 L510 0 L464 129 Z M194 215 L434 215 L315 556 L313 556 L194 215 Z M171 832 L459 832 L459 765 L171 765 L171 832 Z " />
<glyph glyph-name="amacron" unicode="&#x101;" horiz-adv-x="540" d="M385 56 L383 56 Q380 49 369 37 Q358 25 339 13.5 Q320 2 292 -6.5 Q264 -15 227 -15 Q179 -15 144.5 -2.5 Q110 10 88 31 Q66 52 55.5 80 Q45 108 45 138 Q45 172 55 197.5 Q65 223 86 242.5 Q107 262 141 276.5 Q175 291 223 303 Q263 313 291 321.5 Q319 330 336.5 339 Q354 348 362 360 Q370 372 370 388 Q370 417 346 438.5 Q322 460 266 460 Q236 460 214.5 452 Q193 444 179 430.5 Q165 417 156.5 398.5 Q148 380 143 360 L58 390 Q65 422 81 450.5 Q97 479 122.5 500 Q148 521 183.5 533 Q219 545 264 545 Q308 545 345.5 534.5 Q383 524 410.5 500.5 Q438 477 454 440 Q470 403 470 350 L470 0 L385 0 L385 56 Z M245 232 Q212 223 191 213.5 Q170 204 159 193 Q148 182 144 170 Q140 158 140 144 Q140 110 162.5 90.5 Q185 71 236 71 Q307 71 341 101.5 Q375 132 375 171 L375 290 L373 290 Q370 285 365 279 Q360 273 346.5 266 Q333 259 309 251 Q285 243 245 232 Z M129 687 L417 687 L417 620 L129 620 L129 687 Z " />
<glyph glyph-name="Abreve" unicode="&#x102;" horiz-adv-x="631" d="M464 129 L164 129 L119 0 L15 0 L268 700 L364 700 L616 0 L510 0 L464 129 Z M194 215 L434 215 L315 556 L313 556 L194 215 Z M239 877 Q242 855 260.5 838.5 Q279 822 316 822 Q352 822 370 838.5 Q388 855 391 877 L443 877 Q443 820 407.5 787.5 Q372 755 316 755 Q259 755 223.5 787.5 Q188 820 188 877 L239 877 Z " />
<glyph glyph-name="abreve" unicode="&#x103;" horiz-adv-x="540" d="M385 56 L383 56 Q380 49 369 37 Q358 25 339 13.5 Q320 2 292 -6.5 Q264 -15 227 -15 Q179 -15 144.5 -2.5 Q110 10 88 31 Q66 52 55.5 80 Q45 108 45 138 Q45 172 55 197.5 Q65 223 86 242.5 Q107 262 141 276.5 Q175 291 223 303 Q263 313 291 321.5 Q319 330 336.5 339 Q354 348 362 360 Q370 372 370 388 Q370 417 346 438.5 Q322 460 266 460 Q236 460 214.5 452 Q193 444 179 430.5 Q165 417 156.5 398.5 Q148 380 143 360 L58 390 Q65 422 81 450.5 Q97 479 122.5 500 Q148 521 183.5 533 Q219 545 264 545 Q308 545 345.5 534.5 Q383 524 410.5 500.5 Q438 477 454 440 Q470 403 470 350 L470 0 L385 0 L385 56 Z M245 232 Q212 223 191 213.5 Q170 204 159 193 Q148 182 144 170 Q140 158 140 144 Q140 110 162.5 90.5 Q185 71 236 71 Q307 71 341 101.5 Q375 132 375 171 L375 290 L373 290 Q370 285 365 279 Q360 273 346.5 266 Q333 259 309 251 Q285 243 245 232 Z M196 707 Q199 685 217.5 668.5 Q236 652 273 652 Q309 652 327 668.5 Q345 685 348 707 L400 707 Q400 650 364.5 617.5 Q329 585 273 585 Q216 585 180.5 617.5 Q145 650 145 707 L196 707 Z " />
<glyph glyph-name="Aogonek" unicode="&#x104;" horiz-adv-x="631" d="M464 129 L164 129 L119 0 L15 0 L268 700 L364 700 L616 0 L510 0 L464 129 Z M194 215 L434 215 L315 556 L313 556 L194 215 Z M680 -148 Q648 -186 617.5 -199.5 Q587 -213 556 -213 Q538 -213 520.5 -209.5 Q503 -206 488.5 -198 Q474 -190 465 -175.5 Q456 -161 456 -140 Q456 -118 464.5 -98 Q473 -78 486.5 -60 Q500 -42 518 -27 Q536 -12 555 0 L616 0 Q571 -40 553.5 -67.5 Q536 -95 536 -117 Q536 -135 548 -144 Q560 -153 579 -153 Q601 -153 618 -141 Q635 -129 646 -117 L680 -148 Z " />
<glyph glyph-name="aogonek" unicode="&#x105;" horiz-adv-x="540" d="M385 56 L383 56 Q380 49 369 37 Q358 25 339 13.5 Q320 2 292 -6.5 Q264 -15 227 -15 Q179 -15 144.5 -2.5 Q110 10 88 31 Q66 52 55.5 80 Q45 108 45 138 Q45 172 55 197.5 Q65 223 86 242.5 Q107 262 141 276.5 Q175 291 223 303 Q263 313 291 321.5 Q319 330 336.5 339 Q354 348 362 360 Q370 372 370 388 Q370 417 346 438.5 Q322 460 266 460 Q236 460 214.5 452 Q193 444 179 430.5 Q165 417 156.5 398.5 Q148 380 143 360 L58 390 Q65 422 81 450.5 Q97 479 122.5 500 Q148 521 183.5 533 Q219 545 264 545 Q308 545 345.5 534.5 Q383 524 410.5 500.5 Q438 477 454 440 Q470 403 470 350 L470 0 L385 0 L385 56 Z M245 232 Q212 223 191 213.5 Q170 204 159 193 Q148 182 144 170 Q140 158 140 144 Q140 110 162.5 90.5 Q185 71 236 71 Q307 71 341 101.5 Q375 132 375 171 L375 290 L373 290 Q370 285 365 279 Q360 273 346.5 266 Q333 259 309 251 Q285 243 245 232 Z M534 -148 Q502 -186 471.5 -199.5 Q441 -213 410 -213 Q392 -213 374.5 -209.5 Q357 -206 342.5 -198 Q328 -190 319 -175.5 Q310 -161 310 -140 Q310 -118 318.5 -98 Q327 -78 340.5 -60 Q354 -42 372 -27 Q390 -12 409 0 L470 0 Q425 -40 407.5 -67.5 Q390 -95 390 -117 Q390 -135 402 -144 Q414 -153 433 -153 Q455 -153 472 -141 Q489 -129 500 -117 L534 -148 Z " />
<glyph glyph-name="Cacute" unicode="&#x106;" horiz-adv-x="665" d="M349 -15 Q292 -15 238 5.5 Q184 26 142 70 Q100 114 75 185 Q50 256 50 356 Q50 446 75 513.5 Q100 581 142 626 Q184 671 238 693 Q292 715 349 715 Q405 715 451.5 697.5 Q498 680 533 648 Q568 616 590 570 Q612 524 619 468 L517 451 Q512 484 500.5 515 Q489 546 469 569.5 Q449 593 419.5 607 Q390 621 349 621 Q310 621 275 605.5 Q240 590 213 557.5 Q186 525 170.5 475 Q155 425 155 356 Q155 283 170 231 Q185 179 211.5 145 Q238 111 273.5 95 Q309 79 349 79 Q391 79 420.5 94 Q450 109 469.5 134.5 Q489 160 499 194.5 Q509 229 513 267 L620 250 Q615 189 594 140 Q573 91 538.5 56.5 Q504 22 456 3.5 Q408 -15 349 -15 Z M388 887 L501 887 L393 765 L309 765 L388 887 Z " />
<glyph glyph-name="cacute" unicode="&#x107;" horiz-adv-x="553" d="M513 183 Q499 92 441 38.5 Q383 -15 287 -15 Q235 -15 190.5 3.5 Q146 22 114 58 Q82 94 63.5 146 Q45 198 45 265 Q45 333 64.5 385 Q84 437 117.5 472.5 Q151 508 195 526.5 Q239 545 288 545 Q334 545 372.5 530.5 Q411 516 440 490 Q469 464 487 428 Q505 392 510 349 L415 334 Q411 358 402 380 Q393 402 377.5 419 Q362 436 340 446 Q318 456 288 456 Q222 456 181.5 407 Q141 358 141 265 Q141 173 180.5 123 Q220 73 289 73 Q319 73 341 84 Q363 95 378.5 114 Q394 133 403 157 Q412 181 416 207 L513 183 Z M315 717 L428 717 L320 595 L236 595 L315 717 Z " />
<glyph glyph-name="Ccircumflex" unicode="&#x108;" horiz-adv-x="665" d="M349 -15 Q292 -15 238 5.5 Q184 26 142 70 Q100 114 75 185 Q50 256 50 356 Q50 446 75 513.5 Q100 581 142 626 Q184 671 238 693 Q292 715 349 715 Q405 715 451.5 697.5 Q498 680 533 648 Q568 616 590 570 Q612 524 619 468 L517 451 Q512 484 500.5 515 Q489 546 469 569.5 Q449 593 419.5 607 Q390 621 349 621 Q310 621 275 605.5 Q240 590 213 557.5 Q186 525 170.5 475 Q155 425 155 356 Q155 283 170 231 Q185 179 211.5 145 Q238 111 273.5 95 Q309 79 349 79 Q391 79 420.5 94 Q450 109 469.5 134.5 Q489 160 499 194.5 Q509 229 513 267 L620 250 Q615 189 594 140 Q573 91 538.5 56.5 Q504 22 456 3.5 Q408 -15 349 -15 Z M288 875 L405 875 L472 790 L418 747 L347 837 L275 747 L221 790 L288 875 Z " />
<glyph glyph-name="ccircumflex" unicode="&#x109;" horiz-adv-x="553" d="M513 183 Q499 92 441 38.5 Q383 -15 287 -15 Q235 -15 190.5 3.5 Q146 22 114 58 Q82 94 63.5 146 Q45 198 45 265 Q45 333 64.5 385 Q84 437 117.5 472.5 Q151 508 195 526.5 Q239 545 288 545 Q334 545 372.5 530.5 Q411 516 440 490 Q469 464 487 428 Q505 392 510 349 L415 334 Q411 358 402 380 Q393 402 377.5 419 Q362 436 340 446 Q318 456 288 456 Q222 456 181.5 407 Q141 358 141 265 Q141 173 180.5 123 Q220 73 289 73 Q319 73 341 84 Q363 95 378.5 114 Q394 133 403 157 Q412 181 416 207 L513 183 Z M223 710 L340 710 L407 624 L353 581 L282 671 L210 581 L156 624 L223 710 Z " />
<glyph glyph-name="Cdotaccent" unicode="&#x10a;" horiz-adv-x="665" d="M349 -15 Q292 -15 238 5.5 Q184 26 142 70 Q100 114 75 185 Q50 256 50 356 Q50 446 75 513.5 Q100 581 142 626 Q184 671 238 693 Q292 715 349 715 Q405 715 451.5 697.5 Q498 680 533 648 Q568 616 590 570 Q612 524 619 468 L517 451 Q512 484 500.5 515 Q489 546 469 569.5 Q449 593 419.5 607 Q390 621 349 621 Q310 621 275 605.5 Q240 590 213 557.5 Q186 525 170.5 475 Q155 425 155 356 Q155 283 170 231 Q185 179 211.5 145 Q238 111 273.5 95 Q309 79 349 79 Q391 79 420.5 94 Q450 109 469.5 134.5 Q489 160 499 194.5 Q509 229 513 267 L620 250 Q615 189 594 140 Q573 91 538.5 56.5 Q504 22 456 3.5 Q408 -15 349 -15 Z M290 870 L398 870 L398 765 L290 765 L290 870 Z " />
<glyph glyph-name="cdotaccent" unicode="&#x10b;" horiz-adv-x="553" d="M513 183 Q499 92 441 38.5 Q383 -15 287 -15 Q235 -15 190.5 3.5 Q146 22 114 58 Q82 94 63.5 146 Q45 198 45 265 Q45 333 64.5 385 Q84 437 117.5 472.5 Q151 508 195 526.5 Q239 545 288 545 Q334 545 372.5 530.5 Q411 516 440 490 Q469 464 487 428 Q505 392 510 349 L415 334 Q411 358 402 380 Q393 402 377.5 419 Q362 436 340 446 Q318 456 288 456 Q222 456 181.5 407 Q141 358 141 265 Q141 173 180.5 123 Q220 73 289 73 Q319 73 341 84 Q363 95 378.5 114 Q394 133 403 157 Q412 181 416 207 L513 183 Z M230 709 L338 709 L338 603 L230 603 L230 709 Z " />
<glyph glyph-name="Ccaron" unicode="&#x10c;" horiz-adv-x="665" d="M349 -15 Q292 -15 238 5.5 Q184 26 142 70 Q100 114 75 185 Q50 256 50 356 Q50 446 75 513.5 Q100 581 142 626 Q184 671 238 693 Q292 715 349 715 Q405 715 451.5 697.5 Q498 680 533 648 Q568 616 590 570 Q612 524 619 468 L517 451 Q512 484 500.5 515 Q489 546 469 569.5 Q449 593 419.5 607 Q390 621 349 621 Q310 621 275 605.5 Q240 590 213 557.5 Q186 525 170.5 475 Q155 425 155 356 Q155 283 170 231 Q185 179 211.5 145 Q238 111 273.5 95 Q309 79 349 79 Q391 79 420.5 94 Q450 109 469.5 134.5 Q489 160 499 194.5 Q509 229 513 267 L620 250 Q615 189 594 140 Q573 91 538.5 56.5 Q504 22 456 3.5 Q408 -15 349 -15 Z M222 850 L275 893 L347 803 L418 893 L473 850 L406 765 L288 765 L222 850 Z " />
<glyph glyph-name="ccaron" unicode="&#x10d;" horiz-adv-x="553" d="M513 183 Q499 92 441 38.5 Q383 -15 287 -15 Q235 -15 190.5 3.5 Q146 22 114 58 Q82 94 63.5 146 Q45 198 45 265 Q45 333 64.5 385 Q84 437 117.5 472.5 Q151 508 195 526.5 Q239 545 288 545 Q334 545 372.5 530.5 Q411 516 440 490 Q469 464 487 428 Q505 392 510 349 L415 334 Q411 358 402 380 Q393 402 377.5 419 Q362 436 340 446 Q318 456 288 456 Q222 456 181.5 407 Q141 358 141 265 Q141 173 180.5 123 Q220 73 289 73 Q319 73 341 84 Q363 95 378.5 114 Q394 133 403 157 Q412 181 416 207 L513 183 Z M159 679 L212 722 L284 632 L355 722 L410 679 L343 594 L225 594 L159 679 Z " />
<glyph glyph-name="Dcaron" unicode="&#x10e;" horiz-adv-x="662" d="M303 92 Q349 92 387 105 Q425 118 452 148 Q479 178 494 227.5 Q509 277 509 351 Q509 482 453.5 544.5 Q398 607 309 607 L190 607 L190 92 L303 92 Z M90 700 L314 700 Q372 700 426.5 679.5 Q481 659 523.5 616.5 Q566 574 591.5 508 Q617 442 617 351 Q617 251 590.5 183.5 Q564 116 520.5 75 Q477 34 421.5 17 Q366 0 308 0 L90 0 L90 700 Z M158 850 L211 893 L283 803 L354 893 L409 850 L342 765 L224 765 L158 850 Z " />
<glyph glyph-name="dcaron" unicode="&#x10f;" horiz-adv-x="621" d="M419 331 Q419 354 410.5 376.5 Q402 399 385.5 416.5 Q369 434 345 445 Q321 456 290 456 Q218 456 180 406.5 Q142 357 142 265 Q142 173 180 123 Q218 73 290 73 Q319 73 343 82.5 Q367 92 384 108 Q401 124 410 145 Q419 166 419 189 L419 331 Z M427 51 L425 51 Q419 45 407 33.5 Q395 22 376.5 11.5 Q358 1 332.5 -7 Q307 -15 275 -15 Q223 -15 180.5 5 Q138 25 108 61.5 Q78 98 61.5 149.5 Q45 201 45 265 Q45 331 63.5 383 Q82 435 113 471 Q144 507 186 526 Q228 545 274 545 Q304 545 327.5 537.5 Q351 530 368.5 519.5 Q386 509 398 498 Q410 487 417 479 L419 479 L419 730 L516 730 L516 0 L427 0 L427 51 Z M584 730 L671 730 L616 574 L554 574 L584 730 Z " />
<glyph glyph-name="Dcroat" unicode="&#x110;" horiz-adv-x="675" d="M98 323 L30 323 L30 408 L98 408 L98 700 L332 700 Q391 700 445.5 679.5 Q500 659 542 616.5 Q584 574 609.5 508 Q635 442 635 351 Q635 251 609 183.5 Q583 116 539.5 75 Q496 34 440.5 17 Q385 0 326 0 L98 0 L98 323 Z M321 92 Q367 92 405 105 Q443 118 470.5 148 Q498 178 513 227.5 Q528 277 528 351 Q528 418 513.5 466.5 Q499 515 472.5 546 Q446 577 409 592 Q372 607 327 607 L198 607 L198 408 L367 408 L367 323 L198 323 L198 92 L321 92 Z " />
<glyph glyph-name="dcroat" unicode="&#x111;" horiz-adv-x="601" d="M427 51 L425 51 Q419 45 407 33.5 Q395 22 376.5 11.5 Q358 1 332.5 -7 Q307 -15 275 -15 Q223 -15 180.5 5 Q138 25 108 61.5 Q78 98 61.5 149.5 Q45 201 45 265 Q45 329 62 380.5 Q79 432 110 468.5 Q141 505 183 525 Q225 545 275 545 Q305 545 328.5 537.5 Q352 530 369.5 519.5 Q387 509 398.5 498 Q410 487 417 479 L419 479 L419 630 L294 630 L294 700 L419 700 L419 730 L516 730 L516 700 L576 700 L576 630 L516 630 L516 0 L427 0 L427 51 Z M419 331 Q419 354 410.5 376 Q402 398 385.5 415.5 Q369 433 345 444 Q321 455 290 455 Q218 455 180 406 Q142 357 142 265 Q142 173 180 124 Q218 75 290 75 Q319 75 343 84 Q367 93 384 109 Q401 125 410 145.5 Q419 166 419 189 L419 331 Z " />
<glyph glyph-name="Emacron" unicode="&#x112;" horiz-adv-x="583" d="M90 700 L518 700 L518 607 L190 607 L190 404 L490 404 L490 315 L190 315 L190 92 L518 92 L518 0 L90 0 L90 700 Z M161 832 L449 832 L449 765 L161 765 L161 832 Z " />
<glyph glyph-name="emacron" unicode="&#x113;" horiz-adv-x="573" d="M513 114 Q499 89 479 65.5 Q459 42 431.5 24 Q404 6 369.5 -4.5 Q335 -15 293 -15 Q239 -15 193.5 4.5 Q148 24 115 60.5 Q82 97 63.5 149 Q45 201 45 265 Q45 330 63.5 381.5 Q82 433 114.5 469.5 Q147 506 191.5 525.5 Q236 545 288 545 Q340 545 384 526 Q428 507 460 471 Q492 435 510 383 Q528 331 528 265 L528 236 L144 236 Q145 202 154.5 172.5 Q164 143 182 120.5 Q200 98 227.5 85 Q255 72 291 72 Q326 72 350.5 82 Q375 92 392.5 107 Q410 122 421 139 Q432 156 440 169 L513 114 Z M431 312 Q430 339 421.5 365.5 Q413 392 396 412.5 Q379 433 352.5 445.5 Q326 458 288 458 Q251 458 224.5 444 Q198 430 180.5 408.5 Q163 387 154.5 361 Q146 335 145 312 L431 312 Z M154 687 L442 687 L442 620 L154 620 L154 687 Z " />
<glyph glyph-name="Ebreve" unicode="&#x114;" horiz-adv-x="583" d="M90 700 L518 700 L518 607 L190 607 L190 404 L490 404 L490 315 L190 315 L190 92 L518 92 L518 0 L90 0 L90 700 Z M237 877 Q240 855 258.5 838.5 Q277 822 314 822 Q350 822 368 838.5 Q386 855 389 877 L441 877 Q441 820 405.5 787.5 Q370 755 314 755 Q257 755 221.5 787.5 Q186 820 186 877 L237 877 Z " />
<glyph glyph-name="ebreve" unicode="&#x115;" horiz-adv-x="573" d="M513 114 Q499 89 479 65.5 Q459 42 431.5 24 Q404 6 369.5 -4.5 Q335 -15 293 -15 Q239 -15 193.5 4.5 Q148 24 115 60.5 Q82 97 63.5 149 Q45 201 45 265 Q45 330 63.5 381.5 Q82 433 114.5 469.5 Q147 506 191.5 525.5 Q236 545 288 545 Q340 545 384 526 Q428 507 460 471 Q492 435 510 383 Q528 331 528 265 L528 236 L144 236 Q145 202 154.5 172.5 Q164 143 182 120.5 Q200 98 227.5 85 Q255 72 291 72 Q326 72 350.5 82 Q375 92 392.5 107 Q410 122 421 139 Q432 156 440 169 L513 114 Z M431 312 Q430 339 421.5 365.5 Q413 392 396 412.5 Q379 433 352.5 445.5 Q326 458 288 458 Q251 458 224.5 444 Q198 430 180.5 408.5 Q163 387 154.5 361 Q146 335 145 312 L431 312 Z M221 707 Q224 685 242.5 668.5 Q261 652 298 652 Q334 652 352 668.5 Q370 685 373 707 L425 707 Q425 650 389.5 617.5 Q354 585 298 585 Q241 585 205.5 617.5 Q170 650 170 707 L221 707 Z " />
<glyph glyph-name="Edotaccent" unicode="&#x116;" horiz-adv-x="583" d="M90 700 L518 700 L518 607 L190 607 L190 404 L490 404 L490 315 L190 315 L190 92 L518 92 L518 0 L90 0 L90 700 Z M259 870 L367 870 L367 765 L259 765 L259 870 Z " />
<glyph glyph-name="edotaccent" unicode="&#x117;" horiz-adv-x="573" d="M513 114 Q499 89 479 65.5 Q459 42 431.5 24 Q404 6 369.5 -4.5 Q335 -15 293 -15 Q239 -15 193.5 4.5 Q148 24 115 60.5 Q82 97 63.5 149 Q45 201 45 265 Q45 330 63.5 381.5 Q82 433 114.5 469.5 Q147 506 191.5 525.5 Q236 545 288 545 Q340 545 384 526 Q428 507 460 471 Q492 435 510 383 Q528 331 528 265 L528 236 L144 236 Q145 202 154.5 172.5 Q164 143 182 120.5 Q200 98 227.5 85 Q255 72 291 72 Q326 72 350.5 82 Q375 92 392.5 107 Q410 122 421 139 Q432 156 440 169 L513 114 Z M431 312 Q430 339 421.5 365.5 Q413 392 396 412.5 Q379 433 352.5 445.5 Q326 458 288 458 Q251 458 224.5 444 Q198 430 180.5 408.5 Q163 387 154.5 361 Q146 335 145 312 L431 312 Z M246 709 L354 709 L354 603 L246 603 L246 709 Z " />
<glyph glyph-name="Eogonek" unicode="&#x118;" horiz-adv-x="583" d="M90 700 L518 700 L518 607 L190 607 L190 404 L490 404 L490 315 L190 315 L190 92 L518 92 L518 0 L90 0 L90 700 Z M512 -148 Q480 -186 449.5 -199.5 Q419 -213 388 -213 Q370 -213 352.5 -209.5 Q335 -206 320.5 -198 Q306 -190 297 -175.5 Q288 -161 288 -140 Q288 -118 296.5 -98 Q305 -78 318.5 -60 Q332 -42 350 -27 Q368 -12 387 0 L448 0 Q403 -40 385.5 -67.5 Q368 -95 368 -117 Q368 -135 380 -144 Q392 -153 411 -153 Q433 -153 450 -141 Q467 -129 478 -117 L512 -148 Z " />
<glyph glyph-name="eogonek" unicode="&#x119;" horiz-adv-x="573" d="M513 114 Q499 89 479 65.5 Q459 42 431.5 24 Q404 6 369.5 -4.5 Q335 -15 293 -15 Q239 -15 193.5 4.5 Q148 24 115 60.5 Q82 97 63.5 149 Q45 201 45 265 Q45 330 63.5 381.5 Q82 433 114.5 469.5 Q147 506 191.5 525.5 Q236 545 288 545 Q340 545 384 526 Q428 507 460 471 Q492 435 510 383 Q528 331 528 265 L528 236 L144 236 Q145 202 154.5 172.5 Q164 143 182 120.5 Q200 98 227.5 85 Q255 72 291 72 Q326 72 350.5 82 Q375 92 392.5 107 Q410 122 421 139 Q432 156 440 169 L513 114 Z M431 312 Q430 339 421.5 365.5 Q413 392 396 412.5 Q379 433 352.5 445.5 Q326 458 288 458 Q251 458 224.5 444 Q198 430 180.5 408.5 Q163 387 154.5 361 Q146 335 145 312 L431 312 Z M425 -148 Q393 -186 362.5 -199.5 Q332 -213 301 -213 Q283 -213 265.5 -209.5 Q248 -206 233.5 -198 Q219 -190 210 -175.5 Q201 -161 201 -140 Q201 -118 209.5 -98 Q218 -78 231.5 -60 Q245 -42 263 -27 Q281 -12 300 0 L361 0 Q316 -40 298.5 -67.5 Q281 -95 281 -117 Q281 -135 293 -144 Q305 -153 324 -153 Q346 -153 363 -141 Q380 -129 391 -117 L425 -148 Z " />
<glyph glyph-name="Ecaron" unicode="&#x11a;" horiz-adv-x="583" d="M90 700 L518 700 L518 607 L190 607 L190 404 L490 404 L490 315 L190 315 L190 92 L518 92 L518 0 L90 0 L90 700 Z M185 850 L238 893 L310 803 L381 893 L436 850 L369 765 L251 765 L185 850 Z " />
<glyph glyph-name="ecaron" unicode="&#x11b;" horiz-adv-x="573" d="M513 114 Q499 89 479 65.5 Q459 42 431.5 24 Q404 6 369.5 -4.5 Q335 -15 293 -15 Q239 -15 193.5 4.5 Q148 24 115 60.5 Q82 97 63.5 149 Q45 201 45 265 Q45 330 63.5 381.5 Q82 433 114.5 469.5 Q147 506 191.5 525.5 Q236 545 288 545 Q340 545 384 526 Q428 507 460 471 Q492 435 510 383 Q528 331 528 265 L528 236 L144 236 Q145 202 154.5 172.5 Q164 143 182 120.5 Q200 98 227.5 85 Q255 72 291 72 Q326 72 350.5 82 Q375 92 392.5 107 Q410 122 421 139 Q432 156 440 169 L513 114 Z M431 312 Q430 339 421.5 365.5 Q413 392 396 412.5 Q379 433 352.5 445.5 Q326 458 288 458 Q251 458 224.5 444 Q198 430 180.5 408.5 Q163 387 154.5 361 Q146 335 145 312 L431 312 Z M174 679 L227 722 L299 632 L370 722 L425 679 L358 594 L240 594 L174 679 Z " />
<glyph glyph-name="Gcircumflex" unicode="&#x11c;" horiz-adv-x="667" d="M349 -15 Q289 -15 235 5.5 Q181 26 140 71 Q99 116 74.5 187 Q50 258 50 358 Q50 447 75 514 Q100 581 142 625.5 Q184 670 237.5 692.5 Q291 715 348 715 Q400 715 445 698.5 Q490 682 524.5 651 Q559 620 582 577.5 Q605 535 613 482 L511 464 Q505 496 493 524 Q481 552 461.5 574 Q442 596 414.5 608.5 Q387 621 349 621 Q310 621 274.5 605 Q239 589 212.5 556.5 Q186 524 170 474.5 Q154 425 154 358 Q154 286 169.5 233 Q185 180 211 146 Q237 112 273 95.5 Q309 79 349 79 Q429 79 474.5 126.5 Q520 174 519 261 L358 261 L358 350 L617 350 L617 274 Q617 205 597 151 Q577 97 541.5 60.5 Q506 24 457 4.5 Q408 -15 349 -15 Z M282 875 L399 875 L466 790 L412 747 L341 837 L269 747 L215 790 L282 875 Z " />
<glyph glyph-name="gcircumflex" unicode="&#x11d;" horiz-adv-x="596" d="M162 -55 Q171 -76 182.5 -94 Q194 -112 209.5 -125.5 Q225 -139 246.5 -146.5 Q268 -154 297 -154 Q356 -154 390 -120.5 Q424 -87 424 -22 L424 47 L422 47 Q405 25 369.5 5 Q334 -15 280 -15 Q229 -15 186 4 Q143 23 111.5 59 Q80 95 62.5 147 Q45 199 45 265 Q45 331 63.5 383 Q82 435 114 471 Q146 507 188.5 526 Q231 545 279 545 Q330 545 366 526 Q402 507 425 479 L427 479 L427 530 L521 530 L521 -5 Q521 -64 505 -108 Q489 -152 459.5 -181.5 Q430 -211 389 -225.5 Q348 -240 298 -240 Q213 -240 159.5 -200 Q106 -160 84 -100 L162 -55 Z M424 334 Q424 357 415.5 378.5 Q407 400 390.5 417.5 Q374 435 350 445.5 Q326 456 295 456 Q223 456 182.5 406.5 Q142 357 142 265 Q142 173 182.5 123 Q223 73 295 73 Q324 73 347.5 82 Q371 91 388 107 Q405 123 414.5 143.5 Q424 164 424 186 L424 334 Z M248 710 L365 710 L432 624 L378 581 L307 671 L235 581 L181 624 L248 710 Z " />
<glyph glyph-name="Gbreve" unicode="&#x11e;" horiz-adv-x="667" d="M349 -15 Q289 -15 235 5.5 Q181 26 140 71 Q99 116 74.5 187 Q50 258 50 358 Q50 447 75 514 Q100 581 142 625.5 Q184 670 237.5 692.5 Q291 715 348 715 Q400 715 445 698.5 Q490 682 524.5 651 Q559 620 582 577.5 Q605 535 613 482 L511 464 Q505 496 493 524 Q481 552 461.5 574 Q442 596 414.5 608.5 Q387 621 349 621 Q310 621 274.5 605 Q239 589 212.5 556.5 Q186 524 170 474.5 Q154 425 154 358 Q154 286 169.5 233 Q185 180 211 146 Q237 112 273 95.5 Q309 79 349 79 Q429 79 474.5 126.5 Q520 174 519 261 L358 261 L358 350 L617 350 L617 274 Q617 205 597 151 Q577 97 541.5 60.5 Q506 24 457 4.5 Q408 -15 349 -15 Z M257 877 Q260 855 278.5 838.5 Q297 822 334 822 Q370 822 388 838.5 Q406 855 409 877 L461 877 Q461 820 425.5 787.5 Q390 755 334 755 Q277 755 241.5 787.5 Q206 820 206 877 L257 877 Z " />
<glyph glyph-name="gbreve" unicode="&#x11f;" horiz-adv-x="596" d="M162 -55 Q171 -76 182.5 -94 Q194 -112 209.5 -125.5 Q225 -139 246.5 -146.5 Q268 -154 297 -154 Q356 -154 390 -120.5 Q424 -87 424 -22 L424 47 L422 47 Q405 25 369.5 5 Q334 -15 280 -15 Q229 -15 186 4 Q143 23 111.5 59 Q80 95 62.5 147 Q45 199 45 265 Q45 331 63.5 383 Q82 435 114 471 Q146 507 188.5 526 Q231 545 279 545 Q330 545 366 526 Q402 507 425 479 L427 479 L427 530 L521 530 L521 -5 Q521 -64 505 -108 Q489 -152 459.5 -181.5 Q430 -211 389 -225.5 Q348 -240 298 -240 Q213 -240 159.5 -200 Q106 -160 84 -100 L162 -55 Z M424 334 Q424 357 415.5 378.5 Q407 400 390.5 417.5 Q374 435 350 445.5 Q326 456 295 456 Q223 456 182.5 406.5 Q142 357 142 265 Q142 173 182.5 123 Q223 73 295 73 Q324 73 347.5 82 Q371 91 388 107 Q405 123 414.5 143.5 Q424 164 424 186 L424 334 Z M229 707 Q232 685 250.5 668.5 Q269 652 306 652 Q342 652 360 668.5 Q378 685 381 707 L433 707 Q433 650 397.5 617.5 Q362 585 306 585 Q249 585 213.5 617.5 Q178 650 178 707 L229 707 Z " />
<glyph glyph-name="Gdotaccent" unicode="&#x120;" horiz-adv-x="667" d="M349 -15 Q289 -15 235 5.5 Q181 26 140 71 Q99 116 74.5 187 Q50 258 50 358 Q50 447 75 514 Q100 581 142 625.5 Q184 670 237.5 692.5 Q291 715 348 715 Q400 715 445 698.5 Q490 682 524.5 651 Q559 620 582 577.5 Q605 535 613 482 L511 464 Q505 496 493 524 Q481 552 461.5 574 Q442 596 414.5 608.5 Q387 621 349 621 Q310 621 274.5 605 Q239 589 212.5 556.5 Q186 524 170 474.5 Q154 425 154 358 Q154 286 169.5 233 Q185 180 211 146 Q237 112 273 95.5 Q309 79 349 79 Q429 79 474.5 126.5 Q520 174 519 261 L358 261 L358 350 L617 350 L617 274 Q617 205 597 151 Q577 97 541.5 60.5 Q506 24 457 4.5 Q408 -15 349 -15 Z M287 870 L395 870 L395 765 L287 765 L287 870 Z " />
<glyph glyph-name="gdotaccent" unicode="&#x121;" horiz-adv-x="596" d="M162 -55 Q171 -76 182.5 -94 Q194 -112 209.5 -125.5 Q225 -139 246.5 -146.5 Q268 -154 297 -154 Q356 -154 390 -120.5 Q424 -87 424 -22 L424 47 L422 47 Q405 25 369.5 5 Q334 -15 280 -15 Q229 -15 186 4 Q143 23 111.5 59 Q80 95 62.5 147 Q45 199 45 265 Q45 331 63.5 383 Q82 435 114 471 Q146 507 188.5 526 Q231 545 279 545 Q330 545 366 526 Q402 507 425 479 L427 479 L427 530 L521 530 L521 -5 Q521 -64 505 -108 Q489 -152 459.5 -181.5 Q430 -211 389 -225.5 Q348 -240 298 -240 Q213 -240 159.5 -200 Q106 -160 84 -100 L162 -55 Z M424 334 Q424 357 415.5 378.5 Q407 400 390.5 417.5 Q374 435 350 445.5 Q326 456 295 456 Q223 456 182.5 406.5 Q142 357 142 265 Q142 173 182.5 123 Q223 73 295 73 Q324 73 347.5 82 Q371 91 388 107 Q405 123 414.5 143.5 Q424 164 424 186 L424 334 Z M251 709 L359 709 L359 603 L251 603 L251 709 Z " />
<glyph glyph-name="Gcommaaccent" unicode="&#x122;" horiz-adv-x="667" d="M349 -15 Q289 -15 235 5.5 Q181 26 140 71 Q99 116 74.5 187 Q50 258 50 358 Q50 447 75 514 Q100 581 142 625.5 Q184 670 237.5 692.5 Q291 715 348 715 Q400 715 445 698.5 Q490 682 524.5 651 Q559 620 582 577.5 Q605 535 613 482 L511 464 Q505 496 493 524 Q481 552 461.5 574 Q442 596 414.5 608.5 Q387 621 349 621 Q310 621 274.5 605 Q239 589 212.5 556.5 Q186 524 170 474.5 Q154 425 154 358 Q154 286 169.5 233 Q185 180 211 146 Q237 112 273 95.5 Q309 79 349 79 Q429 79 474.5 126.5 Q520 174 519 261 L358 261 L358 350 L617 350 L617 274 Q617 205 597 151 Q577 97 541.5 60.5 Q506 24 457 4.5 Q408 -15 349 -15 Z M310 -201 Q339 -196 348.5 -184 Q358 -172 358 -149 L307 -149 L307 -51 L415 -51 L415 -135 Q415 -183 391.5 -210 Q368 -237 310 -241 L310 -201 Z " />
<glyph glyph-name="gcommaaccent" unicode="&#x123;" horiz-adv-x="596" d="M162 -55 Q171 -76 182.5 -94 Q194 -112 209.5 -125.5 Q225 -139 246.5 -146.5 Q268 -154 297 -154 Q356 -154 390 -120.5 Q424 -87 424 -22 L424 47 L422 47 Q405 25 369.5 5 Q334 -15 280 -15 Q229 -15 186 4 Q143 23 111.5 59 Q80 95 62.5 147 Q45 199 45 265 Q45 331 63.5 383 Q82 435 114 471 Q146 507 188.5 526 Q231 545 279 545 Q330 545 366 526 Q402 507 425 479 L427 479 L427 530 L521 530 L521 -5 Q521 -64 505 -108 Q489 -152 459.5 -181.5 Q430 -211 389 -225.5 Q348 -240 298 -240 Q213 -240 159.5 -200 Q106 -160 84 -100 L162 -55 Z M424 334 Q424 357 415.5 378.5 Q407 400 390.5 417.5 Q374 435 350 445.5 Q326 456 295 456 Q223 456 182.5 406.5 Q142 357 142 265 Q142 173 182.5 123 Q223 73 295 73 Q324 73 347.5 82 Q371 91 388 107 Q405 123 414.5 143.5 Q424 164 424 186 L424 334 Z M352 750 Q329 746 321 733 Q313 720 313 700 L358 700 L358 599 L255 599 L255 685 Q255 726 276.5 753.5 Q298 781 352 785 L352 750 Z " />
<glyph glyph-name="Hcircumflex" unicode="&#x124;" horiz-adv-x="668" d="M90 700 L190 700 L190 405 L478 405 L478 700 L578 700 L578 0 L478 0 L478 318 L190 318 L190 0 L90 0 L90 700 Z M272 875 L389 875 L456 790 L402 747 L331 837 L259 747 L205 790 L272 875 Z " />
<glyph glyph-name="hcircumflex" unicode="&#x125;" horiz-adv-x="590" d="M80 730 L177 730 L177 477 L179 477 Q199 505 238.5 525 Q278 545 326 545 Q367 545 402 532 Q437 519 462 494 Q487 469 501 432.5 Q515 396 515 348 L515 0 L418 0 L418 324 Q418 382 390.5 418.5 Q363 455 303 455 Q246 455 211.5 421 Q177 387 177 333 L177 0 L80 0 L80 730 Z M278 710 L395 710 L462 624 L408 581 L337 671 L265 581 L211 624 L278 710 Z " />
<glyph glyph-name="Hbar" unicode="&#x126;" horiz-adv-x="678" d="M94 507 L45 507 L45 587 L94 587 L94 700 L194 700 L194 587 L483 587 L483 700 L583 700 L583 587 L633 587 L633 507 L583 507 L583 0 L483 0 L483 318 L194 318 L194 0 L94 0 L94 507 Z M483 405 L483 507 L194 507 L194 405 L483 405 Z " />
<glyph glyph-name="hbar" unicode="&#x127;" horiz-adv-x="578" d="M90 630 L25 630 L25 700 L90 700 L90 730 L187 730 L187 700 L312 700 L312 630 L187 630 L187 479 L189 479 Q209 507 245.5 526 Q282 545 326 545 Q367 545 401.5 531.5 Q436 518 461 492.5 Q486 467 499.5 430.5 Q513 394 513 348 L513 0 L416 0 L416 324 Q416 382 389.5 418.5 Q363 455 303 455 Q246 455 216.5 421 Q187 387 187 333 L187 0 L90 0 L90 630 Z " />
<glyph glyph-name="Itilde" unicode="&#x128;" horiz-adv-x="290" d="M95 700 L195 700 L195 0 L95 0 L95 700 Z M-15 765 Q-8 806 12.5 835 Q33 864 78 864 Q99 864 115 858 Q131 852 144.5 845 Q158 838 170 832 Q182 826 195 826 Q211 826 219 834.5 Q227 843 231 859 L283 859 Q276 819 255.5 789.5 Q235 760 190 760 Q169 760 153 766 Q137 772 123 779 Q109 786 97 792 Q85 798 72 798 Q44 798 36 765 L-15 765 Z " />
<glyph glyph-name="itilde" unicode="&#x129;" horiz-adv-x="255" d="M80 530 L175 530 L175 0 L80 0 L80 530 Z M-22 600 Q-15 641 5.5 670 Q26 699 71 699 Q92 699 108 693 Q124 687 137.5 680 Q151 673 163 667 Q175 661 188 661 Q204 661 212 669.5 Q220 678 224 694 L276 694 Q269 654 248.5 624.5 Q228 595 183 595 Q162 595 146 601 Q130 607 116 614 Q102 621 90 627 Q78 633 65 633 Q37 633 29 600 L-22 600 Z " />
<glyph glyph-name="Imacron" unicode="&#x12a;" horiz-adv-x="290" d="M95 700 L195 700 L195 0 L95 0 L95 700 Z M-10 832 L278 832 L278 765 L-10 765 L-10 832 Z " />
<glyph glyph-name="imacron" unicode="&#x12b;" horiz-adv-x="255" d="M80 530 L175 530 L175 0 L80 0 L80 530 Z M-17 687 L271 687 L271 620 L-17 620 L-17 687 Z " />
<glyph glyph-name="Ibreve" unicode="&#x12c;" horiz-adv-x="290" d="M95 700 L195 700 L195 0 L95 0 L95 700 Z M58 877 Q61 855 79.5 838.5 Q98 822 135 822 Q171 822 189 838.5 Q207 855 210 877 L262 877 Q262 820 226.5 787.5 Q191 755 135 755 Q78 755 42.5 787.5 Q7 820 7 877 L58 877 Z " />
<glyph glyph-name="ibreve" unicode="&#x12d;" horiz-adv-x="255" d="M80 530 L175 530 L175 0 L80 0 L80 530 Z M51 707 Q54 685 72.5 668.5 Q91 652 128 652 Q164 652 182 668.5 Q200 685 203 707 L255 707 Q255 650 219.5 617.5 Q184 585 128 585 Q71 585 35.5 617.5 Q0 650 0 707 L51 707 Z " />
<glyph glyph-name="Iogonek" unicode="&#x12e;" horiz-adv-x="290" d="M95 700 L195 700 L195 0 L95 0 L95 700 Z M259 -148 Q227 -186 196.5 -199.5 Q166 -213 135 -213 Q117 -213 99.5 -209.5 Q82 -206 67.5 -198 Q53 -190 44 -175.5 Q35 -161 35 -140 Q35 -118 43.5 -98 Q52 -78 65.5 -60 Q79 -42 97 -27 Q115 -12 134 0 L195 0 Q150 -40 132.5 -67.5 Q115 -95 115 -117 Q115 -135 127 -144 Q139 -153 158 -153 Q180 -153 197 -141 Q214 -129 225 -117 L259 -148 Z " />
<glyph glyph-name="iogonek" unicode="&#x12f;" horiz-adv-x="255" d="M84 530 L181 530 L181 0 L84 0 L84 530 Z M80 730 L185 730 L185 627 L80 627 L80 730 Z M245 -148 Q213 -186 182.5 -199.5 Q152 -213 121 -213 Q103 -213 85.5 -209.5 Q68 -206 53.5 -198 Q39 -190 30 -175.5 Q21 -161 21 -140 Q21 -118 29.5 -98 Q38 -78 51.5 -60 Q65 -42 83 -27 Q101 -12 120 0 L181 0 Q136 -40 118.5 -67.5 Q101 -95 101 -117 Q101 -135 113 -144 Q125 -153 144 -153 Q166 -153 183 -141 Q200 -129 211 -117 L245 -148 Z " />
<glyph glyph-name="Idotaccent" unicode="&#x130;" horiz-adv-x="290" d="M95 700 L195 700 L195 0 L95 0 L95 700 Z M82 870 L190 870 L190 765 L82 765 L82 870 Z " />
<glyph glyph-name="dotlessi" unicode="&#x131;" horiz-adv-x="255" d="M80 530 L175 530 L175 0 L80 0 L80 530 Z " />
<glyph glyph-name="IJ" unicode="&#x132;" horiz-adv-x="695" d="M95 700 L195 700 L195 0 L95 0 L95 700 Z M358 179 Q362 161 367.5 143.5 Q373 126 382 111.5 Q391 97 404.5 88 Q418 79 437 79 Q476 79 493 102.5 Q510 126 510 176 L510 700 L610 700 L610 179 Q610 76 563.5 30.5 Q517 -15 437 -15 Q399 -15 369 -2.5 Q339 10 316.5 32.5 Q294 55 280 85 Q266 115 260 150 L358 179 Z " />
<glyph glyph-name="ij" unicode="&#x133;" horiz-adv-x="497" d="M74 530 L171 530 L171 0 L74 0 L74 530 Z M70 730 L175 730 L175 627 L70 627 L70 730 Z M245 -103 L264 -103 Q285 -103 296 -92.5 Q307 -82 307 -51 L307 530 L404 530 L404 -59 Q404 -132 374.5 -163.5 Q345 -195 285 -195 L245 -195 L245 -103 Z M302 730 L407 730 L407 627 L302 627 L302 730 Z " />
<glyph glyph-name="Jcircumflex" unicode="&#x134;" horiz-adv-x="455" d="M118 179 Q122 161 127.5 143.5 Q133 126 142 111.5 Q151 97 164.5 88 Q178 79 197 79 Q236 79 253 102.5 Q270 126 270 176 L270 700 L370 700 L370 179 Q370 76 323.5 30.5 Q277 -15 197 -15 Q159 -15 129 -2.5 Q99 10 76.5 32.5 Q54 55 40 85 Q26 115 20 150 L118 179 Z M259 875 L376 875 L443 790 L389 747 L318 837 L246 747 L192 790 L259 875 Z " />
<glyph glyph-name="jcircumflex" unicode="&#x135;" horiz-adv-x="254" d="M20 -106 L39 -106 Q60 -106 71 -95 Q82 -84 82 -54 L82 530 L179 530 L179 -59 Q179 -132 149.5 -163.5 Q120 -195 60 -195 L20 -195 L20 -106 Z M70 710 L187 710 L254 624 L200 581 L129 671 L57 581 L3 624 L70 710 Z " />
<glyph glyph-name="Kcommaaccent" unicode="&#x136;" horiz-adv-x="608" d="M80 700 L180 700 L180 374 L183 374 L455 700 L579 700 L322 393 L608 0 L487 0 L253 321 L251 321 L180 234 L180 0 L80 0 L80 700 Z M260 -201 Q289 -196 298.5 -184 Q308 -172 308 -149 L257 -149 L257 -51 L365 -51 L365 -135 Q365 -183 341.5 -210 Q318 -237 260 -241 L260 -201 Z " />
<glyph glyph-name="kcommaaccent" unicode="&#x137;" horiz-adv-x="551" d="M80 730 L177 730 L177 295 L179 295 L393 530 L519 530 L327 318 L541 0 L429 0 L254 260 L252 260 L177 179 L177 0 L80 0 L80 730 Z M234 -201 Q263 -196 272.5 -184 Q282 -172 282 -149 L231 -149 L231 -51 L339 -51 L339 -135 Q339 -183 315.5 -210 Q292 -237 234 -241 L234 -201 Z " />
<glyph glyph-name="kgreenlandic" unicode="&#x138;" horiz-adv-x="551" d="M80 530 L177 530 L177 295 L393 530 L519 530 L327 318 L541 0 L429 0 L252 260 L177 179 L177 0 L80 0 L80 530 Z " />
<glyph glyph-name="Lacute" unicode="&#x139;" horiz-adv-x="514" d="M90 700 L190 700 L190 92 L489 92 L489 0 L90 0 L90 700 Z M165 887 L278 887 L170 765 L86 765 L165 887 Z " />
<glyph glyph-name="lacute" unicode="&#x13a;" horiz-adv-x="260" d="M80 730 L180 730 L180 0 L80 0 L80 730 Z M160 897 L273 897 L165 775 L81 775 L160 897 Z " />
<glyph glyph-name="Lcommaaccent" unicode="&#x13b;" horiz-adv-x="514" d="M90 700 L190 700 L190 92 L489 92 L489 0 L90 0 L90 700 Z M227 -201 Q256 -196 265.5 -184 Q275 -172 275 -149 L224 -149 L224 -51 L332 -51 L332 -135 Q332 -183 308.5 -210 Q285 -237 227 -241 L227 -201 Z " />
<glyph glyph-name="lcommaaccent" unicode="&#x13c;" horiz-adv-x="260" d="M80 730 L180 730 L180 0 L80 0 L80 730 Z M74 -201 Q103 -196 112.5 -184 Q122 -172 122 -149 L71 -149 L71 -51 L179 -51 L179 -135 Q179 -183 155.5 -210 Q132 -237 74 -241 L74 -201 Z " />
<glyph glyph-name="Lcaron" unicode="&#x13d;" horiz-adv-x="514" d="M90 700 L190 700 L190 92 L489 92 L489 0 L90 0 L90 700 Z M374 730 L461 730 L406 574 L344 574 L374 730 Z " />
<glyph glyph-name="lcaron" unicode="&#x13e;" horiz-adv-x="297" d="M80 730 L180 730 L180 0 L80 0 L80 730 Z M260 730 L347 730 L292 574 L230 574 L260 730 Z " />
<glyph glyph-name="Ldot" unicode="&#x13f;" horiz-adv-x="514" d="M90 700 L190 700 L190 92 L489 92 L489 0 L90 0 L90 700 Z M310 436 L437 436 L437 312 L310 312 L310 436 Z " />
<glyph glyph-name="ldot" unicode="&#x140;" horiz-adv-x="374" d="M80 730 L180 730 L180 0 L80 0 L80 730 Z M247 446 L374 446 L374 322 L247 322 L247 446 Z " />
<glyph glyph-name="Lslash" unicode="&#x141;" horiz-adv-x="561" d="M112 326 L42 256 L5 294 L112 401 L112 700 L212 700 L212 487 L323 598 L360 560 L212 412 L212 92 L536 92 L536 0 L112 0 L112 326 Z " />
<glyph glyph-name="lslash" unicode="&#x142;" horiz-adv-x="286" d="M94 366 L12 283 L-25 321 L94 441 L94 730 L192 730 L192 519 L274 602 L311 564 L192 444 L192 0 L94 0 L94 366 Z " />
<glyph glyph-name="Nacute" unicode="&#x143;" horiz-adv-x="687" d="M90 700 L193 700 L494 178 L496 178 L496 700 L597 700 L597 0 L496 0 L192 522 L190 522 L190 0 L90 0 L90 700 Z M379 887 L492 887 L384 765 L300 765 L379 887 Z " />
<glyph glyph-name="nacute" unicode="&#x144;" horiz-adv-x="588" d="M80 530 L175 530 L175 479 L177 479 Q197 506 237 525.5 Q277 545 322 545 Q409 545 461 493 Q513 441 513 347 L513 0 L415 0 L415 319 Q415 385 389 420 Q363 455 303 455 Q246 455 211.5 422.5 Q177 390 177 333 L177 0 L80 0 L80 530 Z M337 717 L450 717 L342 595 L258 595 L337 717 Z " />
<glyph glyph-name="Ncommaaccent" unicode="&#x145;" horiz-adv-x="687" d="M90 700 L193 700 L494 178 L496 178 L496 700 L597 700 L597 0 L496 0 L192 522 L190 522 L190 0 L90 0 L90 700 Z M296 -201 Q325 -196 334.5 -184 Q344 -172 344 -149 L293 -149 L293 -51 L401 -51 L401 -135 Q401 -183 377.5 -210 Q354 -237 296 -241 L296 -201 Z " />
<glyph glyph-name="ncommaaccent" unicode="&#x146;" horiz-adv-x="588" d="M80 530 L175 530 L175 479 L177 479 Q197 506 237 525.5 Q277 545 322 545 Q409 545 461 493 Q513 441 513 347 L513 0 L415 0 L415 319 Q415 385 389 420 Q363 455 303 455 Q246 455 211.5 422.5 Q177 390 177 333 L177 0 L80 0 L80 530 Z M245 -201 Q274 -196 283.5 -184 Q293 -172 293 -149 L242 -149 L242 -51 L350 -51 L350 -135 Q350 -183 326.5 -210 Q303 -237 245 -241 L245 -201 Z " />
<glyph glyph-name="Ncaron" unicode="&#x147;" horiz-adv-x="687" d="M90 700 L193 700 L494 178 L496 178 L496 700 L597 700 L597 0 L496 0 L192 522 L190 522 L190 0 L90 0 L90 700 Z M219 850 L272 893 L344 803 L415 893 L470 850 L403 765 L285 765 L219 850 Z " />
<glyph glyph-name="ncaron" unicode="&#x148;" horiz-adv-x="588" d="M80 530 L175 530 L175 479 L177 479 Q197 506 237 525.5 Q277 545 322 545 Q409 545 461 493 Q513 441 513 347 L513 0 L415 0 L415 319 Q415 385 389 420 Q363 455 303 455 Q246 455 211.5 422.5 Q177 390 177 333 L177 0 L80 0 L80 530 Z M171 679 L224 722 L296 632 L367 722 L422 679 L355 594 L237 594 L171 679 Z " />
<glyph glyph-name="Eng" unicode="&#x14a;" horiz-adv-x="687" d="M90 700 L183 700 L494 188 L496 188 L496 700 L597 700 L597 -75 Q597 -143 566.5 -175.5 Q536 -208 470 -208 L418 -208 L418 -111 L458 -111 Q483 -111 494 -99 Q505 -87 505 -55 L505 3 L193 511 L190 511 L190 0 L90 0 L90 700 Z " />
<glyph glyph-name="eng" unicode="&#x14b;" horiz-adv-x="583" d="M80 530 L175 530 L175 479 L177 479 Q197 506 233.5 525.5 Q270 545 315 545 Q358 545 393.5 530 Q429 515 454.5 486.5 Q480 458 494 417 Q508 376 508 325 L508 -74 Q508 -147 478 -178.5 Q448 -210 388 -210 L339 -210 L339 -118 L369 -118 Q390 -118 400.5 -107 Q411 -96 411 -66 L411 319 Q411 383 382 419 Q353 455 296 455 Q239 455 208 420 Q177 385 177 328 L177 0 L80 0 L80 530 Z " />
<glyph glyph-name="Omacron" unicode="&#x14c;" horiz-adv-x="695" d="M349 78 Q389 78 423.5 93.5 Q458 109 484 142.5 Q510 176 525 228 Q540 280 540 353 Q540 422 524.5 472.5 Q509 523 483 556 Q457 589 422 605 Q387 621 349 621 Q310 621 275 605.5 Q240 590 213 557.5 Q186 525 170.5 475 Q155 425 155 356 Q155 283 170 230.5 Q185 178 211.5 144 Q238 110 273.5 94 Q309 78 349 78 Z M349 -15 Q292 -15 238 5.5 Q184 26 142 70 Q100 114 75 185 Q50 256 50 356 Q50 446 75 513.5 Q100 581 142 626 Q184 671 238 693 Q292 715 349 715 Q406 715 459 692.5 Q512 670 553.5 624.5 Q595 579 620 511 Q645 443 645 353 Q645 253 620 182.5 Q595 112 553.5 68.5 Q512 25 459 5 Q406 -15 349 -15 Z M208 832 L496 832 L496 765 L208 765 L208 832 Z " />
<glyph glyph-name="omacron" unicode="&#x14d;" horiz-adv-x="573" d="M288 73 Q350 73 391 122 Q432 171 432 265 Q432 359 391 407.5 Q350 456 288 456 Q225 456 183 408 Q141 360 141 265 Q141 170 183 121.5 Q225 73 288 73 Z M288 -15 Q237 -15 192.5 3.5 Q148 22 115.5 57.5 Q83 93 64 145 Q45 197 45 265 Q45 333 64.5 385 Q84 437 117.5 472.5 Q151 508 195 526.5 Q239 545 288 545 Q336 545 379.5 526.5 Q423 508 456 472.5 Q489 437 508.5 385 Q528 333 528 265 Q528 197 509.5 145 Q491 93 458.5 57.5 Q426 22 382.5 3.5 Q339 -15 288 -15 Z M147 687 L435 687 L435 620 L147 620 L147 687 Z " />
<glyph glyph-name="Obreve" unicode="&#x14e;" horiz-adv-x="695" d="M349 78 Q389 78 423.5 93.5 Q458 109 484 142.5 Q510 176 525 228 Q540 280 540 353 Q540 422 524.5 472.5 Q509 523 483 556 Q457 589 422 605 Q387 621 349 621 Q310 621 275 605.5 Q240 590 213 557.5 Q186 525 170.5 475 Q155 425 155 356 Q155 283 170 230.5 Q185 178 211.5 144 Q238 110 273.5 94 Q309 78 349 78 Z M349 -15 Q292 -15 238 5.5 Q184 26 142 70 Q100 114 75 185 Q50 256 50 356 Q50 446 75 513.5 Q100 581 142 626 Q184 671 238 693 Q292 715 349 715 Q406 715 459 692.5 Q512 670 553.5 624.5 Q595 579 620 511 Q645 443 645 353 Q645 253 620 182.5 Q595 112 553.5 68.5 Q512 25 459 5 Q406 -15 349 -15 Z M276 877 Q279 855 297.5 838.5 Q316 822 353 822 Q389 822 407 838.5 Q425 855 428 877 L480 877 Q480 820 444.5 787.5 Q409 755 353 755 Q296 755 260.5 787.5 Q225 820 225 877 L276 877 Z " />
<glyph glyph-name="obreve" unicode="&#x14f;" horiz-adv-x="573" d="M288 73 Q350 73 391 122 Q432 171 432 265 Q432 359 391 407.5 Q350 456 288 456 Q225 456 183 408 Q141 360 141 265 Q141 170 183 121.5 Q225 73 288 73 Z M288 -15 Q237 -15 192.5 3.5 Q148 22 115.5 57.5 Q83 93 64 145 Q45 197 45 265 Q45 333 64.5 385 Q84 437 117.5 472.5 Q151 508 195 526.5 Q239 545 288 545 Q336 545 379.5 526.5 Q423 508 456 472.5 Q489 437 508.5 385 Q528 333 528 265 Q528 197 509.5 145 Q491 93 458.5 57.5 Q426 22 382.5 3.5 Q339 -15 288 -15 Z M216 707 Q219 685 237.5 668.5 Q256 652 293 652 Q329 652 347 668.5 Q365 685 368 707 L420 707 Q420 650 384.5 617.5 Q349 585 293 585 Q236 585 200.5 617.5 Q165 650 165 707 L216 707 Z " />
<glyph glyph-name="Ohungarumlaut" unicode="&#x150;" horiz-adv-x="695" d="M349 78 Q389 78 423.5 93.5 Q458 109 484 142.5 Q510 176 525 228 Q540 280 540 353 Q540 422 524.5 472.5 Q509 523 483 556 Q457 589 422 605 Q387 621 349 621 Q310 621 275 605.5 Q240 590 213 557.5 Q186 525 170.5 475 Q155 425 155 356 Q155 283 170 230.5 Q185 178 211.5 144 Q238 110 273.5 94 Q309 78 349 78 Z M349 -15 Q292 -15 238 5.5 Q184 26 142 70 Q100 114 75 185 Q50 256 50 356 Q50 446 75 513.5 Q100 581 142 626 Q184 671 238 693 Q292 715 349 715 Q406 715 459 692.5 Q512 670 553.5 624.5 Q595 579 620 511 Q645 443 645 353 Q645 253 620 182.5 Q595 112 553.5 68.5 Q512 25 459 5 Q406 -15 349 -15 Z M318 880 L418 880 L314 765 L243 765 L318 880 Z M462 880 L562 880 L458 765 L387 765 L462 880 Z " />
<glyph glyph-name="ohungarumlaut" unicode="&#x151;" horiz-adv-x="573" d="M288 73 Q350 73 391 122 Q432 171 432 265 Q432 359 391 407.5 Q350 456 288 456 Q225 456 183 408 Q141 360 141 265 Q141 170 183 121.5 Q225 73 288 73 Z M288 -15 Q237 -15 192.5 3.5 Q148 22 115.5 57.5 Q83 93 64 145 Q45 197 45 265 Q45 333 64.5 385 Q84 437 117.5 472.5 Q151 508 195 526.5 Q239 545 288 545 Q336 545 379.5 526.5 Q423 508 456 472.5 Q489 437 508.5 385 Q528 333 528 265 Q528 197 509.5 145 Q491 93 458.5 57.5 Q426 22 382.5 3.5 Q339 -15 288 -15 Z M258 718 L358 718 L254 603 L183 603 L258 718 Z M402 718 L502 718 L398 603 L327 603 L402 718 Z " />
<glyph glyph-name="OE" unicode="&#x152;" horiz-adv-x="1001" d="M513 44 Q484 17 441 1 Q398 -15 349 -15 Q292 -15 238 5.5 Q184 26 142 70 Q100 114 75 185 Q50 256 50 356 Q50 446 75 513.5 Q100 581 142 626 Q184 671 238 693 Q292 715 349 715 Q397 715 438.5 699 Q480 683 513 656 L513 700 L936 700 L936 607 L615 607 L615 413 L908 413 L908 324 L615 324 L615 92 L936 92 L936 0 L513 0 L513 44 Z M513 541 Q490 575 450.5 598 Q411 621 354 621 Q314 621 278 605.5 Q242 590 215 558 Q188 526 172.5 475.5 Q157 425 157 356 Q157 281 172 228.5 Q187 176 213.5 142.5 Q240 109 276 93.5 Q312 78 354 78 Q412 78 451 99.5 Q490 121 513 154 L513 541 Z " />
<glyph glyph-name="oe" unicode="&#x153;" horiz-adv-x="956" d="M905 136 Q894 106 874 78.5 Q854 51 825.5 30.5 Q797 10 760.5 -2.5 Q724 -15 680 -15 Q617 -15 565.5 13 Q514 41 481 95 Q449 39 399 12 Q349 -15 288 -15 Q237 -15 192.5 3.5 Q148 22 115.5 57.5 Q83 93 64 145 Q45 197 45 265 Q45 333 64.5 385 Q84 437 117.5 472.5 Q151 508 195 526.5 Q239 545 288 545 Q345 545 396 517.5 Q447 490 479 434 Q491 452 508.5 472 Q526 492 550 508 Q574 524 604.5 534.5 Q635 545 672 545 Q724 545 768 526.5 Q812 508 843.5 472.5 Q875 437 893 385 Q911 333 911 265 L911 236 L530 236 Q531 202 540.5 172.5 Q550 143 568.5 120.5 Q587 98 614.5 85 Q642 72 678 72 Q714 72 740 83 Q766 94 784 110 Q802 126 813 144.5 Q824 163 830 178 L905 136 Z M288 73 Q350 73 391 122 Q432 171 432 265 Q432 312 421 347.5 Q410 383 390.5 407 Q371 431 344.5 443.5 Q318 456 288 456 Q257 456 230.5 444 Q204 432 184 408 Q164 384 152.5 348.5 Q141 313 141 265 Q141 170 183 121.5 Q225 73 288 73 Z M817 312 Q817 338 808.5 364.5 Q800 391 782.5 412 Q765 433 737.5 446 Q710 459 672 459 Q634 459 607 445 Q580 431 563 409 Q546 387 538.5 361.5 Q531 336 531 312 L817 312 Z " />
<glyph glyph-name="Racute" unicode="&#x154;" horiz-adv-x="640" d="M90 700 L364 700 Q417 700 460.5 686.5 Q504 673 535 646 Q566 619 583 579 Q600 539 600 487 Q600 395 556 348.5 Q512 302 436 285 L589 0 L479 0 L331 277 L190 277 L190 0 L90 0 L90 700 Z M356 366 Q386 366 412 372.5 Q438 379 457.5 393 Q477 407 488 430.5 Q499 454 499 487 Q499 554 459 581.5 Q419 609 355 609 L190 609 L190 366 L356 366 Z M326 887 L439 887 L331 765 L247 765 L326 887 Z " />
<glyph glyph-name="racute" unicode="&#x155;" horiz-adv-x="356" d="M80 530 L173 530 L173 473 L175 473 Q192 505 222 522 Q252 539 284 539 Q301 539 313 535.5 Q325 532 331 529 L314 433 Q309 435 299.5 438 Q290 441 273 441 Q177 441 177 311 L177 0 L80 0 L80 530 Z M225 717 L338 717 L230 595 L146 595 L225 717 Z " />
<glyph glyph-name="Rcommaaccent" unicode="&#x156;" horiz-adv-x="640" d="M90 700 L364 700 Q417 700 460.5 686.5 Q504 673 535 646 Q566 619 583 579 Q600 539 600 487 Q600 395 556 348.5 Q512 302 436 285 L589 0 L479 0 L331 277 L190 277 L190 0 L90 0 L90 700 Z M356 366 Q386 366 412 372.5 Q438 379 457.5 393 Q477 407 488 430.5 Q499 454 499 487 Q499 554 459 581.5 Q419 609 355 609 L190 609 L190 366 L356 366 Z M268 -201 Q297 -196 306.5 -184 Q316 -172 316 -149 L265 -149 L265 -51 L373 -51 L373 -135 Q373 -183 349.5 -210 Q326 -237 268 -241 L268 -201 Z " />
<glyph glyph-name="rcommaaccent" unicode="&#x157;" horiz-adv-x="356" d="M80 530 L173 530 L173 473 L175 473 Q192 505 222 522 Q252 539 284 539 Q301 539 313 535.5 Q325 532 331 529 L314 433 Q309 435 299.5 438 Q290 441 273 441 Q177 441 177 311 L177 0 L80 0 L80 530 Z M84 -201 Q113 -196 122.5 -184 Q132 -172 132 -149 L81 -149 L81 -51 L189 -51 L189 -135 Q189 -183 165.5 -210 Q142 -237 84 -241 L84 -201 Z " />
<glyph glyph-name="Rcaron" unicode="&#x158;" horiz-adv-x="640" d="M90 700 L364 700 Q417 700 460.5 686.5 Q504 673 535 646 Q566 619 583 579 Q600 539 600 487 Q600 395 556 348.5 Q512 302 436 285 L589 0 L479 0 L331 277 L190 277 L190 0 L90 0 L90 700 Z M356 366 Q386 366 412 372.5 Q438 379 457.5 393 Q477 407 488 430.5 Q499 454 499 487 Q499 554 459 581.5 Q419 609 355 609 L190 609 L190 366 L356 366 Z M186 850 L239 893 L311 803 L382 893 L437 850 L370 765 L252 765 L186 850 Z " />
<glyph glyph-name="rcaron" unicode="&#x159;" horiz-adv-x="356" d="M80 530 L173 530 L173 473 L175 473 Q192 505 222 522 Q252 539 284 539 Q301 539 313 535.5 Q325 532 331 529 L314 433 Q309 435 299.5 438 Q290 441 273 441 Q177 441 177 311 L177 0 L80 0 L80 530 Z M69 679 L122 722 L194 632 L265 722 L320 679 L253 594 L135 594 L69 679 Z " />
<glyph glyph-name="Sacute" unicode="&#x15a;" horiz-adv-x="609" d="M150 260 Q157 215 168.5 181.5 Q180 148 200 125 Q220 102 251 90.5 Q282 79 327 79 Q401 79 438 110 Q475 141 475 186 Q475 209 468.5 226 Q462 243 442 258.5 Q422 274 384.5 290 Q347 306 285 325 Q228 343 188 363 Q148 383 122.5 407.5 Q97 432 85.5 461 Q74 490 74 526 Q74 563 89 597 Q104 631 133 657.5 Q162 684 204 699.5 Q246 715 300 715 Q347 715 388.5 703.5 Q430 692 463 668 Q496 644 518.5 608 Q541 572 549 522 L449 500 Q443 526 432.5 548 Q422 570 405 586.5 Q388 603 362 612 Q336 621 300 621 Q235 621 204.5 593 Q174 565 174 526 Q174 508 180 494.5 Q186 481 204.5 468 Q223 455 257.5 440.5 Q292 426 350 407 Q417 385 460.5 363 Q504 341 529 316 Q554 291 564 261 Q574 231 574 192 Q574 149 557.5 111.5 Q541 74 509.5 46 Q478 18 432 1.5 Q386 -15 326 -15 Q201 -15 130.5 49 Q60 113 45 239 L150 260 Z M355 887 L468 887 L360 765 L276 765 L355 887 Z " />
<glyph glyph-name="sacute" unicode="&#x15b;" horiz-adv-x="517" d="M130 198 Q145 68 267 68 Q327 68 357 89.5 Q387 111 387 144 Q387 162 380.5 174.5 Q374 187 357 197.5 Q340 208 311 218 Q282 228 237 240 Q143 266 101 300 Q59 334 59 394 Q59 423 71 450 Q83 477 107 498 Q131 519 166.5 532 Q202 545 248 545 Q295 545 330.5 533 Q366 521 392 500.5 Q418 480 434.5 452 Q451 424 460 391 L376 368 Q362 410 334 436.5 Q306 463 249 463 Q198 463 173.5 442.5 Q149 422 149 397 Q149 382 154.5 371.5 Q160 361 176.5 352 Q193 343 223 333 Q253 323 302 309 Q353 295 387 278.5 Q421 262 440.5 242 Q460 222 468 197.5 Q476 173 476 143 Q476 115 465 87 Q454 59 429 36.5 Q404 14 365 -0.5 Q326 -15 270 -15 Q213 -15 171.5 1 Q130 17 102 44 Q74 71 59 106 Q44 141 40 178 L130 198 Z M297 717 L410 717 L302 595 L218 595 L297 717 Z " />
<glyph glyph-name="Scircumflex" unicode="&#x15c;" horiz-adv-x="609" d="M150 260 Q157 215 168.5 181.5 Q180 148 200 125 Q220 102 251 90.5 Q282 79 327 79 Q401 79 438 110 Q475 141 475 186 Q475 209 468.5 226 Q462 243 442 258.5 Q422 274 384.5 290 Q347 306 285 325 Q228 343 188 363 Q148 383 122.5 407.5 Q97 432 85.5 461 Q74 490 74 526 Q74 563 89 597 Q104 631 133 657.5 Q162 684 204 699.5 Q246 715 300 715 Q347 715 388.5 703.5 Q430 692 463 668 Q496 644 518.5 608 Q541 572 549 522 L449 500 Q443 526 432.5 548 Q422 570 405 586.5 Q388 603 362 612 Q336 621 300 621 Q235 621 204.5 593 Q174 565 174 526 Q174 508 180 494.5 Q186 481 204.5 468 Q223 455 257.5 440.5 Q292 426 350 407 Q417 385 460.5 363 Q504 341 529 316 Q554 291 564 261 Q574 231 574 192 Q574 149 557.5 111.5 Q541 74 509.5 46 Q478 18 432 1.5 Q386 -15 326 -15 Q201 -15 130.5 49 Q60 113 45 239 L150 260 Z M259 875 L376 875 L443 790 L389 747 L318 837 L246 747 L192 790 L259 875 Z " />
<glyph glyph-name="scircumflex" unicode="&#x15d;" horiz-adv-x="517" d="M130 198 Q145 68 267 68 Q327 68 357 89.5 Q387 111 387 144 Q387 162 380.5 174.5 Q374 187 357 197.5 Q340 208 311 218 Q282 228 237 240 Q143 266 101 300 Q59 334 59 394 Q59 423 71 450 Q83 477 107 498 Q131 519 166.5 532 Q202 545 248 545 Q295 545 330.5 533 Q366 521 392 500.5 Q418 480 434.5 452 Q451 424 460 391 L376 368 Q362 410 334 436.5 Q306 463 249 463 Q198 463 173.5 442.5 Q149 422 149 397 Q149 382 154.5 371.5 Q160 361 176.5 352 Q193 343 223 333 Q253 323 302 309 Q353 295 387 278.5 Q421 262 440.5 242 Q460 222 468 197.5 Q476 173 476 143 Q476 115 465 87 Q454 59 429 36.5 Q404 14 365 -0.5 Q326 -15 270 -15 Q213 -15 171.5 1 Q130 17 102 44 Q74 71 59 106 Q44 141 40 178 L130 198 Z M202 710 L319 710 L386 624 L332 581 L261 671 L189 581 L135 624 L202 710 Z " />
<glyph glyph-name="Scedilla" unicode="&#x15e;" horiz-adv-x="609" d="M150 260 Q157 215 168.5 181.5 Q180 148 200 125 Q220 102 251 90.5 Q282 79 327 79 Q401 79 438 110 Q475 141 475 186 Q475 209 468.5 226 Q462 243 442 258.5 Q422 274 384.5 290 Q347 306 285 325 Q228 343 188 363 Q148 383 122.5 407.5 Q97 432 85.5 461 Q74 490 74 526 Q74 563 89 597 Q104 631 133 657.5 Q162 684 204 699.5 Q246 715 300 715 Q347 715 388.5 703.5 Q430 692 463 668 Q496 644 518.5 608 Q541 572 549 522 L449 500 Q443 526 432.5 548 Q422 570 405 586.5 Q388 603 362 612 Q336 621 300 621 Q235 621 204.5 593 Q174 565 174 526 Q174 508 180 494.5 Q186 481 204.5 468 Q223 455 257.5 440.5 Q292 426 350 407 Q417 385 460.5 363 Q504 341 529 316 Q554 291 564 261 Q574 231 574 192 Q574 149 557.5 111.5 Q541 74 509.5 46 Q478 18 432 1.5 Q386 -15 326 -15 Q201 -15 130.5 49 Q60 113 45 239 L150 260 Z M272 -123 Q286 -134 304.5 -146 Q323 -158 349 -158 Q370 -158 384 -148.5 Q398 -139 398 -120 Q398 -101 384 -92.5 Q370 -84 349 -84 Q337 -84 327.5 -86.5 Q318 -89 311 -93 Q303 -96 297 -101 L258 -79 L305 0 L356 0 L319 -58 L320 -59 Q328 -54 342.5 -49 Q357 -44 378 -44 Q392 -44 407 -49 Q422 -54 434 -63.5 Q446 -73 453.5 -88.5 Q461 -104 461 -125 Q461 -168 430.5 -191 Q400 -214 352 -214 Q311 -214 282 -199 Q253 -184 237 -169 L272 -123 Z " />
<glyph glyph-name="scedilla" unicode="&#x15f;" horiz-adv-x="517" d="M130 198 Q145 68 267 68 Q327 68 357 89.5 Q387 111 387 144 Q387 162 380.5 174.5 Q374 187 357 197.5 Q340 208 311 218 Q282 228 237 240 Q143 266 101 300 Q59 334 59 394 Q59 423 71 450 Q83 477 107 498 Q131 519 166.5 532 Q202 545 248 545 Q295 545 330.5 533 Q366 521 392 500.5 Q418 480 434.5 452 Q451 424 460 391 L376 368 Q362 410 334 436.5 Q306 463 249 463 Q198 463 173.5 442.5 Q149 422 149 397 Q149 382 154.5 371.5 Q160 361 176.5 352 Q193 343 223 333 Q253 323 302 309 Q353 295 387 278.5 Q421 262 440.5 242 Q460 222 468 197.5 Q476 173 476 143 Q476 115 465 87 Q454 59 429 36.5 Q404 14 365 -0.5 Q326 -15 270 -15 Q213 -15 171.5 1 Q130 17 102 44 Q74 71 59 106 Q44 141 40 178 L130 198 Z M211 -123 Q225 -134 243.5 -146 Q262 -158 288 -158 Q309 -158 323 -148.5 Q337 -139 337 -120 Q337 -101 323 -92.5 Q309 -84 288 -84 Q276 -84 266.5 -86.5 Q257 -89 250 -93 Q242 -96 236 -101 L197 -79 L244 0 L295 0 L258 -58 L259 -59 Q267 -54 281.5 -49 Q296 -44 317 -44 Q331 -44 346 -49 Q361 -54 373 -63.5 Q385 -73 392.5 -88.5 Q400 -104 400 -125 Q400 -168 369.5 -191 Q339 -214 291 -214 Q250 -214 221 -199 Q192 -184 176 -169 L211 -123 Z " />
<glyph glyph-name="Scaron" unicode="&#x160;" horiz-adv-x="609" d="M150 260 Q157 215 168.5 181.5 Q180 148 200 125 Q220 102 251 90.5 Q282 79 327 79 Q401 79 438 110 Q475 141 475 186 Q475 209 468.5 226 Q462 243 442 258.5 Q422 274 384.5 290 Q347 306 285 325 Q228 343 188 363 Q148 383 122.5 407.5 Q97 432 85.5 461 Q74 490 74 526 Q74 563 89 597 Q104 631 133 657.5 Q162 684 204 699.5 Q246 715 300 715 Q347 715 388.5 703.5 Q430 692 463 668 Q496 644 518.5 608 Q541 572 549 522 L449 500 Q443 526 432.5 548 Q422 570 405 586.5 Q388 603 362 612 Q336 621 300 621 Q235 621 204.5 593 Q174 565 174 526 Q174 508 180 494.5 Q186 481 204.5 468 Q223 455 257.5 440.5 Q292 426 350 407 Q417 385 460.5 363 Q504 341 529 316 Q554 291 564 261 Q574 231 574 192 Q574 149 557.5 111.5 Q541 74 509.5 46 Q478 18 432 1.5 Q386 -15 326 -15 Q201 -15 130.5 49 Q60 113 45 239 L150 260 Z M188 850 L241 893 L313 803 L384 893 L439 850 L372 765 L254 765 L188 850 Z " />
<glyph glyph-name="scaron" unicode="&#x161;" horiz-adv-x="517" d="M130 198 Q145 68 267 68 Q327 68 357 89.5 Q387 111 387 144 Q387 162 380.5 174.5 Q374 187 357 197.5 Q340 208 311 218 Q282 228 237 240 Q143 266 101 300 Q59 334 59 394 Q59 423 71 450 Q83 477 107 498 Q131 519 166.5 532 Q202 545 248 545 Q295 545 330.5 533 Q366 521 392 500.5 Q418 480 434.5 452 Q451 424 460 391 L376 368 Q362 410 334 436.5 Q306 463 249 463 Q198 463 173.5 442.5 Q149 422 149 397 Q149 382 154.5 371.5 Q160 361 176.5 352 Q193 343 223 333 Q253 323 302 309 Q353 295 387 278.5 Q421 262 440.5 242 Q460 222 468 197.5 Q476 173 476 143 Q476 115 465 87 Q454 59 429 36.5 Q404 14 365 -0.5 Q326 -15 270 -15 Q213 -15 171.5 1 Q130 17 102 44 Q74 71 59 106 Q44 141 40 178 L130 198 Z M130 679 L183 722 L255 632 L326 722 L381 679 L314 594 L196 594 L130 679 Z " />
<glyph glyph-name="Tcommaaccent" unicode="&#x162;" horiz-adv-x="565" d="M232 607 L20 607 L20 700 L545 700 L545 607 L332 607 L332 0 L232 0 L232 607 Z M237 -201 Q266 -196 275.5 -184 Q285 -172 285 -149 L234 -149 L234 -51 L342 -51 L342 -135 Q342 -183 318.5 -210 Q295 -237 237 -241 L237 -201 Z " />
<glyph glyph-name="tcommaaccent" unicode="&#x163;" horiz-adv-x="370" d="M103 445 L25 445 L25 530 L105 530 L105 660 L198 660 L198 530 L330 530 L330 445 L199 445 L199 176 Q199 133 211.5 113.5 Q224 94 267 94 L307 94 L307 0 L260 0 Q172 0 137.5 42.5 Q103 85 103 166 L103 445 Z M131 -201 Q160 -196 169.5 -184 Q179 -172 179 -149 L128 -149 L128 -51 L236 -51 L236 -135 Q236 -183 212.5 -210 Q189 -237 131 -241 L131 -201 Z " />
<glyph glyph-name="Tcaron" unicode="&#x164;" horiz-adv-x="565" d="M232 607 L20 607 L20 700 L545 700 L545 607 L332 607 L332 0 L232 0 L232 607 Z M163 850 L216 893 L288 803 L359 893 L414 850 L347 765 L229 765 L163 850 Z " />
<glyph glyph-name="tcaron" unicode="&#x165;" horiz-adv-x="370" d="M103 445 L25 445 L25 530 L105 530 L105 660 L198 660 L198 530 L330 530 L330 445 L199 445 L199 176 Q199 133 211.5 113.5 Q224 94 267 94 L307 94 L307 0 L260 0 Q172 0 137.5 42.5 Q103 85 103 166 L103 445 Z M303 730 L390 730 L335 574 L273 574 L303 730 Z " />
<glyph glyph-name="Tbar" unicode="&#x166;" horiz-adv-x="565" d="M232 318 L89 318 L89 398 L232 398 L232 607 L20 607 L20 700 L545 700 L545 607 L332 607 L332 398 L476 398 L476 318 L332 318 L332 0 L232 0 L232 318 Z " />
<glyph glyph-name="tbar" unicode="&#x167;" horiz-adv-x="370" d="M25 240 L25 320 L330 320 L330 240 L25 240 Z M103 445 L25 445 L25 530 L105 530 L105 660 L198 660 L198 530 L330 530 L330 445 L199 445 L199 176 Q199 133 211.5 113.5 Q224 94 267 94 L307 94 L307 0 L260 0 Q172 0 137.5 42.5 Q103 85 103 166 L103 445 Z " />
<glyph glyph-name="Utilde" unicode="&#x168;" horiz-adv-x="657" d="M75 700 L175 700 L175 234 Q175 159 213 119 Q251 79 328 79 Q405 79 443.5 119 Q482 159 482 232 L482 700 L582 700 L582 228 Q582 107 513 46 Q444 -15 328 -15 Q212 -15 143.5 46 Q75 107 75 228 L75 700 Z M189 765 Q196 806 216.5 835 Q237 864 282 864 Q303 864 319 858 Q335 852 348.5 845 Q362 838 374 832 Q386 826 399 826 Q415 826 423 834.5 Q431 843 435 859 L487 859 Q480 819 459.5 789.5 Q439 760 394 760 Q373 760 357 766 Q341 772 327 779 Q313 786 301 792 Q289 798 276 798 Q248 798 240 765 L189 765 Z " />
<glyph glyph-name="utilde" unicode="&#x169;" horiz-adv-x="576" d="M75 530 L172 530 L172 199 Q172 131 196.5 104 Q221 77 279 77 Q333 77 366 109 Q399 141 399 204 L399 530 L496 530 L496 0 L402 0 L402 51 L400 51 Q397 47 386.5 36 Q376 25 358.5 13.5 Q341 2 316 -6.5 Q291 -15 257 -15 Q168 -15 121.5 36.5 Q75 88 75 186 L75 530 Z M142 600 Q149 641 169.5 670 Q190 699 235 699 Q256 699 272 693 Q288 687 301.5 680 Q315 673 327 667 Q339 661 352 661 Q368 661 376 669.5 Q384 678 388 694 L440 694 Q433 654 412.5 624.5 Q392 595 347 595 Q326 595 310 601 Q294 607 280 614 Q266 621 254 627 Q242 633 229 633 Q201 633 193 600 L142 600 Z " />
<glyph glyph-name="Umacron" unicode="&#x16a;" horiz-adv-x="657" d="M75 700 L175 700 L175 234 Q175 159 213 119 Q251 79 328 79 Q405 79 443.5 119 Q482 159 482 232 L482 700 L582 700 L582 228 Q582 107 513 46 Q444 -15 328 -15 Q212 -15 143.5 46 Q75 107 75 228 L75 700 Z M189 832 L477 832 L477 765 L189 765 L189 832 Z " />
<glyph glyph-name="umacron" unicode="&#x16b;" horiz-adv-x="576" d="M75 530 L172 530 L172 199 Q172 131 196.5 104 Q221 77 279 77 Q333 77 366 109 Q399 141 399 204 L399 530 L496 530 L496 0 L402 0 L402 51 L400 51 Q397 47 386.5 36 Q376 25 358.5 13.5 Q341 2 316 -6.5 Q291 -15 257 -15 Q168 -15 121.5 36.5 Q75 88 75 186 L75 530 Z M143 687 L431 687 L431 620 L143 620 L143 687 Z " />
<glyph glyph-name="Ubreve" unicode="&#x16c;" horiz-adv-x="657" d="M75 700 L175 700 L175 234 Q175 159 213 119 Q251 79 328 79 Q405 79 443.5 119 Q482 159 482 232 L482 700 L582 700 L582 228 Q582 107 513 46 Q444 -15 328 -15 Q212 -15 143.5 46 Q75 107 75 228 L75 700 Z M256 877 Q259 855 277.5 838.5 Q296 822 333 822 Q369 822 387 838.5 Q405 855 408 877 L460 877 Q460 820 424.5 787.5 Q389 755 333 755 Q276 755 240.5 787.5 Q205 820 205 877 L256 877 Z " />
<glyph glyph-name="ubreve" unicode="&#x16d;" horiz-adv-x="576" d="M75 530 L172 530 L172 199 Q172 131 196.5 104 Q221 77 279 77 Q333 77 366 109 Q399 141 399 204 L399 530 L496 530 L496 0 L402 0 L402 51 L400 51 Q397 47 386.5 36 Q376 25 358.5 13.5 Q341 2 316 -6.5 Q291 -15 257 -15 Q168 -15 121.5 36.5 Q75 88 75 186 L75 530 Z M213 707 Q216 685 234.5 668.5 Q253 652 290 652 Q326 652 344 668.5 Q362 685 365 707 L417 707 Q417 650 381.5 617.5 Q346 585 290 585 Q233 585 197.5 617.5 Q162 650 162 707 L213 707 Z " />
<glyph glyph-name="Uring" unicode="&#x16e;" horiz-adv-x="657" d="M75 700 L175 700 L175 234 Q175 159 213 119 Q251 79 328 79 Q405 79 443.5 119 Q482 159 482 232 L482 700 L582 700 L582 228 Q582 107 513 46 Q444 -15 328 -15 Q212 -15 143.5 46 Q75 107 75 228 L75 700 Z M336 682 Q291 682 263.5 711.5 Q236 741 236 786 Q236 829 264.5 859.5 Q293 890 336 890 Q381 890 408.5 860 Q436 830 436 786 Q436 740 408.5 711 Q381 682 336 682 Z M336 731 Q353 731 367.5 744.5 Q382 758 382 787 Q382 815 367.5 828 Q353 841 336 841 Q319 841 305 828 Q291 815 291 787 Q291 758 305 744.5 Q319 731 336 731 Z " />
<glyph glyph-name="uring" unicode="&#x16f;" horiz-adv-x="576" d="M75 530 L172 530 L172 199 Q172 131 196.5 104 Q221 77 279 77 Q333 77 366 109 Q399 141 399 204 L399 530 L496 530 L496 0 L402 0 L402 51 L400 51 Q397 47 386.5 36 Q376 25 358.5 13.5 Q341 2 316 -6.5 Q291 -15 257 -15 Q168 -15 121.5 36.5 Q75 88 75 186 L75 530 Z M286 522 Q241 522 213.5 552 Q186 582 186 626 Q186 669 214.5 699.5 Q243 730 286 730 Q331 730 358.5 700 Q386 670 386 626 Q386 581 358.5 551.5 Q331 522 286 522 Z M286 571 Q303 571 317.5 585 Q332 599 332 627 Q332 656 317.5 668.5 Q303 681 286 681 Q269 681 255 668.5 Q241 656 241 627 Q241 599 255 585 Q269 571 286 571 Z " />
<glyph glyph-name="Uhungarumlaut" unicode="&#x170;" horiz-adv-x="657" d="M75 700 L175 700 L175 234 Q175 159 213 119 Q251 79 328 79 Q405 79 443.5 119 Q482 159 482 232 L482 700 L582 700 L582 228 Q582 107 513 46 Q444 -15 328 -15 Q212 -15 143.5 46 Q75 107 75 228 L75 700 Z M305 880 L405 880 L301 765 L230 765 L305 880 Z M449 880 L549 880 L445 765 L374 765 L449 880 Z " />
<glyph glyph-name="uhungarumlaut" unicode="&#x171;" horiz-adv-x="576" d="M75 530 L172 530 L172 199 Q172 131 196.5 104 Q221 77 279 77 Q333 77 366 109 Q399 141 399 204 L399 530 L496 530 L496 0 L402 0 L402 51 L400 51 Q397 47 386.5 36 Q376 25 358.5 13.5 Q341 2 316 -6.5 Q291 -15 257 -15 Q168 -15 121.5 36.5 Q75 88 75 186 L75 530 Z M253 726 L353 726 L249 611 L178 611 L253 726 Z M397 726 L497 726 L393 611 L322 611 L397 726 Z " />
<glyph glyph-name="Uogonek" unicode="&#x172;" horiz-adv-x="657" d="M75 700 L175 700 L175 234 Q175 159 213 119 Q251 79 328 79 Q405 79 443.5 119 Q482 159 482 232 L482 700 L582 700 L582 228 Q582 107 513 46 Q444 -15 328 -15 Q212 -15 143.5 46 Q75 107 75 228 L75 700 Z M463 -148 Q431 -186 400.5 -199.5 Q370 -213 339 -213 Q321 -213 303.5 -209.5 Q286 -206 271.5 -198 Q257 -190 248 -175.5 Q239 -161 239 -140 Q239 -118 247.5 -98 Q256 -78 269.5 -60 Q283 -42 301 -27 Q319 -12 338 0 L399 0 Q354 -40 336.5 -67.5 Q319 -95 319 -117 Q319 -135 331 -144 Q343 -153 362 -153 Q384 -153 401 -141 Q418 -129 429 -117 L463 -148 Z " />
<glyph glyph-name="uogonek" unicode="&#x173;" horiz-adv-x="576" d="M75 530 L172 530 L172 199 Q172 131 196.5 104 Q221 77 279 77 Q333 77 366 109 Q399 141 399 204 L399 530 L496 530 L496 0 L402 0 L402 51 L400 51 Q397 47 386.5 36 Q376 25 358.5 13.5 Q341 2 316 -6.5 Q291 -15 257 -15 Q168 -15 121.5 36.5 Q75 88 75 186 L75 530 Z M560 -148 Q528 -186 497.5 -199.5 Q467 -213 436 -213 Q418 -213 400.5 -209.5 Q383 -206 368.5 -198 Q354 -190 345 -175.5 Q336 -161 336 -140 Q336 -118 344.5 -98 Q353 -78 366.5 -60 Q380 -42 398 -27 Q416 -12 435 0 L496 0 Q451 -40 433.5 -67.5 Q416 -95 416 -117 Q416 -135 428 -144 Q440 -153 459 -153 Q481 -153 498 -141 Q515 -129 526 -117 L560 -148 Z " />
<glyph glyph-name="Wcircumflex" unicode="&#x174;" horiz-adv-x="902" d="M40 700 L142 700 L242 165 L244 165 L413 700 L490 700 L660 165 L662 165 L762 700 L862 700 L731 0 L619 0 L451 530 L449 530 L284 0 L171 0 L40 700 Z M393 875 L510 875 L577 790 L523 747 L452 837 L380 747 L326 790 L393 875 Z " />
<glyph glyph-name="wcircumflex" unicode="&#x175;" horiz-adv-x="790" d="M439 530 L574 146 L576 146 L654 530 L750 530 L633 0 L539 0 L396 416 L394 416 L251 0 L157 0 L40 530 L136 530 L216 146 L218 146 L351 530 L439 530 Z M331 710 L448 710 L515 624 L461 581 L390 671 L318 581 L264 624 L331 710 Z " />
<glyph glyph-name="Ycircumflex" unicode="&#x176;" horiz-adv-x="577" d="M239 295 L10 700 L118 700 L287 387 L289 387 L459 700 L567 700 L337 295 L337 0 L239 0 L239 295 Z M236 875 L353 875 L420 790 L366 747 L295 837 L223 747 L169 790 L236 875 Z " />
<glyph glyph-name="ycircumflex" unicode="&#x177;" horiz-adv-x="521" d="M215 37 L15 530 L117 530 L262 151 L406 530 L506 530 L208 -225 L113 -225 L215 37 Z M210 710 L327 710 L394 624 L340 581 L269 671 L197 581 L143 624 L210 710 Z " />
<glyph glyph-name="Ydieresis" unicode="&#x178;" horiz-adv-x="577" d="M239 295 L10 700 L118 700 L287 387 L289 387 L459 700 L567 700 L337 295 L337 0 L239 0 L239 295 Z M146 864 L247 864 L247 765 L146 765 L146 864 Z M340 864 L442 864 L442 765 L340 765 L340 864 Z " />
<glyph glyph-name="Zacute" unicode="&#x179;" horiz-adv-x="599" d="M50 87 L422 603 L422 605 L66 605 L66 700 L549 700 L549 612 L175 97 L175 95 L544 95 L544 0 L50 0 L50 87 Z M323 887 L436 887 L328 765 L244 765 L323 887 Z " />
<glyph glyph-name="zacute" unicode="&#x17a;" horiz-adv-x="546" d="M50 79 L365 438 L365 440 L66 440 L66 530 L491 530 L491 453 L180 94 L180 92 L496 92 L496 0 L50 0 L50 79 Z M297 717 L410 717 L302 595 L218 595 L297 717 Z " />
<glyph glyph-name="Zdotaccent" unicode="&#x17b;" horiz-adv-x="599" d="M50 87 L422 603 L422 605 L66 605 L66 700 L549 700 L549 612 L175 97 L175 95 L544 95 L544 0 L50 0 L50 87 Z M234 870 L342 870 L342 765 L234 765 L234 870 Z " />
<glyph glyph-name="zdotaccent" unicode="&#x17c;" horiz-adv-x="546" d="M50 79 L365 438 L365 440 L66 440 L66 530 L491 530 L491 453 L180 94 L180 92 L496 92 L496 0 L50 0 L50 79 Z M217 709 L325 709 L325 603 L217 603 L217 709 Z " />
<glyph glyph-name="Zcaron" unicode="&#x17d;" horiz-adv-x="599" d="M50 87 L422 603 L422 605 L66 605 L66 700 L549 700 L549 612 L175 97 L175 95 L544 95 L544 0 L50 0 L50 87 Z M179 850 L232 893 L304 803 L375 893 L430 850 L363 765 L245 765 L179 850 Z " />
<glyph glyph-name="zcaron" unicode="&#x17e;" horiz-adv-x="546" d="M50 79 L365 438 L365 440 L66 440 L66 530 L491 530 L491 453 L180 94 L180 92 L496 92 L496 0 L50 0 L50 79 Z M148 679 L201 722 L273 632 L344 722 L399 679 L332 594 L214 594 L148 679 Z " />
<glyph glyph-name="longs" unicode="&#x17f;" horiz-adv-x="304" d="M88 445 L25 445 L25 530 L89 530 L89 608 Q89 644 98 667.5 Q107 691 123.5 705 Q140 719 162.5 724.5 Q185 730 213 730 L294 730 L294 642 L232 642 Q203 642 193 631.5 Q183 621 183 587 L185 0 L88 0 L88 445 Z " />
<glyph glyph-name="Ereversed" unicode="&#x18e;" horiz-adv-x="583" d="M493 0 L65 0 L65 92 L393 92 L393 315 L93 315 L93 404 L393 404 L393 607 L65 607 L65 700 L493 700 L493 0 Z " />
<glyph glyph-name="Eschwa" unicode="&#x18f;" horiz-adv-x="683" d="M63 542 Q79 575 103 606 Q127 637 161 661 Q195 685 238.5 700 Q282 715 337 715 Q406 715 461 689.5 Q516 664 554 616 Q592 568 612.5 500 Q633 432 633 348 Q633 262 610 194.5 Q587 127 546.5 80.5 Q506 34 452 9.5 Q398 -15 335 -15 Q272 -15 219 10 Q166 35 127.5 82 Q89 129 67 197 Q45 265 45 350 L45 388 L526 388 Q525 430 513 472 Q501 514 477.5 547 Q454 580 419.5 600.5 Q385 621 338 621 Q294 621 262.5 606.5 Q231 592 209 571 Q187 550 172.5 526 Q158 502 149 483 L63 542 Z M150 299 Q152 256 164.5 216 Q177 176 200 145.5 Q223 115 256.5 97 Q290 79 335 79 Q381 79 415 97 Q449 115 472 145.5 Q495 176 508.5 216 Q522 256 526 299 L150 299 Z " />
<glyph glyph-name="florin" unicode="&#x192;" horiz-adv-x="496" d="M168 386 L70 386 L83 465 L181 465 L206 593 Q221 672 257.5 708.5 Q294 745 353 745 Q398 745 427.5 726.5 Q457 708 476 688 L423 614 Q411 626 395.5 637.5 Q380 649 362 649 Q339 649 323 635.5 Q307 622 299 577 L278 465 L421 465 L407 386 L265 386 L167 -173 L70 -173 L168 386 Z " />
<glyph glyph-name="Aringacute" unicode="&#x1fa;" horiz-adv-x="631" d="M464 129 L164 129 L119 0 L15 0 L268 700 L364 700 L616 0 L510 0 L464 129 Z M194 215 L434 215 L315 556 L313 556 L194 215 Z M315 682 Q270 682 242.5 711.5 Q215 741 215 786 Q215 829 243.5 859.5 Q272 890 315 890 Q360 890 387.5 860 Q415 830 415 786 Q415 740 387.5 711 Q360 682 315 682 Z M315 731 Q332 731 346.5 744.5 Q361 758 361 787 Q361 815 346.5 828 Q332 841 315 841 Q298 841 284 828 Q270 815 270 787 Q270 758 284 744.5 Q298 731 315 731 Z M363 977 L476 977 L368 855 L284 855 L363 977 Z " />
<glyph glyph-name="aringacute" unicode="&#x1fb;" horiz-adv-x="540" d="M385 56 L383 56 Q380 49 369 37 Q358 25 339 13.5 Q320 2 292 -6.5 Q264 -15 227 -15 Q179 -15 144.5 -2.5 Q110 10 88 31 Q66 52 55.5 80 Q45 108 45 138 Q45 172 55 197.5 Q65 223 86 242.5 Q107 262 141 276.5 Q175 291 223 303 Q263 313 291 321.5 Q319 330 336.5 339 Q354 348 362 360 Q370 372 370 388 Q370 417 346 438.5 Q322 460 266 460 Q236 460 214.5 452 Q193 444 179 430.5 Q165 417 156.5 398.5 Q148 380 143 360 L58 390 Q65 422 81 450.5 Q97 479 122.5 500 Q148 521 183.5 533 Q219 545 264 545 Q308 545 345.5 534.5 Q383 524 410.5 500.5 Q438 477 454 440 Q470 403 470 350 L470 0 L385 0 L385 56 Z M245 232 Q212 223 191 213.5 Q170 204 159 193 Q148 182 144 170 Q140 158 140 144 Q140 110 162.5 90.5 Q185 71 236 71 Q307 71 341 101.5 Q375 132 375 171 L375 290 L373 290 Q370 285 365 279 Q360 273 346.5 266 Q333 259 309 251 Q285 243 245 232 Z M273 522 Q228 522 200.5 552 Q173 582 173 626 Q173 669 201.5 699.5 Q230 730 273 730 Q318 730 345.5 700 Q373 670 373 626 Q373 581 345.5 551.5 Q318 522 273 522 Z M273 571 Q290 571 304.5 585 Q319 599 319 627 Q319 656 304.5 668.5 Q290 681 273 681 Q256 681 242 668.5 Q228 656 228 627 Q228 599 242 585 Q256 571 273 571 Z M315 818 L428 818 L320 696 L236 696 L315 818 Z " />
<glyph glyph-name="AEacute" unicode="&#x1fc;" horiz-adv-x="866" d="M268 700 L791 700 L791 607 L498 607 L498 404 L763 404 L763 316 L498 316 L498 92 L791 92 L791 0 L398 0 L398 140 L161 140 L108 0 L5 0 L268 700 Z M398 228 L398 607 L331 607 L192 228 L398 228 Z M425 887 L538 887 L430 765 L346 765 L425 887 Z " />
<glyph glyph-name="aeacute" unicode="&#x1fd;" horiz-adv-x="906" d="M852 131 Q839 101 819 74.5 Q799 48 771 28 Q743 8 707 -3.5 Q671 -15 627 -15 Q564 -15 513 11 Q462 37 428 86 L426 86 Q425 82 415 65.5 Q405 49 383 31 Q361 13 325 -1 Q289 -15 235 -15 Q183 -15 147 -2.5 Q111 10 88.5 31 Q66 52 55.5 80 Q45 108 45 138 Q45 203 84 241 Q123 279 216 301 Q262 312 292 321.5 Q322 331 339 340.5 Q356 350 363 362 Q370 374 370 389 Q370 401 364.5 413.5 Q359 426 347.5 436.5 Q336 447 317 453.5 Q298 460 271 460 Q210 460 182.5 432 Q155 404 144 360 L58 388 Q72 459 125.5 502 Q179 545 267 545 Q325 545 371 525 Q417 505 443 464 Q475 503 521 524 Q567 545 621 545 Q673 545 717 526 Q761 507 793 471 Q825 435 843 383 Q861 331 861 265 L861 236 L477 236 Q478 202 487.5 172.5 Q497 143 515.5 120.5 Q534 98 561.5 85 Q589 72 625 72 Q660 72 685 84.5 Q710 97 727 114.5 Q744 132 754 150.5 Q764 169 770 181 L852 131 Z M245 232 Q212 223 191 213.5 Q170 204 159 193 Q148 182 144 170 Q140 158 140 144 Q140 110 162.5 90.5 Q185 71 236 71 Q307 71 341 101.5 Q375 132 375 171 L375 290 L373 290 Q370 285 365 279 Q360 273 346.5 266 Q333 259 309 251 Q285 243 245 232 Z M763 312 Q762 339 753.5 365.5 Q745 392 728 412.5 Q711 433 684.5 445.5 Q658 458 620 458 Q583 458 556.5 444 Q530 430 512.5 408.5 Q495 387 486.5 361 Q478 335 477 312 L763 312 Z M313 717 L426 717 L318 595 L234 595 L313 717 Z " />
<glyph glyph-name="Oslashacute" unicode="&#x1fe;" horiz-adv-x="695" d="M141 60 Q95 105 67.5 177 Q40 249 40 356 Q40 446 65 513.5 Q90 581 132 626 Q174 671 228 693 Q282 715 339 715 Q378 715 416 704 Q454 693 489 670 L515 715 L560 687 L531 637 Q578 591 606.5 520.5 Q635 450 635 353 Q635 253 610 182.5 Q585 112 543.5 68.5 Q502 25 449 5 Q396 -15 339 -15 Q297 -15 258 -5 Q219 5 184 27 L160 -15 L113 11 L141 60 Z M233 113 Q277 78 339 78 Q379 78 413.5 93.5 Q448 109 474 142.5 Q500 176 515 228 Q530 280 530 353 Q530 417 516 465 Q502 513 479 545 L233 113 Z M441 586 Q395 621 339 621 Q300 621 265 605.5 Q230 590 203 557.5 Q176 525 160.5 475 Q145 425 145 356 Q145 288 158.5 238.5 Q172 189 195 154 L441 586 Z M388 887 L501 887 L393 765 L309 765 L388 887 Z " />
<glyph glyph-name="oslashacute" unicode="&#x1ff;" horiz-adv-x="573" d="M105 68 Q76 103 60.5 152.5 Q45 202 45 265 Q45 333 64.5 385 Q84 437 117.5 472.5 Q151 508 195 526.5 Q239 545 288 545 Q371 545 435 492 L474 542 L509 513 L467 460 Q496 425 512 376 Q528 327 528 265 Q528 197 509.5 145 Q491 93 458.5 57.5 Q426 22 382.5 3.5 Q339 -15 288 -15 Q199 -15 137 36 L99 -13 L64 15 L105 68 Z M194 110 Q213 91 237 82 Q261 73 288 73 Q350 73 391 122 Q432 171 432 265 Q432 300 425 329 Q418 358 406 381 L194 110 Z M378 420 Q340 456 288 456 Q257 456 230.5 444 Q204 432 184 408 Q164 384 152.5 348.5 Q141 313 141 265 Q141 194 166 147 L378 420 Z M336 717 L449 717 L341 595 L257 595 L336 717 Z " />
<glyph glyph-name="Scommaaccent" unicode="&#x218;" horiz-adv-x="609" d="M150 260 Q157 215 168.5 181.5 Q180 148 200 125 Q220 102 251 90.5 Q282 79 327 79 Q401 79 438 110 Q475 141 475 186 Q475 209 468.5 226 Q462 243 442 258.5 Q422 274 384.5 290 Q347 306 285 325 Q228 343 188 363 Q148 383 122.5 407.5 Q97 432 85.5 461 Q74 490 74 526 Q74 563 89 597 Q104 631 133 657.5 Q162 684 204 699.5 Q246 715 300 715 Q347 715 388.5 703.5 Q430 692 463 668 Q496 644 518.5 608 Q541 572 549 522 L449 500 Q443 526 432.5 548 Q422 570 405 586.5 Q388 603 362 612 Q336 621 300 621 Q235 621 204.5 593 Q174 565 174 526 Q174 508 180 494.5 Q186 481 204.5 468 Q223 455 257.5 440.5 Q292 426 350 407 Q417 385 460.5 363 Q504 341 529 316 Q554 291 564 261 Q574 231 574 192 Q574 149 557.5 111.5 Q541 74 509.5 46 Q478 18 432 1.5 Q386 -15 326 -15 Q201 -15 130.5 49 Q60 113 45 239 L150 260 Z M285 -201 Q314 -196 323.5 -184 Q333 -172 333 -149 L282 -149 L282 -51 L390 -51 L390 -135 Q390 -183 366.5 -210 Q343 -237 285 -241 L285 -201 Z " />
<glyph glyph-name="scommaaccent" unicode="&#x219;" horiz-adv-x="517" d="M130 198 Q145 68 267 68 Q327 68 357 89.5 Q387 111 387 144 Q387 162 380.5 174.5 Q374 187 357 197.5 Q340 208 311 218 Q282 228 237 240 Q143 266 101 300 Q59 334 59 394 Q59 423 71 450 Q83 477 107 498 Q131 519 166.5 532 Q202 545 248 545 Q295 545 330.5 533 Q366 521 392 500.5 Q418 480 434.5 452 Q451 424 460 391 L376 368 Q362 410 334 436.5 Q306 463 249 463 Q198 463 173.5 442.5 Q149 422 149 397 Q149 382 154.5 371.5 Q160 361 176.5 352 Q193 343 223 333 Q253 323 302 309 Q353 295 387 278.5 Q421 262 440.5 242 Q460 222 468 197.5 Q476 173 476 143 Q476 115 465 87 Q454 59 429 36.5 Q404 14 365 -0.5 Q326 -15 270 -15 Q213 -15 171.5 1 Q130 17 102 44 Q74 71 59 106 Q44 141 40 178 L130 198 Z M220 -201 Q249 -196 258.5 -184 Q268 -172 268 -149 L217 -149 L217 -51 L325 -51 L325 -135 Q325 -183 301.5 -210 Q278 -237 220 -241 L220 -201 Z " />
<glyph glyph-name="dotlessj" unicode="&#x237;" horiz-adv-x="254" d="M20 -106 L39 -106 Q60 -106 71 -95 Q82 -84 82 -54 L82 530 L179 530 L179 -59 Q179 -132 149.5 -163.5 Q120 -195 60 -195 L20 -195 L20 -106 Z " />
<glyph glyph-name="schwa" unicode="&#x259;" horiz-adv-x="573" d="M59 415 Q73 441 93.5 464.5 Q114 488 141 506 Q168 524 202.5 534.5 Q237 545 280 545 Q334 545 379.5 525.5 Q425 506 458 469.5 Q491 433 509.5 381.5 Q528 330 528 265 Q528 201 509.5 149 Q491 97 458.5 60.5 Q426 24 381.5 4.5 Q337 -15 285 -15 Q233 -15 189 4 Q145 23 113 59 Q81 95 63 147 Q45 199 45 265 L45 294 L429 294 Q428 328 418.5 357.5 Q409 387 391 409 Q373 431 345.5 444 Q318 457 282 457 Q247 457 222 447 Q197 437 179.5 422 Q162 407 151 390.5 Q140 374 132 360 L59 415 Z M141 218 Q142 190 150.5 164 Q159 138 176.5 117.5 Q194 97 221 84.5 Q248 72 285 72 Q322 72 348.5 86 Q375 100 392 121.5 Q409 143 418 168.5 Q427 194 428 218 L141 218 Z " />
<glyph glyph-name="circumflex" unicode="&#x2c6;" horiz-adv-x="311" d="M97 710 L214 710 L281 624 L227 581 L156 671 L84 581 L30 624 L97 710 Z " />
<glyph glyph-name="caron" unicode="&#x2c7;" horiz-adv-x="311" d="M30 679 L83 722 L155 632 L226 722 L281 679 L214 594 L96 594 L30 679 Z " />
<glyph glyph-name="breve" unicode="&#x2d8;" horiz-adv-x="335" d="M91 707 Q94 685 112.5 668.5 Q131 652 168 652 Q204 652 222 668.5 Q240 685 243 707 L295 707 Q295 650 259.5 617.5 Q224 585 168 585 Q111 585 75.5 617.5 Q40 650 40 707 L91 707 Z " />
<glyph glyph-name="dotaccent" unicode="&#x2d9;" horiz-adv-x="268" d="M80 709 L188 709 L188 603 L80 603 L80 709 Z " />
<glyph glyph-name="ring" unicode="&#x2da;" horiz-adv-x="300" d="M150 522 Q105 522 77.5 552 Q50 582 50 626 Q50 669 78.5 699.5 Q107 730 150 730 Q195 730 222.5 700 Q250 670 250 626 Q250 581 222.5 551.5 Q195 522 150 522 Z M150 571 Q167 571 181.5 585 Q196 599 196 627 Q196 656 181.5 668.5 Q167 681 150 681 Q133 681 119 668.5 Q105 656 105 627 Q105 599 119 585 Q133 571 150 571 Z " />
<glyph glyph-name="ogonek" unicode="&#x2db;" horiz-adv-x="284" d="M254 -148 Q222 -186 191.5 -199.5 Q161 -213 130 -213 Q112 -213 94.5 -209.5 Q77 -206 62.5 -198 Q48 -190 39 -175.5 Q30 -161 30 -140 Q30 -118 38.5 -98 Q47 -78 60.5 -60 Q74 -42 92 -27 Q110 -12 129 0 L190 0 Q145 -40 127.5 -67.5 Q110 -95 110 -117 Q110 -135 122 -144 Q134 -153 153 -153 Q175 -153 192 -141 Q209 -129 220 -117 L254 -148 Z " />
<glyph glyph-name="tilde" unicode="&#x2dc;" horiz-adv-x="398" d="M50 600 Q57 641 77.5 670 Q98 699 143 699 Q164 699 180 693 Q196 687 209.5 680 Q223 673 235 667 Q247 661 260 661 Q276 661 284 669.5 Q292 678 296 694 L348 694 Q341 654 320.5 624.5 Q300 595 255 595 Q234 595 218 601 Q202 607 188 614 Q174 621 162 627 Q150 633 137 633 Q109 633 101 600 L50 600 Z " />
<glyph glyph-name="hungarumlaut" unicode="&#x2dd;" horiz-adv-x="479" d="M155 710 L255 710 L151 595 L80 595 L155 710 Z M299 710 L399 710 L295 595 L224 595 L299 710 Z " />
<glyph glyph-name="uni0312" unicode="&#x312;" horiz-adv-x="283" d="M187 750 Q164 746 156 733 Q148 720 148 700 L193 700 L193 599 L90 599 L90 685 Q90 726 111.5 753.5 Q133 781 187 785 L187 750 Z " />
<glyph glyph-name="pi" unicode="&#x3c0;" horiz-adv-x="724" d="M92 0 Q119 91 140 192 Q153 249 160.5 293.5 Q168 338 174 389 Q180 440 184 495 Q188 550 188 606 L80 606 L80 700 L654 700 L654 606 L576 606 L576 149 Q576 93 580 58 Q584 23 589 0 L494 0 Q485 16 481 52.5 Q477 89 477 143 L477 606 L286 606 Q286 494 271 386 Q256 278 238 192 Q217 91 190 0 L92 0 Z " />
<glyph glyph-name="Wgrave" unicode="&#x1e80;" horiz-adv-x="902" d="M40 700 L142 700 L242 165 L244 165 L413 700 L490 700 L660 165 L662 165 L762 700 L862 700 L731 0 L619 0 L451 530 L449 530 L284 0 L171 0 L40 700 Z M298 887 L411 887 L491 765 L407 765 L298 887 Z " />
<glyph glyph-name="wgrave" unicode="&#x1e81;" horiz-adv-x="790" d="M439 530 L574 146 L576 146 L654 530 L750 530 L633 0 L539 0 L396 416 L394 416 L251 0 L157 0 L40 530 L136 530 L216 146 L218 146 L351 530 L439 530 Z M239 717 L352 717 L432 595 L348 595 L239 717 Z " />
<glyph glyph-name="Wacute" unicode="&#x1e82;" horiz-adv-x="902" d="M40 700 L142 700 L242 165 L244 165 L413 700 L490 700 L660 165 L662 165 L762 700 L862 700 L731 0 L619 0 L451 530 L449 530 L284 0 L171 0 L40 700 Z M484 887 L597 887 L489 765 L405 765 L484 887 Z " />
<glyph glyph-name="wacute" unicode="&#x1e83;" horiz-adv-x="790" d="M439 530 L574 146 L576 146 L654 530 L750 530 L633 0 L539 0 L396 416 L394 416 L251 0 L157 0 L40 530 L136 530 L216 146 L218 146 L351 530 L439 530 Z M430 717 L543 717 L435 595 L351 595 L430 717 Z " />
<glyph glyph-name="Wdieresis" unicode="&#x1e84;" horiz-adv-x="902" d="M40 700 L142 700 L242 165 L244 165 L413 700 L490 700 L660 165 L662 165 L762 700 L862 700 L731 0 L619 0 L451 530 L449 530 L284 0 L171 0 L40 700 Z M299 864 L400 864 L400 765 L299 765 L299 864 Z M493 864 L595 864 L595 765 L493 765 L493 864 Z " />
<glyph glyph-name="wdieresis" unicode="&#x1e85;" horiz-adv-x="790" d="M439 530 L574 146 L576 146 L654 530 L750 530 L633 0 L539 0 L396 416 L394 416 L251 0 L157 0 L40 530 L136 530 L216 146 L218 146 L351 530 L439 530 Z M239 705 L340 705 L340 606 L239 606 L239 705 Z M433 705 L535 705 L535 606 L433 606 L433 705 Z " />
<glyph glyph-name="Ygrave" unicode="&#x1ef2;" horiz-adv-x="577" d="M239 295 L10 700 L118 700 L287 387 L289 387 L459 700 L567 700 L337 295 L337 0 L239 0 L239 295 Z M154 887 L267 887 L347 765 L263 765 L154 887 Z " />
<glyph glyph-name="ygrave" unicode="&#x1ef3;" horiz-adv-x="521" d="M215 37 L15 530 L117 530 L262 151 L406 530 L506 530 L208 -225 L113 -225 L215 37 Z M117 717 L230 717 L310 595 L226 595 L117 717 Z " />
<glyph glyph-name="endash" unicode="&#x2013;" horiz-adv-x="599" d="M50 378 L549 378 L549 293 L50 293 L50 378 Z " />
<glyph glyph-name="emdash" unicode="&#x2014;" horiz-adv-x="989" d="M100 378 L889 378 L889 293 L100 293 L100 378 Z " />
<glyph glyph-name="quoteleft" unicode="&#x2018;" horiz-adv-x="307" d="M217 647 Q186 642 177.5 626 Q169 610 169 584 L217 584 L217 460 L90 460 L90 569 Q90 622 118.5 658.5 Q147 695 217 700 L217 647 Z " />
<glyph glyph-name="quoteright" unicode="&#x2019;" horiz-adv-x="307" d="M90 513 Q121 518 129.5 534 Q138 550 138 576 L90 576 L90 700 L217 700 L217 591 Q217 538 189 501.5 Q161 465 90 460 L90 513 Z " />
<glyph glyph-name="quotesinglbase" unicode="&#x201a;" horiz-adv-x="307" d="M90 -63 Q121 -58 129.5 -42 Q138 -26 138 0 L90 0 L90 124 L217 124 L217 15 Q217 -38 189 -74.5 Q161 -111 90 -116 L90 -63 Z " />
<glyph glyph-name="quotedblleft" unicode="&#x201c;" horiz-adv-x="497" d="M217 647 Q186 642 177.5 626 Q169 610 169 584 L217 584 L217 460 L90 460 L90 569 Q90 622 118.5 658.5 Q147 695 217 700 L217 647 Z M407 647 Q376 642 367.5 626 Q359 610 359 584 L407 584 L407 460 L280 460 L280 569 Q280 622 308.5 658.5 Q337 695 407 700 L407 647 Z " />
<glyph glyph-name="quotedblright" unicode="&#x201d;" horiz-adv-x="497" d="M90 513 Q121 518 129.5 534 Q138 550 138 576 L90 576 L90 700 L217 700 L217 591 Q217 538 189 501.5 Q161 465 90 460 L90 513 Z M280 513 Q311 518 319.5 534 Q328 550 328 576 L280 576 L280 700 L407 700 L407 591 Q407 538 379 501.5 Q351 465 280 460 L280 513 Z " />
<glyph glyph-name="quotedblbase" unicode="&#x201e;" horiz-adv-x="497" d="M90 -63 Q121 -58 129.5 -42 Q138 -26 138 0 L90 0 L90 124 L217 124 L217 15 Q217 -38 189 -74.5 Q161 -111 90 -116 L90 -63 Z M280 -63 Q311 -58 319.5 -42 Q328 -26 328 0 L280 0 L280 124 L407 124 L407 15 Q407 -38 379 -74.5 Q351 -111 280 -116 L280 -63 Z " />
<glyph glyph-name="dagger" unicode="&#x2020;" horiz-adv-x="628" d="M269 416 L50 416 L50 501 L269 501 L269 730 L359 730 L359 501 L578 501 L578 416 L359 416 L359 -225 L269 -225 L269 416 Z " />
<glyph glyph-name="daggerdbl" unicode="&#x2021;" horiz-adv-x="628" d="M269 0 L50 0 L50 82 L269 82 L269 418 L50 418 L50 501 L269 501 L269 730 L359 730 L359 501 L578 501 L578 418 L359 418 L359 82 L578 82 L578 0 L359 0 L359 -225 L269 -225 L269 0 Z " />
<glyph glyph-name="bullet" unicode="&#x2022;" horiz-adv-x="312" d="M155 245 Q110 245 82.5 274 Q55 303 55 348 Q55 393 82.5 422 Q110 451 155 451 Q201 451 229 422 Q257 393 257 348 Q257 303 229 274 Q201 245 155 245 Z " />
<glyph glyph-name="ellipsis" unicode="&#x2026;" horiz-adv-x="840" d="M90 124 L217 124 L217 0 L90 0 L90 124 Z M358 124 L485 124 L485 0 L358 0 L358 124 Z M622 124 L750 124 L750 0 L622 0 L622 124 Z " />
<glyph glyph-name="perthousand" unicode="&#x2030;" horiz-adv-x="1356" d="M1120 60 Q1164 60 1186 97 Q1208 134 1208 196 Q1208 259 1185 289.5 Q1162 320 1120 320 Q1078 320 1055 289 Q1032 258 1032 196 Q1032 134 1053.5 97 Q1075 60 1120 60 Z M1120 -12 Q1047 -12 1001 40.5 Q955 93 955 197 Q955 247 969.5 283.5 Q984 320 1007 344.5 Q1030 369 1060 381 Q1090 393 1120 393 Q1150 393 1180 381 Q1210 369 1233.5 344.5 Q1257 320 1271.5 283.5 Q1286 247 1286 197 Q1286 149 1273.5 110.5 Q1261 72 1239 44.5 Q1217 17 1186.5 2.5 Q1156 -12 1120 -12 Z M235 379 Q279 379 301 416 Q323 453 323 515 Q323 578 300 608.5 Q277 639 235 639 Q193 639 170 608 Q147 577 147 515 Q147 453 168.5 416 Q190 379 235 379 Z M235 307 Q162 307 116 359.5 Q70 412 70 516 Q70 566 84.5 602.5 Q99 639 122 663.5 Q145 688 175 700 Q205 712 235 712 Q265 712 295 700 Q325 688 348.5 663.5 Q372 639 386.5 602.5 Q401 566 401 516 Q401 413 354.5 360 Q308 307 235 307 Z M711 60 Q755 60 777 97 Q799 134 799 196 Q799 259 776 289.5 Q753 320 711 320 Q669 320 646 289 Q623 258 623 196 Q623 134 644.5 97 Q666 60 711 60 Z M711 -12 Q638 -12 592 40.5 Q546 93 546 197 Q546 247 560.5 283.5 Q575 320 598 344.5 Q621 369 651 381 Q681 393 711 393 Q741 393 771 381 Q801 369 824.5 344.5 Q848 320 862.5 283.5 Q877 247 877 197 Q877 94 830.5 41 Q784 -12 711 -12 Z M677 778 L735 741 L247 -73 L188 -37 L677 778 Z " />
<glyph glyph-name="guilsinglleft" unicode="&#x2039;" horiz-adv-x="373" d="M90 281 L198 467 L289 467 L179 281 L293 90 L202 90 L90 281 Z " />
<glyph glyph-name="guilsinglright" unicode="&#x203a;" horiz-adv-x="373" d="M161 90 L70 90 L184 281 L74 467 L165 467 L273 281 L161 90 Z " />
<glyph glyph-name="fraction" unicode="&#x2044;" horiz-adv-x="327" d="M379 778 L437 741 L-51 -73 L-110 -37 L379 778 Z " />
<glyph glyph-name="zerosuperior" unicode="&#x2070;" horiz-adv-x="390" d="M195 468 Q125 468 80 521 Q35 574 35 692 Q35 800 80 852.5 Q125 905 195 905 Q264 905 309.5 852.5 Q355 800 355 692 Q355 633 343 590.5 Q331 548 310 521 Q289 494 259.5 481 Q230 468 195 468 Z M195 538 Q237 538 257.5 572.5 Q278 607 278 693 Q278 768 257 801.5 Q236 835 195 835 Q154 835 133 801.5 Q112 768 112 693 Q112 607 132.5 572.5 Q153 538 195 538 Z " />
<glyph glyph-name="foursuperior" unicode="&#x2074;" horiz-adv-x="382" d="M25 633 L187 900 L292 900 L292 633 L342 633 L342 565 L292 565 L292 473 L218 473 L218 565 L25 565 L25 633 Z M219 633 L219 835 L217 835 L94 633 L219 633 Z " />
<glyph glyph-name="fivesuperior" unicode="&#x2075;" horiz-adv-x="384" d="M103 612 Q112 577 135 556.5 Q158 536 193 536 Q229 536 253 556.5 Q277 577 277 619 Q277 661 252.5 681.5 Q228 702 195 702 Q163 702 141 688 Q119 674 106 657 L49 685 L86 900 L307 900 L307 832 L142 832 L122 725 L124 725 Q131 734 152.5 747 Q174 760 214 760 Q241 760 265.5 749.5 Q290 739 308.5 720.5 Q327 702 338 676 Q349 650 349 618 Q349 582 336.5 554 Q324 526 303 507 Q282 488 253.5 478 Q225 468 193 468 Q127 468 89.5 500 Q52 532 35 580 L103 612 Z " />
<glyph glyph-name="sixsuperior" unicode="&#x2076;" horiz-adv-x="391" d="M208 538 Q249 538 267.5 560.5 Q286 583 286 617 Q286 652 265.5 674.5 Q245 697 206 697 Q167 697 145.5 673 Q124 649 124 620 Q124 581 147.5 559.5 Q171 538 208 538 Z M112 702 Q115 709 123.5 718 Q132 727 146 735.5 Q160 744 179 749.5 Q198 755 222 755 Q246 755 270 746 Q294 737 313 719.5 Q332 702 344 675.5 Q356 649 356 614 Q356 579 344.5 552 Q333 525 312.5 506 Q292 487 265 477.5 Q238 468 208 468 Q172 468 140.5 481 Q109 494 85.5 520 Q62 546 48.5 586 Q35 626 35 681 Q35 727 46.5 767.5 Q58 808 80.5 838.5 Q103 869 135 887 Q167 905 207 905 Q237 905 260 896 Q283 887 299.5 872 Q316 857 326.5 837.5 Q337 818 341 797 L274 779 Q259 839 202 839 Q162 839 136.5 802 Q111 765 110 702 L112 702 Z " />
<glyph glyph-name="sevensuperior" unicode="&#x2077;" horiz-adv-x="311" d="M219 830 L219 832 L5 832 L5 900 L291 900 L291 820 L109 473 L23 473 L219 830 Z " />
<glyph glyph-name="eightsuperior" unicode="&#x2078;" horiz-adv-x="350" d="M113 787 Q113 766 128 749 Q143 732 175 732 Q207 732 221.5 749 Q236 766 236 787 Q236 808 221.5 825.5 Q207 843 175 843 Q143 843 128 825.5 Q113 808 113 787 Z M99 707 Q44 732 44 793 Q44 816 53.5 836.5 Q63 857 80.5 872 Q98 887 122 896 Q146 905 175 905 Q204 905 228.5 896 Q253 887 270.5 872 Q288 857 298 836.5 Q308 816 308 793 Q308 735 252 707 L252 705 Q284 694 304.5 664 Q325 634 325 596 Q325 534 282.5 501 Q240 468 175 468 Q110 468 67.5 501 Q25 534 25 596 Q25 634 45 664 Q65 694 99 705 L99 707 Z M96 603 Q96 571 115 553.5 Q134 536 175 536 Q215 536 234.5 553.5 Q254 571 254 603 Q254 635 234.5 655.5 Q215 676 175 676 Q135 676 115.5 655.5 Q96 635 96 603 Z " />
<glyph glyph-name="ninesuperior" unicode="&#x2079;" horiz-adv-x="382" d="M111 596 Q118 568 136.5 551 Q155 534 191 534 Q228 534 251 564.5 Q274 595 272 668 L270 668 Q269 663 262.5 654 Q256 645 243.5 636.5 Q231 628 213 622 Q195 616 169 616 Q144 616 119 625.5 Q94 635 74 653.5 Q54 672 42 698.5 Q30 725 30 759 Q30 793 41.5 820 Q53 847 73 866 Q93 885 120 895 Q147 905 177 905 Q209 905 238.5 893 Q268 881 291 854.5 Q314 828 328 786 Q342 744 342 684 Q342 572 300.5 520 Q259 468 188 468 Q153 468 128 477.5 Q103 487 86 502 Q69 517 59.5 535.5 Q50 554 45 572 L111 596 Z M180 681 Q215 681 237 699.5 Q259 718 259 755 Q259 790 237.5 814 Q216 838 177 838 Q142 838 121 816 Q100 794 100 759 Q100 724 121 702.5 Q142 681 180 681 Z " />
<glyph glyph-name="plussuperior" unicode="&#x207a;" horiz-adv-x="433" d="M184 669 L50 669 L50 731 L184 731 L184 867 L249 867 L249 731 L383 731 L383 669 L249 669 L249 517 L184 517 L184 669 Z " />
<glyph glyph-name="minussuperior" unicode="&#x207b;" horiz-adv-x="403" d="M50 669 L50 731 L353 731 L353 669 L50 669 Z " />
<glyph glyph-name="zeroinferior" unicode="&#x2080;" horiz-adv-x="390" d="M195 -205 Q125 -205 80 -152 Q35 -99 35 19 Q35 127 80 179.5 Q125 232 195 232 Q264 232 309.5 179.5 Q355 127 355 19 Q355 -40 343 -82.5 Q331 -125 310 -152 Q289 -179 259.5 -192 Q230 -205 195 -205 Z M195 -135 Q237 -135 257.5 -100.5 Q278 -66 278 20 Q278 95 257 128.5 Q236 162 195 162 Q154 162 133 128.5 Q112 95 112 20 Q112 -66 132.5 -100.5 Q153 -135 195 -135 Z " />
<glyph glyph-name="oneinferior" unicode="&#x2081;" horiz-adv-x="264" d="M112 141 L20 84 L20 166 L118 227 L184 227 L184 -200 L112 -200 L112 141 Z " />
<glyph glyph-name="twoinferior" unicode="&#x2082;" horiz-adv-x="356" d="M34 -143 Q34 -88 62 -54 Q77 -35 101 -20.5 Q125 -6 155 9 Q177 21 195 30.5 Q213 40 226 50.5 Q239 61 246 74 Q253 87 253 105 Q253 128 236.5 147 Q220 166 182 166 Q144 166 125 143.5 Q106 121 101 78 L30 87 Q34 156 74 194 Q114 232 183 232 Q243 232 283 197 Q323 162 323 100 Q323 73 313.5 52.5 Q304 32 288 16 Q272 0 252 -12.5 Q232 -25 211 -35 Q170 -55 151 -66.5 Q132 -78 124 -91 Q119 -99 117.5 -108 Q116 -117 116 -125 L326 -125 L326 -200 L34 -200 L34 -143 Z " />
<glyph glyph-name="threeinferior" unicode="&#x2083;" horiz-adv-x="349" d="M87 -43 Q93 -91 114 -115 Q135 -139 176 -139 Q215 -139 235 -120.5 Q255 -102 255 -72 Q255 -40 233.5 -23 Q212 -6 172 -6 L145 -6 L145 53 L167 53 Q193 53 214.5 65 Q236 77 236 106 Q236 133 219.5 149 Q203 165 171 165 Q140 165 124.5 147.5 Q109 130 104 98 L36 111 Q41 168 78 200 Q115 232 174 232 Q229 232 267 201.5 Q305 171 305 117 Q305 98 299 83 Q293 68 284.5 57.5 Q276 47 266.5 41 Q257 35 250 32 L250 30 Q260 27 273 20 Q286 13 297 0 Q308 -13 316 -32.5 Q324 -52 324 -78 Q324 -131 286 -168 Q248 -205 176 -205 Q110 -205 67 -169.5 Q24 -134 15 -59 L87 -43 Z " />
<glyph glyph-name="fourinferior" unicode="&#x2084;" horiz-adv-x="382" d="M25 -40 L187 227 L292 227 L292 -40 L342 -40 L342 -108 L292 -108 L292 -200 L218 -200 L218 -108 L25 -108 L25 -40 Z M219 -40 L219 162 L217 162 L94 -40 L219 -40 Z " />
<glyph glyph-name="fiveinferior" unicode="&#x2085;" horiz-adv-x="384" d="M103 -61 Q112 -96 135 -116.5 Q158 -137 193 -137 Q229 -137 253 -116.5 Q277 -96 277 -54 Q277 -12 252.5 8.5 Q228 29 195 29 Q163 29 141 15 Q119 1 106 -16 L49 12 L86 227 L307 227 L307 159 L142 159 L122 52 L124 52 Q131 61 152.5 74 Q174 87 214 87 Q241 87 265.5 76.5 Q290 66 308.5 47.5 Q327 29 338 2.5 Q349 -24 349 -55 Q349 -91 336.5 -119 Q324 -147 303 -166 Q282 -185 253.5 -195 Q225 -205 193 -205 Q127 -205 89.5 -173 Q52 -141 35 -93 L103 -61 Z " />
<glyph glyph-name="sixinferior" unicode="&#x2086;" horiz-adv-x="391" d="M208 -136 Q249 -136 267.5 -113.5 Q286 -91 286 -57 Q286 -22 265.5 0.5 Q245 23 206 23 Q167 23 145.5 -1 Q124 -25 124 -54 Q124 -93 147.5 -114.5 Q171 -136 208 -136 Z M112 28 Q115 35 123.5 44 Q132 53 146 61.5 Q160 70 179 75.5 Q198 81 222 81 Q246 81 270 72 Q294 63 313 45.5 Q332 28 344 1.5 Q356 -25 356 -60 Q356 -95 344.5 -122 Q333 -149 312.5 -168 Q292 -187 265 -196.5 Q238 -206 208 -206 Q172 -206 140.5 -193.5 Q109 -181 85.5 -154.5 Q62 -128 48.5 -88 Q35 -48 35 7 Q35 53 46.5 93.5 Q58 134 80.5 164.5 Q103 195 135 213 Q167 231 207 231 Q237 231 260 222 Q283 213 299.5 198 Q316 183 326.5 163.5 Q337 144 341 123 L274 105 Q259 165 202 165 Q162 165 136.5 128 Q111 91 110 28 L112 28 Z " />
<glyph glyph-name="seveninferior" unicode="&#x2087;" horiz-adv-x="311" d="M219 157 L219 159 L5 159 L5 227 L291 227 L291 147 L109 -200 L23 -200 L219 157 Z " />
<glyph glyph-name="eightinferior" unicode="&#x2088;" horiz-adv-x="350" d="M113 114 Q113 93 128 76 Q143 59 175 59 Q207 59 221.5 76 Q236 93 236 114 Q236 135 221.5 152.5 Q207 170 175 170 Q143 170 128 152.5 Q113 135 113 114 Z M99 34 Q44 59 44 120 Q44 143 53.5 163.5 Q63 184 80.5 199 Q98 214 122 223 Q146 232 175 232 Q204 232 228.5 223 Q253 214 270.5 199 Q288 184 298 163.5 Q308 143 308 120 Q308 62 252 34 L252 32 Q284 21 304.5 -9 Q325 -39 325 -77 Q325 -139 282.5 -172 Q240 -205 175 -205 Q110 -205 67.5 -172 Q25 -139 25 -77 Q25 -39 45 -9 Q65 21 99 32 L99 34 Z M96 -70 Q96 -102 115 -119.5 Q134 -137 175 -137 Q215 -137 234.5 -119.5 Q254 -102 254 -70 Q254 -38 234.5 -17.5 Q215 3 175 3 Q135 3 115.5 -17.5 Q96 -38 96 -70 Z " />
<glyph glyph-name="nineinferior" unicode="&#x2089;" horiz-adv-x="382" d="M111 -77 Q118 -105 136.5 -122 Q155 -139 191 -139 Q228 -139 251 -108.5 Q274 -78 272 -5 L270 -5 Q269 -10 262.5 -19 Q256 -28 243.5 -36.5 Q231 -45 213 -51 Q195 -57 169 -57 Q144 -57 119 -47.5 Q94 -38 74 -19.5 Q54 -1 42 25.5 Q30 52 30 86 Q30 120 41.5 147 Q53 174 73 193 Q93 212 120 222 Q147 232 177 232 Q209 232 238.5 220 Q268 208 291 181.5 Q314 155 328 113 Q342 71 342 11 Q342 -101 300.5 -153 Q259 -205 188 -205 Q153 -205 128 -195.5 Q103 -186 86 -171 Q69 -156 59.5 -137.5 Q50 -119 45 -101 L111 -77 Z M180 8 Q215 8 237 26.5 Q259 45 259 82 Q259 117 237.5 141 Q216 165 177 165 Q142 165 121 143 Q100 121 100 86 Q100 51 121 29.5 Q142 8 180 8 Z " />
<glyph glyph-name="Euro" unicode="&#x20ac;" horiz-adv-x="780" d="M152 305 Q151 317 150.5 329.5 Q150 342 150 356 Q150 364 150 370.5 Q150 377 151 385 L70 385 L70 460 L160 460 Q174 524 202.5 572 Q231 620 269.5 651.5 Q308 683 354.5 699 Q401 715 449 715 Q505 715 551.5 697.5 Q598 680 633 648 Q668 616 690 570 Q712 524 719 468 L620 452 Q616 485 604 516.5 Q592 548 571.5 572 Q551 596 521 610.5 Q491 625 449 625 Q387 625 335 584 Q283 543 263 460 L455 460 L455 385 L252 385 L252 356 Q252 342 252 329.5 Q252 317 254 305 L455 305 L455 230 L267 230 Q288 151 337.5 113 Q387 75 449 75 Q492 75 522 90.5 Q552 106 572 132.5 Q592 159 602.5 193.5 Q613 228 616 266 L720 250 Q715 189 694 140 Q673 91 638.5 56.5 Q604 22 556 3.5 Q508 -15 449 -15 Q402 -15 356.5 -1.5 Q311 12 273 41.5 Q235 71 206 117.5 Q177 164 162 230 L70 230 L70 305 L152 305 Z " />
<glyph glyph-name="trademark" unicode="&#x2122;" horiz-adv-x="761" d="M148 639 L50 639 L50 700 L308 700 L308 639 L213 639 L213 361 L148 361 L148 639 Z M357 700 L435 700 L540 451 L542 451 L648 700 L726 700 L726 361 L663 361 L663 599 L661 599 L563 361 L519 361 L422 595 L420 595 L420 361 L357 361 L357 700 Z " />
<glyph glyph-name="Omega" unicode="&#x2126;" horiz-adv-x="698" d="M63 80 L170 80 Q125 118 92.5 190 Q60 262 60 361 Q60 451 83.5 518 Q107 585 146.5 628.5 Q186 672 238.5 693.5 Q291 715 349 715 Q407 715 459.5 693.5 Q512 672 551.5 628.5 Q591 585 614.5 518 Q638 451 638 361 Q638 262 605.5 190 Q573 118 527 80 L635 80 L635 0 L384 0 L384 59 Q382 67 384 75 Q414 81 441 100.5 Q468 120 489 154 Q510 188 522.5 236 Q535 284 535 347 Q535 420 520.5 471.5 Q506 523 480.5 556 Q455 589 421 604 Q387 619 349 619 Q311 619 277.5 603.5 Q244 588 218.5 555 Q193 522 178 470.5 Q163 419 163 347 Q163 284 175 236 Q187 188 208 154 Q229 120 256.5 100.5 Q284 81 314 75 L314 0 L63 0 L63 80 Z " />
<glyph glyph-name="onethird" unicode="&#x2153;" horiz-adv-x="857" d="M615 778 L673 741 L185 -73 L126 -37 L615 778 Z M117 614 L25 557 L25 639 L123 700 L189 700 L189 273 L117 273 L117 614 Z M565 157 Q571 109 592 85 Q613 61 654 61 Q693 61 713 79.5 Q733 98 733 128 Q733 160 711.5 177 Q690 194 650 194 L623 194 L623 253 L645 253 Q671 253 692.5 265 Q714 277 714 306 Q714 333 697.5 349 Q681 365 649 365 Q618 365 602.5 347.5 Q587 330 582 298 L514 311 Q519 368 556 400 Q593 432 652 432 Q707 432 745 401.5 Q783 371 783 317 Q783 298 777 283 Q771 268 762.5 257.5 Q754 247 744.5 241 Q735 235 728 232 L728 230 Q738 227 751 220 Q764 213 775 200 Q786 187 794 167.5 Q802 148 802 122 Q802 70 764 32.5 Q726 -5 654 -5 Q588 -5 545 30.5 Q502 66 493 141 L565 157 Z " />
<glyph glyph-name="twothirds" unicode="&#x2154;" horiz-adv-x="952" d="M717 778 L775 741 L287 -73 L228 -37 L717 778 Z M24 330 Q24 385 52 419 Q67 438 91 452.5 Q115 467 145 482 Q167 494 185 503.5 Q203 513 216 523.5 Q229 534 236 547 Q243 560 243 578 Q243 601 226.5 620 Q210 639 172 639 Q134 639 115 616.5 Q96 594 91 551 L20 560 Q24 629 64 667 Q104 705 173 705 Q233 705 273 670 Q313 635 313 573 Q313 546 303.5 525.5 Q294 505 278 489 Q262 473 242 461 Q222 449 201 438 Q160 418 141 406.5 Q122 395 114 382 Q109 374 107.5 365 Q106 356 106 348 L316 348 L316 273 L24 273 L24 330 Z M660 159 Q666 111 687 87 Q708 63 749 63 Q788 63 808 81.5 Q828 100 828 130 Q828 162 806.5 179 Q785 196 745 196 L718 196 L718 255 L740 255 Q766 255 787.5 267 Q809 279 809 308 Q809 335 792.5 351 Q776 367 744 367 Q713 367 697.5 349.5 Q682 332 677 300 L609 313 Q614 370 651 402 Q688 434 747 434 Q802 434 840 403.5 Q878 373 878 319 Q878 300 872 285 Q866 270 857.5 259.5 Q849 249 839.5 243 Q830 237 823 234 L823 232 Q833 229 846 222 Q859 215 870 202 Q881 189 889 169.5 Q897 150 897 124 Q897 72 859 34.5 Q821 -3 749 -3 Q683 -3 640 32.5 Q597 68 588 143 L660 159 Z " />
<glyph glyph-name="onefifth" unicode="&#x2155;" horiz-adv-x="858" d="M615 778 L673 741 L185 -73 L126 -37 L615 778 Z M117 614 L25 557 L25 639 L123 700 L189 700 L189 273 L117 273 L117 614 Z M582 139 Q591 104 614 83.5 Q637 63 672 63 Q708 63 732 83.5 Q756 104 756 146 Q756 188 731.5 208.5 Q707 229 674 229 Q642 229 620 215 Q598 201 585 184 L528 212 L565 427 L786 427 L786 359 L621 359 L601 252 L603 252 Q610 261 631.5 274 Q653 287 693 287 Q720 287 744.5 276.5 Q769 266 787.5 247.5 Q806 229 817 203 Q828 177 828 145 Q828 109 815.5 81 Q803 53 782 34 Q761 15 732.5 5 Q704 -5 672 -5 Q606 -5 568.5 27 Q531 59 514 107 L582 139 Z " />
<glyph glyph-name="twofifths" unicode="&#x2156;" horiz-adv-x="961" d="M717 778 L775 741 L287 -73 L228 -37 L717 778 Z M24 330 Q24 385 52 419 Q67 438 91 452.5 Q115 467 145 482 Q167 494 185 503.5 Q203 513 216 523.5 Q229 534 236 547 Q243 560 243 578 Q243 601 226.5 620 Q210 639 172 639 Q134 639 115 616.5 Q96 594 91 551 L20 560 Q24 629 64 667 Q104 705 173 705 Q233 705 273 670 Q313 635 313 573 Q313 546 303.5 525.5 Q294 505 278 489 Q262 473 242 461 Q222 449 201 438 Q160 418 141 406.5 Q122 395 114 382 Q109 374 107.5 365 Q106 356 106 348 L316 348 L316 273 L24 273 L24 330 Z M685 139 Q694 104 717 83.5 Q740 63 775 63 Q811 63 835 83.5 Q859 104 859 146 Q859 188 834.5 208.5 Q810 229 777 229 Q745 229 723 215 Q701 201 688 184 L631 212 L668 427 L889 427 L889 359 L724 359 L704 252 L706 252 Q713 261 734.5 274 Q756 287 796 287 Q823 287 847.5 276.5 Q872 266 890.5 247.5 Q909 229 920 203 Q931 177 931 145 Q931 109 918.5 81 Q906 53 885 34 Q864 15 835.5 5 Q807 -5 775 -5 Q709 -5 671.5 27 Q634 59 617 107 L685 139 Z " />
<glyph glyph-name="threefifths" unicode="&#x2157;" horiz-adv-x="953" d="M697 778 L755 741 L267 -73 L208 -37 L697 778 Z M107 430 Q113 382 134 358 Q155 334 196 334 Q235 334 255 352.5 Q275 371 275 401 Q275 433 253.5 450 Q232 467 192 467 L165 467 L165 526 L187 526 Q213 526 234.5 538 Q256 550 256 579 Q256 606 239.5 622 Q223 638 191 638 Q160 638 144.5 620.5 Q129 603 124 571 L56 584 Q61 641 98 673 Q135 705 194 705 Q249 705 287 674.5 Q325 644 325 590 Q325 571 319 556 Q313 541 304.5 530.5 Q296 520 286.5 514 Q277 508 270 505 L270 503 Q280 500 293 493 Q306 486 317 473 Q328 460 336 440.5 Q344 421 344 395 Q344 343 306 305.5 Q268 268 196 268 Q130 268 87 303.5 Q44 339 35 414 L107 430 Z M677 139 Q686 104 709 83.5 Q732 63 767 63 Q803 63 827 83.5 Q851 104 851 146 Q851 188 826.5 208.5 Q802 229 769 229 Q737 229 715 215 Q693 201 680 184 L623 212 L660 427 L881 427 L881 359 L716 359 L696 252 L698 252 Q705 261 726.5 274 Q748 287 788 287 Q815 287 839.5 276.5 Q864 266 882.5 247.5 Q901 229 912 203 Q923 177 923 145 Q923 109 910.5 81 Q898 53 877 34 Q856 15 827.5 5 Q799 -5 767 -5 Q701 -5 663.5 27 Q626 59 609 107 L677 139 Z " />
<glyph glyph-name="fourfifths" unicode="&#x2158;" horiz-adv-x="958" d="M704 778 L762 741 L274 -73 L215 -37 L704 778 Z M25 433 L187 700 L292 700 L292 433 L342 433 L342 365 L292 365 L292 273 L218 273 L218 365 L25 365 L25 433 Z M219 433 L219 635 L217 635 L94 433 L219 433 Z M682 139 Q691 104 714 83.5 Q737 63 772 63 Q808 63 832 83.5 Q856 104 856 146 Q856 188 831.5 208.5 Q807 229 774 229 Q742 229 720 215 Q698 201 685 184 L628 212 L665 427 L886 427 L886 359 L721 359 L701 252 L703 252 Q710 261 731.5 274 Q753 287 793 287 Q820 287 844.5 276.5 Q869 266 887.5 247.5 Q906 229 917 203 Q928 177 928 145 Q928 109 915.5 81 Q903 53 882 34 Q861 15 832.5 5 Q804 -5 772 -5 Q706 -5 668.5 27 Q631 59 614 107 L682 139 Z " />
<glyph glyph-name="onesixth" unicode="&#x2159;" horiz-adv-x="856" d="M615 778 L673 741 L185 -73 L126 -37 L615 778 Z M117 614 L25 557 L25 639 L123 700 L189 700 L189 273 L117 273 L117 614 Z M678 65 Q719 65 737.5 87.5 Q756 110 756 144 Q756 179 735.5 201.5 Q715 224 676 224 Q637 224 615.5 200 Q594 176 594 147 Q594 108 617.5 86.5 Q641 65 678 65 Z M582 229 Q585 236 593.5 245 Q602 254 616 262.5 Q630 271 649 276.5 Q668 282 692 282 Q716 282 740 273 Q764 264 783 246.5 Q802 229 814 202.5 Q826 176 826 141 Q826 106 814.5 79 Q803 52 782.5 33 Q762 14 735 4.5 Q708 -5 678 -5 Q642 -5 610.5 8 Q579 21 555.5 47 Q532 73 518.5 113 Q505 153 505 208 Q505 254 516.5 294.5 Q528 335 550.5 365.5 Q573 396 605 414 Q637 432 677 432 Q707 432 730 423 Q753 414 769.5 399 Q786 384 796.5 364.5 Q807 345 811 324 L744 306 Q729 366 672 366 Q632 366 606.5 329 Q581 292 580 229 L582 229 Z " />
<glyph glyph-name="fivesixths" unicode="&#x215a;" horiz-adv-x="939" d="M689 778 L747 741 L259 -73 L200 -37 L689 778 Z M108 412 Q117 377 140 356.5 Q163 336 198 336 Q234 336 258 356.5 Q282 377 282 419 Q282 461 257.5 481.5 Q233 502 200 502 Q168 502 146 488 Q124 474 111 457 L54 485 L91 700 L312 700 L312 632 L147 632 L127 525 L129 525 Q136 534 157.5 547 Q179 560 219 560 Q246 560 270.5 549.5 Q295 539 313.5 520.5 Q332 502 343 476 Q354 450 354 418 Q354 382 341.5 354 Q329 326 308 307 Q287 288 258.5 278 Q230 268 198 268 Q132 268 94.5 300 Q57 332 40 380 L108 412 Z M756 65 Q797 65 815.5 87.5 Q834 110 834 144 Q834 179 813.5 201.5 Q793 224 754 224 Q715 224 693.5 200 Q672 176 672 147 Q672 108 695.5 86.5 Q719 65 756 65 Z M660 229 Q663 236 671.5 245 Q680 254 694 262.5 Q708 271 727 276.5 Q746 282 770 282 Q794 282 818 273 Q842 264 861 246.5 Q880 229 892 202.5 Q904 176 904 141 Q904 106 892.5 79 Q881 52 860.5 33 Q840 14 813 4.5 Q786 -5 756 -5 Q720 -5 688.5 8 Q657 21 633.5 47 Q610 73 596.5 113 Q583 153 583 208 Q583 254 594.5 294.5 Q606 335 628.5 365.5 Q651 396 683 414 Q715 432 755 432 Q785 432 808 423 Q831 414 847.5 399 Q864 384 874.5 364.5 Q885 345 889 324 L822 306 Q807 366 750 366 Q710 366 684.5 329 Q659 292 658 229 L660 229 Z " />
<glyph glyph-name="oneeighth" unicode="&#x215b;" horiz-adv-x="840" d="M615 778 L673 741 L185 -73 L126 -37 L615 778 Z M117 614 L25 557 L25 639 L123 700 L189 700 L189 273 L117 273 L117 614 Z M578 314 Q578 293 593 276 Q608 259 640 259 Q672 259 686.5 276 Q701 293 701 314 Q701 335 686.5 352.5 Q672 370 640 370 Q608 370 593 352.5 Q578 335 578 314 Z M564 234 Q509 259 509 320 Q509 343 518.5 363.5 Q528 384 545.5 399 Q563 414 587 423 Q611 432 640 432 Q669 432 693.5 423 Q718 414 735.5 399 Q753 384 763 363.5 Q773 343 773 320 Q773 262 717 234 L717 232 Q749 221 769.5 191 Q790 161 790 123 Q790 61 747.5 28 Q705 -5 640 -5 Q575 -5 532.5 28 Q490 61 490 123 Q490 161 510 191 Q530 221 564 232 L564 234 Z M561 130 Q561 98 580 80.5 Q599 63 640 63 Q680 63 699.5 80.5 Q719 98 719 130 Q719 162 699.5 182.5 Q680 203 640 203 Q600 203 580.5 182.5 Q561 162 561 130 Z " />
<glyph glyph-name="threeeighths" unicode="&#x215c;" horiz-adv-x="947" d="M697 778 L755 741 L267 -73 L208 -37 L697 778 Z M107 430 Q113 382 134 358 Q155 334 196 334 Q235 334 255 352.5 Q275 371 275 401 Q275 433 253.5 450 Q232 467 192 467 L165 467 L165 526 L187 526 Q213 526 234.5 538 Q256 550 256 579 Q256 606 239.5 622 Q223 638 191 638 Q160 638 144.5 620.5 Q129 603 124 571 L56 584 Q61 641 98 673 Q135 705 194 705 Q249 705 287 674.5 Q325 644 325 590 Q325 571 319 556 Q313 541 304.5 530.5 Q296 520 286.5 514 Q277 508 270 505 L270 503 Q280 500 293 493 Q306 486 317 473 Q328 460 336 440.5 Q344 421 344 395 Q344 343 306 305.5 Q268 268 196 268 Q130 268 87 303.5 Q44 339 35 414 L107 430 Z M685 314 Q685 293 700 276 Q715 259 747 259 Q779 259 793.5 276 Q808 293 808 314 Q808 335 793.5 352.5 Q779 370 747 370 Q715 370 700 352.5 Q685 335 685 314 Z M671 234 Q616 259 616 320 Q616 343 625.5 363.5 Q635 384 652.5 399 Q670 414 694 423 Q718 432 747 432 Q776 432 800.5 423 Q825 414 842.5 399 Q860 384 870 363.5 Q880 343 880 320 Q880 262 824 234 L824 232 Q856 221 876.5 191 Q897 161 897 123 Q897 61 854.5 28 Q812 -5 747 -5 Q682 -5 639.5 28 Q597 61 597 123 Q597 161 617 191 Q637 221 671 232 L671 234 Z M668 130 Q668 98 687 80.5 Q706 63 747 63 Q787 63 806.5 80.5 Q826 98 826 130 Q826 162 806.5 182.5 Q787 203 747 203 Q707 203 687.5 182.5 Q668 162 668 130 Z " />
<glyph glyph-name="fiveeighths" unicode="&#x215d;" horiz-adv-x="933" d="M689 778 L747 741 L259 -73 L200 -37 L689 778 Z M108 412 Q117 377 140 356.5 Q163 336 198 336 Q234 336 258 356.5 Q282 377 282 419 Q282 461 257.5 481.5 Q233 502 200 502 Q168 502 146 488 Q124 474 111 457 L54 485 L91 700 L312 700 L312 632 L147 632 L127 525 L129 525 Q136 534 157.5 547 Q179 560 219 560 Q246 560 270.5 549.5 Q295 539 313.5 520.5 Q332 502 343 476 Q354 450 354 418 Q354 382 341.5 354 Q329 326 308 307 Q287 288 258.5 278 Q230 268 198 268 Q132 268 94.5 300 Q57 332 40 380 L108 412 Z M671 314 Q671 293 686 276 Q701 259 733 259 Q765 259 779.5 276 Q794 293 794 314 Q794 335 779.5 352.5 Q765 370 733 370 Q701 370 686 352.5 Q671 335 671 314 Z M657 234 Q602 259 602 320 Q602 343 611.5 363.5 Q621 384 638.5 399 Q656 414 680 423 Q704 432 733 432 Q762 432 786.5 423 Q811 414 828.5 399 Q846 384 856 363.5 Q866 343 866 320 Q866 262 810 234 L810 232 Q842 221 862.5 191 Q883 161 883 123 Q883 61 840.5 28 Q798 -5 733 -5 Q668 -5 625.5 28 Q583 61 583 123 Q583 161 603 191 Q623 221 657 232 L657 234 Z M654 130 Q654 98 673 80.5 Q692 63 733 63 Q773 63 792.5 80.5 Q812 98 812 130 Q812 162 792.5 182.5 Q773 203 733 203 Q693 203 673.5 182.5 Q654 162 654 130 Z " />
<glyph glyph-name="seveneighths" unicode="&#x215e;" horiz-adv-x="873" d="M626 778 L684 741 L196 -73 L137 -37 L626 778 Z M234 630 L234 632 L20 632 L20 700 L306 700 L306 620 L124 273 L38 273 L234 630 Z M611 314 Q611 293 626 276 Q641 259 673 259 Q705 259 719.5 276 Q734 293 734 314 Q734 335 719.5 352.5 Q705 370 673 370 Q641 370 626 352.5 Q611 335 611 314 Z M597 234 Q542 259 542 320 Q542 343 551.5 363.5 Q561 384 578.5 399 Q596 414 620 423 Q644 432 673 432 Q702 432 726.5 423 Q751 414 768.5 399 Q786 384 796 363.5 Q806 343 806 320 Q806 262 750 234 L750 232 Q782 221 802.5 191 Q823 161 823 123 Q823 61 780.5 28 Q738 -5 673 -5 Q608 -5 565.5 28 Q523 61 523 123 Q523 161 543 191 Q563 221 597 232 L597 234 Z M594 130 Q594 98 613 80.5 Q632 63 673 63 Q713 63 732.5 80.5 Q752 98 752 130 Q752 162 732.5 182.5 Q713 203 673 203 Q633 203 613.5 182.5 Q594 162 594 130 Z " />
<glyph glyph-name="leftwardsarrow" unicode="&#x2190;" horiz-adv-x="700" d="M620 302 L149 302 L275 97 L195 49 L15 346 L194 641 L274 594 L149 392 L620 392 L620 302 Z " />
<glyph glyph-name="upwardsarrow" unicode="&#x2191;" horiz-adv-x="661" d="M375 41 L285 41 L286 516 L82 388 L35 467 L330 646 L626 467 L578 388 L375 516 L375 41 Z " />
<glyph glyph-name="rightwordsarrow" unicode="&#x2192;" horiz-adv-x="700" d="M60 392 L531 392 L406 594 L486 641 L665 346 L485 49 L405 97 L531 302 L60 302 L60 392 Z " />
<glyph glyph-name="downwardsarrow" unicode="&#x2193;" horiz-adv-x="661" d="M365 171 L568 299 L616 220 L320 41 L25 220 L72 299 L276 171 L275 646 L365 646 L365 171 Z " />
<glyph glyph-name="leftrightarrow" unicode="&#x2194;" horiz-adv-x="843" d="M164 302 L291 99 L213 52 L35 346 L211 637 L290 590 L165 391 L678 391 L552 590 L631 637 L808 346 L630 52 L552 99 L678 302 L164 302 Z " />
<glyph glyph-name="updownarrow" unicode="&#x2195;" horiz-adv-x="663" d="M82 214 L285 85 L285 600 L83 472 L35 551 L331 730 L628 551 L580 472 L377 600 L377 85 L580 214 L628 134 L331 -44 L35 134 L82 214 Z " />
<glyph glyph-name="northwestarrow" unicode="&#x2196;" horiz-adv-x="620" d="M517 91 L180 429 L126 194 L40 214 L122 550 L455 631 L475 545 L242 491 L580 154 L517 91 Z " />
<glyph glyph-name="northeastarrow" unicode="&#x2197;" horiz-adv-x="620" d="M30 154 L368 491 L135 545 L155 631 L488 550 L570 214 L484 194 L430 429 L93 91 L30 154 Z " />
<glyph glyph-name="southeastarrow" unicode="&#x2198;" horiz-adv-x="620" d="M93 597 L430 259 L484 494 L570 474 L488 138 L155 57 L135 143 L368 197 L30 534 L93 597 Z " />
<glyph glyph-name="southwestarrow" unicode="&#x2199;" horiz-adv-x="620" d="M580 534 L242 197 L475 143 L455 57 L122 138 L40 474 L126 494 L180 259 L517 597 L580 534 Z " />
<glyph glyph-name="downwardsarrowwithtiprightwards" unicode="&#x21b3;" horiz-adv-x="701" d="M60 700 L155 700 L155 392 L532 392 L407 593 L487 641 L666 346 L485 49 L406 96 L531 302 L60 302 L60 700 Z " />
<glyph glyph-name="downwardsarrowwithtipleftwards" unicode="&#x21b5;" horiz-adv-x="701" d="M646 302 L175 302 L300 96 L221 49 L40 346 L219 641 L299 593 L174 392 L551 392 L551 700 L646 700 L646 302 Z " />
<glyph glyph-name="partialdiff" unicode="&#x2202;" horiz-adv-x="586" d="M136 723 Q145 729 161.5 740 Q178 751 199 761.5 Q220 772 246 780 Q272 788 300 788 Q363 788 406.5 757.5 Q450 727 478 674.5 Q506 622 518.5 552 Q531 482 531 402 Q531 314 516.5 238 Q502 162 471.5 106 Q441 50 393 17.5 Q345 -15 278 -15 Q226 -15 183 1.5 Q140 18 109 49.5 Q78 81 61.5 126 Q45 171 45 229 Q45 283 58 331.5 Q71 380 98 417.5 Q125 455 167 477 Q209 499 267 500 Q317 500 362 485 Q407 470 440 456 Q440 509 431 554 Q422 599 405 632.5 Q388 666 361.5 685 Q335 704 299 704 Q280 704 262.5 698.5 Q245 693 229 685 Q213 677 200.5 669 Q188 661 180 655 L136 723 Z M279 76 Q322 77 351 103.5 Q380 130 397.5 172 Q415 214 423.5 265.5 Q432 317 435 369 Q389 392 347 403 Q305 414 275 414 Q236 414 210 397.5 Q184 381 168 355 Q152 329 145.5 295.5 Q139 262 139 228 Q140 160 174 118 Q208 76 279 76 Z " />
<glyph glyph-name="Delta" unicode="&#x2206;" horiz-adv-x="645" d="M272 700 L373 700 L620 0 L25 0 L272 700 Z M481 95 L322 567 L163 95 L481 95 Z " />
<glyph glyph-name="product" unicode="&#x220f;" horiz-adv-x="679" d="M159 560 L40 560 L40 650 L639 650 L639 560 L521 560 L521 -141 L428 -141 L428 560 L252 560 L252 -141 L159 -141 L159 560 Z " />
<glyph glyph-name="summation" unicode="&#x2211;" horiz-adv-x="594" d="M60 -3 L300 310 L70 603 L70 700 L544 700 L544 605 L191 605 L417 311 L177 -5 L544 -5 L544 -100 L60 -100 L60 -3 Z " />
<glyph glyph-name="minus" unicode="&#x2212;" horiz-adv-x="619" d="M50 414 L569 414 L569 334 L50 334 L50 414 Z " />
<glyph glyph-name="radical" unicode="&#x221a;" horiz-adv-x="631" d="M144 337 L10 337 L10 422 L216 422 L307 143 L496 700 L596 700 L353 0 L261 0 L144 337 Z " />
<glyph glyph-name="infinity" unicode="&#x221e;" horiz-adv-x="722" d="M228 110 Q191 110 160.5 124.5 Q130 139 107.5 165 Q85 191 72.5 226 Q60 261 60 303 Q60 345 72 380.5 Q84 416 106 442 Q128 468 159 483 Q190 498 227 498 Q252 498 273.5 489.5 Q295 481 312.5 468 Q330 455 342.5 440 Q355 425 361 413 Q367 425 379.5 440 Q392 455 409.5 468 Q427 481 448.5 489.5 Q470 498 495 498 Q532 498 562.5 483 Q593 468 615 442 Q637 416 649.5 380.5 Q662 345 662 303 Q662 261 650 226 Q638 191 616 165 Q594 139 563.5 124.5 Q533 110 496 110 Q471 110 449.5 118 Q428 126 410.5 138 Q393 150 380.5 164 Q368 178 362 190 Q356 178 343.5 164 Q331 150 313.5 138 Q296 126 274.5 118 Q253 110 228 110 Z M388 303 Q402 267 416 245.5 Q430 224 443.5 213.5 Q457 203 469.5 200 Q482 197 491 197 Q518 197 535 208 Q552 219 561.5 235 Q571 251 574.5 269.5 Q578 288 578 303 Q578 318 574.5 337 Q571 356 561.5 372.5 Q552 389 534.5 400 Q517 411 490 411 Q481 411 469 408 Q457 405 443.5 394 Q430 383 416 361.5 Q402 340 388 303 Z M333 303 Q320 340 306 361.5 Q292 383 278.5 394 Q265 405 253 408 Q241 411 232 411 Q205 411 187.5 400 Q170 389 160.5 372.5 Q151 356 147.5 337 Q144 318 144 303 Q144 288 147.5 269.5 Q151 251 161 235 Q171 219 188 208 Q205 197 233 197 Q242 197 254 200 Q266 203 279 213.5 Q292 224 306 245.5 Q320 267 333 303 Z " />
<glyph glyph-name="integral" unicode="&#x222b;" horiz-adv-x="421" d="M40 -154 Q77 -154 100.5 -147.5 Q124 -141 137.5 -128 Q151 -115 156.5 -94.5 Q162 -74 162 -45 L162 532 Q162 591 173.5 632 Q185 673 210.5 698 Q236 723 278 734 Q320 745 381 745 L381 658 Q342 658 318 651.5 Q294 645 280.5 631 Q267 617 262.5 595 Q258 573 258 541 L258 -27 Q258 -86 246.5 -127 Q235 -168 209.5 -193 Q184 -218 142.5 -229 Q101 -240 40 -240 L40 -154 Z " />
<glyph glyph-name="approxequal" unicode="&#x2248;" horiz-adv-x="595" d="M50 433 Q55 456 66 480.5 Q77 505 94.5 525 Q112 545 136.5 558 Q161 571 192 571 Q229 571 258 557.5 Q287 544 312.5 527.5 Q338 511 361.5 497.5 Q385 484 410 484 Q430 484 443 492.5 Q456 501 464.5 514.5 Q473 528 478 543.5 Q483 559 487 573 L545 541 Q540 518 529.5 493.5 Q519 469 502.5 449 Q486 429 462.5 416 Q439 403 408 403 Q371 403 341.5 416.5 Q312 430 286.5 446.5 Q261 463 238 476.5 Q215 490 190 490 Q171 490 157 481.5 Q143 473 133 459.5 Q123 446 117 430.5 Q111 415 107 401 L50 433 Z M50 215 Q55 238 66 262.5 Q77 287 94.5 307 Q112 327 136.5 340 Q161 353 192 353 Q229 353 258 339.5 Q287 326 312.5 309.5 Q338 293 361.5 279.5 Q385 266 410 266 Q430 266 443 274.5 Q456 283 464.5 296.5 Q473 310 478 325.5 Q483 341 487 355 L545 323 Q540 300 529.5 275.5 Q519 251 502.5 231 Q486 211 462.5 198 Q439 185 408 185 Q371 185 341.5 198.5 Q312 212 286.5 228.5 Q261 245 238 258.5 Q215 272 190 272 Q171 272 157 263.5 Q143 255 133 241.5 Q123 228 117 212.5 Q111 197 107 183 L50 215 Z " />
<glyph glyph-name="notequal" unicode="&#x2260;" horiz-adv-x="583" d="M60 495 L329 495 L395 613 L448 582 L399 495 L523 495 L523 415 L354 415 L301 322 L523 322 L523 242 L256 242 L187 118 L134 148 L187 242 L60 242 L60 322 L232 322 L284 415 L60 415 L60 495 Z " />
<glyph glyph-name="lessequal" unicode="&#x2264;" horiz-adv-x="535" d="M50 80 L483 80 L483 0 L50 0 L50 80 Z M50 452 L441 685 L485 614 L156 417 L484 219 L440 147 L50 382 L50 452 Z " />
<glyph glyph-name="greaterequal" unicode="&#x2265;" horiz-adv-x="535" d="M465 0 L32 0 L32 80 L465 80 L465 0 Z M465 382 L75 147 L31 219 L359 417 L30 614 L74 685 L465 452 L465 382 Z " />
<glyph glyph-name="lozenge" unicode="&#x25ca;" horiz-adv-x="585" d="M30 356 L230 700 L353 700 L555 356 L352 0 L231 0 L30 356 Z M455 356 L292 627 L130 355 L292 70 L455 356 Z " />
<glyph glyph-name="commaaccent" unicode="&#xf6c3;" horiz-adv-x="288" d="M93 -201 Q122 -196 131.5 -184 Q141 -172 141 -149 L90 -149 L90 -51 L198 -51 L198 -135 Q198 -183 174.5 -210 Q151 -237 93 -241 L93 -201 Z " />
<glyph glyph-name="apple" unicode="&#xf8ff;" horiz-adv-x="766" d="M90 423 Q90 481 113 533.5 Q136 586 175.5 626.5 Q215 667 268.5 691 Q322 715 382 715 Q443 715 496.5 691 Q550 667 590 626.5 Q630 586 653 533.5 Q676 481 676 423 L676 0 L648 0 L583 65 L515 0 L452 65 L381 0 L312 65 L249 0 L182 65 L116 0 L90 0 L90 423 Z M440 377 Q440 348 460.5 327.5 Q481 307 510 307 Q539 307 560.5 327.5 Q582 348 582 377 Q582 407 560.5 428 Q539 449 510 449 Q481 449 460.5 428 Q440 407 440 377 Z M185 377 Q185 348 206 327.5 Q227 307 256 307 Q286 307 306.5 327.5 Q327 348 327 377 Q327 407 306.5 428 Q286 449 256 449 Q227 449 206 428 Q185 407 185 377 Z " />
<glyph glyph-name="fi" unicode="&#xfb01;" horiz-adv-x="580" d="M103 445 L25 445 L25 530 L104 530 L104 608 Q104 644 113 667.5 Q122 691 138.5 705 Q155 719 177.5 724.5 Q200 730 228 730 L304 730 L304 642 L247 642 Q218 642 208 631.5 Q198 621 198 587 L198 530 L496 530 L496 0 L398 0 L398 445 L200 445 L200 0 L103 0 L103 445 Z M394 730 L500 730 L500 627 L394 627 L394 730 Z " />
<glyph glyph-name="fl" unicode="&#xfb02;" horiz-adv-x="574" d="M103 445 L25 445 L25 530 L104 530 L104 608 Q104 644 113 667.5 Q122 691 138.5 705 Q155 719 177.5 724.5 Q200 730 228 730 L304 730 L304 642 L247 642 Q218 642 208 631.5 Q198 621 198 587 L198 530 L394 530 L394 730 L494 730 L494 0 L394 0 L394 445 L200 445 L200 0 L103 0 L103 445 Z " />
</font>
</svg>
